*
*
G04 PADS Layout (Build Number 2004.211.1) generated Gerber (RS-274-X) file*
G04 PC Version=2.1*
*
%IN "BD9E303EFJ-EVK-001.pcb"*%
*
%MOMM*%
*
%FSLAX35Y35*%
*
*
*
*
G04 PC Standard Apertures*
*
*
G04 Thermal Relief Aperture macro.*
%AMTER*
1,1,$1,0,0*
1,0,$1-$2,0,0*
21,0,$3,$4,0,0,45*
21,0,$3,$4,0,0,135*
%
*
*
G04 Annular Aperture macro.*
%AMANN*
1,1,$1,0,0*
1,0,$2,0,0*
%
*
*
G04 Odd Aperture macro.*
%AMODD*
1,1,$1,0,0*
1,0,$1-0.005,0,0*
%
*
*
G04 PC Custom Aperture Macros*
*
*
*
*
*
*
G04 PC Aperture Table*
*
%ADD019C,0.2*%
%ADD024C,0.254*%
%ADD034C,0.0254*%
*
*
*
*
G04 PC Custom Flashes*
G04 Layer Name BD9E303EFJ-EVK-001.pcb - flashes*
%LPD*%
*
*
G04 PC Circuitry*
G04 Layer Name BD9E303EFJ-EVK-001.pcb - circuitry*
%LPD*%
*
G54D19*
G01X10000000Y32600000D02*
X22142550Y32600000D01*
X10000000Y32600000D02*
X10254000Y32663500D01*
X10254000Y32536500*
X10000000Y32600000*
X35000000Y32600000D02*
X22857450Y32600000D01*
X35000000Y32600000D02*
X34746000Y32536500D01*
X34746000Y32663500*
X35000000Y32600000*
X22224431Y32631250D02*
X22224431Y32639062D01*
X22224431Y32639062D02*
X22230113Y32654687D01*
X22230113Y32654687D02*
X22235795Y32662500D01*
X22247159Y32670312*
X22247159Y32670312D02*
X22269886Y32670312D01*
X22269886Y32670312D02*
X22281250Y32662500D01*
X22286931Y32654687*
X22286931Y32654687D02*
X22292613Y32639062D01*
X22292613Y32639062D02*
X22292613Y32623437D01*
X22292613Y32623437D02*
X22286931Y32607812D01*
X22286931Y32607812D02*
X22275568Y32584375D01*
X22218750Y32506250*
X22298295Y32506250*
X22423295Y32670312D02*
X22366477Y32670312D01*
X22366477Y32670312D02*
X22360795Y32600000D01*
X22366477Y32607812*
X22366477Y32607812D02*
X22383522Y32615625D01*
X22383522Y32615625D02*
X22400568Y32615625D01*
X22417613Y32607812*
X22417613Y32607812D02*
X22428977Y32592187D01*
X22428977Y32592187D02*
X22434659Y32568750D01*
X22428977Y32553125*
X22423295Y32529687*
X22423295Y32529687D02*
X22411931Y32514062D01*
X22411931Y32514062D02*
X22394886Y32506250D01*
X22377840Y32506250*
X22377840Y32506250D02*
X22360795Y32514062D01*
X22360795Y32514062D02*
X22355113Y32521875D01*
X22355113Y32521875D02*
X22349431Y32537500D01*
X22519886Y32670312D02*
X22502840Y32662500D01*
X22502840Y32662500D02*
X22491477Y32639062D01*
X22491477Y32639062D02*
X22485795Y32600000D01*
X22485795Y32576562*
X22485795Y32576562D02*
X22491477Y32537500D01*
X22502840Y32514062*
X22502840Y32514062D02*
X22519886Y32506250D01*
X22531250Y32506250*
X22548295Y32514062*
X22548295Y32514062D02*
X22559659Y32537500D01*
X22565340Y32576562*
X22565340Y32576562D02*
X22565340Y32600000D01*
X22565340Y32600000D02*
X22559659Y32639062D01*
X22559659Y32639062D02*
X22548295Y32662500D01*
X22531250Y32670312*
X22531250Y32670312D02*
X22519886Y32670312D01*
X22622159Y32521875D02*
X22616477Y32514062D01*
X22616477Y32514062D02*
X22622159Y32506250D01*
X22627840Y32514062*
X22627840Y32514062D02*
X22622159Y32521875D01*
X22713068Y32670312D02*
X22696022Y32662500D01*
X22696022Y32662500D02*
X22684659Y32639062D01*
X22684659Y32639062D02*
X22678977Y32600000D01*
X22678977Y32576562*
X22678977Y32576562D02*
X22684659Y32537500D01*
X22696022Y32514062*
X22696022Y32514062D02*
X22713068Y32506250D01*
X22724431Y32506250*
X22724431Y32506250D02*
X22741477Y32514062D01*
X22741477Y32514062D02*
X22752840Y32537500D01*
X22752840Y32537500D02*
X22758522Y32576562D01*
X22758522Y32576562D02*
X22758522Y32600000D01*
X22758522Y32600000D02*
X22752840Y32639062D01*
X22752840Y32639062D02*
X22741477Y32662500D01*
X22724431Y32670312*
X22724431Y32670312D02*
X22713068Y32670312D01*
X39500000Y10000000D02*
X39500000Y19830050D01*
X39500000Y10000000D02*
X39436500Y10254000D01*
X39563500Y10254000*
X39500000Y10000000*
X39500000Y30000000D02*
X39500000Y20169950D01*
X39500000Y30000000D02*
X39563500Y29746000D01*
X39436500Y29746000*
X39500000Y30000000*
X39227272Y20031250D02*
X39227272Y20039062D01*
X39227272Y20039062D02*
X39232954Y20054687D01*
X39232954Y20054687D02*
X39238636Y20062500D01*
X39250000Y20070312*
X39250000Y20070312D02*
X39272727Y20070312D01*
X39272727Y20070312D02*
X39284090Y20062500D01*
X39284090Y20062500D02*
X39289772Y20054687D01*
X39289772Y20054687D02*
X39295454Y20039062D01*
X39295454Y20039062D02*
X39295454Y20023437D01*
X39295454Y20023437D02*
X39289772Y20007812D01*
X39289772Y20007812D02*
X39278409Y19984375D01*
X39221590Y19906250*
X39221590Y19906250D02*
X39301136Y19906250D01*
X39386363Y20070312D02*
X39369318Y20062500D01*
X39357954Y20039062*
X39357954Y20039062D02*
X39352272Y20000000D01*
X39352272Y20000000D02*
X39352272Y19976562D01*
X39352272Y19976562D02*
X39357954Y19937500D01*
X39357954Y19937500D02*
X39369318Y19914062D01*
X39369318Y19914062D02*
X39386363Y19906250D01*
X39386363Y19906250D02*
X39397727Y19906250D01*
X39414772Y19914062*
X39414772Y19914062D02*
X39426136Y19937500D01*
X39431818Y19976562*
X39431818Y19976562D02*
X39431818Y20000000D01*
X39426136Y20039062*
X39426136Y20039062D02*
X39414772Y20062500D01*
X39414772Y20062500D02*
X39397727Y20070312D01*
X39397727Y20070312D02*
X39386363Y20070312D01*
X39517045Y20070312D02*
X39500000Y20062500D01*
X39488636Y20039062*
X39488636Y20039062D02*
X39482954Y20000000D01*
X39482954Y20000000D02*
X39482954Y19976562D01*
X39482954Y19976562D02*
X39488636Y19937500D01*
X39500000Y19914062*
X39500000Y19914062D02*
X39517045Y19906250D01*
X39517045Y19906250D02*
X39528409Y19906250D01*
X39545454Y19914062*
X39545454Y19914062D02*
X39556818Y19937500D01*
X39562500Y19976562*
X39562500Y19976562D02*
X39562500Y20000000D01*
X39556818Y20039062*
X39556818Y20039062D02*
X39545454Y20062500D01*
X39545454Y20062500D02*
X39528409Y20070312D01*
X39528409Y20070312D02*
X39517045Y20070312D01*
X39619318Y19921875D02*
X39613636Y19914062D01*
X39613636Y19914062D02*
X39619318Y19906250D01*
X39625000Y19914062*
X39625000Y19914062D02*
X39619318Y19921875D01*
X39710227Y20070312D02*
X39693181Y20062500D01*
X39693181Y20062500D02*
X39681818Y20039062D01*
X39681818Y20039062D02*
X39676136Y20000000D01*
X39676136Y19976562*
X39676136Y19976562D02*
X39681818Y19937500D01*
X39693181Y19914062*
X39693181Y19914062D02*
X39710227Y19906250D01*
X39721590Y19906250*
X39721590Y19906250D02*
X39738636Y19914062D01*
X39738636Y19914062D02*
X39750000Y19937500D01*
X39755681Y19976562*
X39755681Y19976562D02*
X39755681Y20000000D01*
X39755681Y20000000D02*
X39750000Y20039062D01*
X39750000Y20039062D02*
X39738636Y20062500D01*
X39721590Y20070312*
X39721590Y20070312D02*
X39710227Y20070312D01*
X38800000Y10000000D02*
X38800000Y12330050D01*
X38800000Y10000000D02*
X38736500Y10254000D01*
X38863500Y10254000*
X38800000Y10000000*
X38800000Y15000000D02*
X38800000Y12669950D01*
X38800000Y15000000D02*
X38863500Y14746000D01*
X38736500Y14746000*
X38800000Y15000000*
X38657954Y12570312D02*
X38601136Y12570312D01*
X38601136Y12570312D02*
X38595454Y12500000D01*
X38595454Y12500000D02*
X38601136Y12507812D01*
X38601136Y12507812D02*
X38618181Y12515625D01*
X38618181Y12515625D02*
X38635227Y12515625D01*
X38652272Y12507812*
X38652272Y12507812D02*
X38663636Y12492187D01*
X38663636Y12492187D02*
X38669318Y12468750D01*
X38663636Y12453125*
X38657954Y12429687*
X38657954Y12429687D02*
X38646590Y12414062D01*
X38646590Y12414062D02*
X38629545Y12406250D01*
X38629545Y12406250D02*
X38612500Y12406250D01*
X38595454Y12414062*
X38595454Y12414062D02*
X38589772Y12421875D01*
X38589772Y12421875D02*
X38584090Y12437500D01*
X38754545Y12570312D02*
X38737500Y12562500D01*
X38726136Y12539062*
X38726136Y12539062D02*
X38720454Y12500000D01*
X38720454Y12500000D02*
X38720454Y12476562D01*
X38720454Y12476562D02*
X38726136Y12437500D01*
X38737500Y12414062*
X38737500Y12414062D02*
X38754545Y12406250D01*
X38754545Y12406250D02*
X38765909Y12406250D01*
X38782954Y12414062*
X38782954Y12414062D02*
X38794318Y12437500D01*
X38800000Y12476562*
X38800000Y12476562D02*
X38800000Y12500000D01*
X38794318Y12539062*
X38794318Y12539062D02*
X38782954Y12562500D01*
X38782954Y12562500D02*
X38765909Y12570312D01*
X38765909Y12570312D02*
X38754545Y12570312D01*
X38856818Y12421875D02*
X38851136Y12414062D01*
X38851136Y12414062D02*
X38856818Y12406250D01*
X38862500Y12414062*
X38862500Y12414062D02*
X38856818Y12421875D01*
X38947727Y12570312D02*
X38930681Y12562500D01*
X38930681Y12562500D02*
X38919318Y12539062D01*
X38919318Y12539062D02*
X38913636Y12500000D01*
X38913636Y12476562*
X38913636Y12476562D02*
X38919318Y12437500D01*
X38930681Y12414062*
X38930681Y12414062D02*
X38947727Y12406250D01*
X38959090Y12406250*
X38959090Y12406250D02*
X38976136Y12414062D01*
X38976136Y12414062D02*
X38987500Y12437500D01*
X38993181Y12476562*
X38993181Y12476562D02*
X38993181Y12500000D01*
X38993181Y12500000D02*
X38987500Y12539062D01*
X38987500Y12539062D02*
X38976136Y12562500D01*
X38959090Y12570312*
X38959090Y12570312D02*
X38947727Y12570312D01*
X38800000Y15000000D02*
X38800000Y17330050D01*
X38800000Y15000000D02*
X38736500Y15254000D01*
X38863500Y15254000*
X38800000Y15000000*
X38800000Y20000000D02*
X38800000Y17669950D01*
X38800000Y20000000D02*
X38863500Y19746000D01*
X38736500Y19746000*
X38800000Y20000000*
X38657954Y17570312D02*
X38601136Y17570312D01*
X38601136Y17570312D02*
X38595454Y17500000D01*
X38595454Y17500000D02*
X38601136Y17507812D01*
X38601136Y17507812D02*
X38618181Y17515625D01*
X38618181Y17515625D02*
X38635227Y17515625D01*
X38652272Y17507812*
X38652272Y17507812D02*
X38663636Y17492187D01*
X38663636Y17492187D02*
X38669318Y17468750D01*
X38663636Y17453125*
X38657954Y17429687*
X38657954Y17429687D02*
X38646590Y17414062D01*
X38646590Y17414062D02*
X38629545Y17406250D01*
X38629545Y17406250D02*
X38612500Y17406250D01*
X38595454Y17414062*
X38595454Y17414062D02*
X38589772Y17421875D01*
X38589772Y17421875D02*
X38584090Y17437500D01*
X38754545Y17570312D02*
X38737500Y17562500D01*
X38726136Y17539062*
X38726136Y17539062D02*
X38720454Y17500000D01*
X38720454Y17500000D02*
X38720454Y17476562D01*
X38720454Y17476562D02*
X38726136Y17437500D01*
X38737500Y17414062*
X38737500Y17414062D02*
X38754545Y17406250D01*
X38754545Y17406250D02*
X38765909Y17406250D01*
X38782954Y17414062*
X38782954Y17414062D02*
X38794318Y17437500D01*
X38800000Y17476562*
X38800000Y17476562D02*
X38800000Y17500000D01*
X38794318Y17539062*
X38794318Y17539062D02*
X38782954Y17562500D01*
X38782954Y17562500D02*
X38765909Y17570312D01*
X38765909Y17570312D02*
X38754545Y17570312D01*
X38856818Y17421875D02*
X38851136Y17414062D01*
X38851136Y17414062D02*
X38856818Y17406250D01*
X38862500Y17414062*
X38862500Y17414062D02*
X38856818Y17421875D01*
X38947727Y17570312D02*
X38930681Y17562500D01*
X38930681Y17562500D02*
X38919318Y17539062D01*
X38919318Y17539062D02*
X38913636Y17500000D01*
X38913636Y17476562*
X38913636Y17476562D02*
X38919318Y17437500D01*
X38930681Y17414062*
X38930681Y17414062D02*
X38947727Y17406250D01*
X38959090Y17406250*
X38959090Y17406250D02*
X38976136Y17414062D01*
X38976136Y17414062D02*
X38987500Y17437500D01*
X38993181Y17476562*
X38993181Y17476562D02*
X38993181Y17500000D01*
X38993181Y17500000D02*
X38987500Y17539062D01*
X38987500Y17539062D02*
X38976136Y17562500D01*
X38959090Y17570312*
X38959090Y17570312D02*
X38947727Y17570312D01*
X10000000Y32000000D02*
X12207890Y32000000D01*
X10000000Y32000000D02*
X10254000Y32063500D01*
X10254000Y31936500*
X10000000Y32000000*
X15000000Y32000000D02*
X12792109Y32000000D01*
X15000000Y32000000D02*
X14746000Y31936500D01*
X14746000Y32063500*
X15000000Y32000000*
X12357954Y32070312D02*
X12301136Y32070312D01*
X12301136Y32070312D02*
X12295454Y32000000D01*
X12295454Y32000000D02*
X12301136Y32007812D01*
X12301136Y32007812D02*
X12318181Y32015625D01*
X12318181Y32015625D02*
X12335227Y32015625D01*
X12352272Y32007812*
X12352272Y32007812D02*
X12363636Y31992187D01*
X12363636Y31992187D02*
X12369318Y31968750D01*
X12363636Y31953125*
X12357954Y31929687*
X12357954Y31929687D02*
X12346590Y31914062D01*
X12346590Y31914062D02*
X12329545Y31906250D01*
X12329545Y31906250D02*
X12312500Y31906250D01*
X12295454Y31914062*
X12295454Y31914062D02*
X12289772Y31921875D01*
X12289772Y31921875D02*
X12284090Y31937500D01*
X12454545Y32070312D02*
X12437500Y32062500D01*
X12426136Y32039062*
X12426136Y32039062D02*
X12420454Y32000000D01*
X12420454Y32000000D02*
X12420454Y31976562D01*
X12420454Y31976562D02*
X12426136Y31937500D01*
X12437500Y31914062*
X12437500Y31914062D02*
X12454545Y31906250D01*
X12454545Y31906250D02*
X12465909Y31906250D01*
X12482954Y31914062*
X12482954Y31914062D02*
X12494318Y31937500D01*
X12500000Y31976562*
X12500000Y31976562D02*
X12500000Y32000000D01*
X12494318Y32039062*
X12494318Y32039062D02*
X12482954Y32062500D01*
X12482954Y32062500D02*
X12465909Y32070312D01*
X12465909Y32070312D02*
X12454545Y32070312D01*
X12556818Y31921875D02*
X12551136Y31914062D01*
X12551136Y31914062D02*
X12556818Y31906250D01*
X12562500Y31914062*
X12562500Y31914062D02*
X12556818Y31921875D01*
X12647727Y32070312D02*
X12630681Y32062500D01*
X12630681Y32062500D02*
X12619318Y32039062D01*
X12619318Y32039062D02*
X12613636Y32000000D01*
X12613636Y31976562*
X12613636Y31976562D02*
X12619318Y31937500D01*
X12630681Y31914062*
X12630681Y31914062D02*
X12647727Y31906250D01*
X12659090Y31906250*
X12659090Y31906250D02*
X12676136Y31914062D01*
X12676136Y31914062D02*
X12687500Y31937500D01*
X12693181Y31976562*
X12693181Y31976562D02*
X12693181Y32000000D01*
X12693181Y32000000D02*
X12687500Y32039062D01*
X12687500Y32039062D02*
X12676136Y32062500D01*
X12659090Y32070312*
X12659090Y32070312D02*
X12647727Y32070312D01*
X20000000Y32000000D02*
X17792109Y32000000D01*
X20000000Y32000000D02*
X19746000Y31936500D01*
X19746000Y32063500*
X20000000Y32000000*
X15000000Y32000000D02*
X17207890Y32000000D01*
X15000000Y32000000D02*
X15254000Y32063500D01*
X15254000Y31936500*
X15000000Y32000000*
X17357954Y32070312D02*
X17301136Y32070312D01*
X17301136Y32070312D02*
X17295454Y32000000D01*
X17295454Y32000000D02*
X17301136Y32007812D01*
X17301136Y32007812D02*
X17318181Y32015625D01*
X17318181Y32015625D02*
X17335227Y32015625D01*
X17352272Y32007812*
X17352272Y32007812D02*
X17363636Y31992187D01*
X17363636Y31992187D02*
X17369318Y31968750D01*
X17363636Y31953125*
X17357954Y31929687*
X17357954Y31929687D02*
X17346590Y31914062D01*
X17346590Y31914062D02*
X17329545Y31906250D01*
X17329545Y31906250D02*
X17312500Y31906250D01*
X17295454Y31914062*
X17295454Y31914062D02*
X17289772Y31921875D01*
X17289772Y31921875D02*
X17284090Y31937500D01*
X17454545Y32070312D02*
X17437500Y32062500D01*
X17426136Y32039062*
X17426136Y32039062D02*
X17420454Y32000000D01*
X17420454Y32000000D02*
X17420454Y31976562D01*
X17420454Y31976562D02*
X17426136Y31937500D01*
X17437500Y31914062*
X17437500Y31914062D02*
X17454545Y31906250D01*
X17454545Y31906250D02*
X17465909Y31906250D01*
X17482954Y31914062*
X17482954Y31914062D02*
X17494318Y31937500D01*
X17500000Y31976562*
X17500000Y31976562D02*
X17500000Y32000000D01*
X17494318Y32039062*
X17494318Y32039062D02*
X17482954Y32062500D01*
X17482954Y32062500D02*
X17465909Y32070312D01*
X17465909Y32070312D02*
X17454545Y32070312D01*
X17556818Y31921875D02*
X17551136Y31914062D01*
X17551136Y31914062D02*
X17556818Y31906250D01*
X17562500Y31914062*
X17562500Y31914062D02*
X17556818Y31921875D01*
X17647727Y32070312D02*
X17630681Y32062500D01*
X17630681Y32062500D02*
X17619318Y32039062D01*
X17619318Y32039062D02*
X17613636Y32000000D01*
X17613636Y31976562*
X17613636Y31976562D02*
X17619318Y31937500D01*
X17630681Y31914062*
X17630681Y31914062D02*
X17647727Y31906250D01*
X17659090Y31906250*
X17659090Y31906250D02*
X17676136Y31914062D01*
X17676136Y31914062D02*
X17687500Y31937500D01*
X17693181Y31976562*
X17693181Y31976562D02*
X17693181Y32000000D01*
X17693181Y32000000D02*
X17687500Y32039062D01*
X17687500Y32039062D02*
X17676136Y32062500D01*
X17659090Y32070312*
X17659090Y32070312D02*
X17647727Y32070312D01*
X25000000Y32000000D02*
X22792109Y32000000D01*
X25000000Y32000000D02*
X24746000Y31936500D01*
X24746000Y32063500*
X25000000Y32000000*
X20000000Y32000000D02*
X22207890Y32000000D01*
X20000000Y32000000D02*
X20254000Y32063500D01*
X20254000Y31936500*
X20000000Y32000000*
X22357954Y32070312D02*
X22301136Y32070312D01*
X22301136Y32070312D02*
X22295454Y32000000D01*
X22295454Y32000000D02*
X22301136Y32007812D01*
X22301136Y32007812D02*
X22318181Y32015625D01*
X22318181Y32015625D02*
X22335227Y32015625D01*
X22352272Y32007812*
X22352272Y32007812D02*
X22363636Y31992187D01*
X22363636Y31992187D02*
X22369318Y31968750D01*
X22363636Y31953125*
X22357954Y31929687*
X22357954Y31929687D02*
X22346590Y31914062D01*
X22346590Y31914062D02*
X22329545Y31906250D01*
X22329545Y31906250D02*
X22312500Y31906250D01*
X22295454Y31914062*
X22295454Y31914062D02*
X22289772Y31921875D01*
X22289772Y31921875D02*
X22284090Y31937500D01*
X22454545Y32070312D02*
X22437500Y32062500D01*
X22426136Y32039062*
X22426136Y32039062D02*
X22420454Y32000000D01*
X22420454Y32000000D02*
X22420454Y31976562D01*
X22420454Y31976562D02*
X22426136Y31937500D01*
X22437500Y31914062*
X22437500Y31914062D02*
X22454545Y31906250D01*
X22454545Y31906250D02*
X22465909Y31906250D01*
X22482954Y31914062*
X22482954Y31914062D02*
X22494318Y31937500D01*
X22500000Y31976562*
X22500000Y31976562D02*
X22500000Y32000000D01*
X22494318Y32039062*
X22494318Y32039062D02*
X22482954Y32062500D01*
X22482954Y32062500D02*
X22465909Y32070312D01*
X22465909Y32070312D02*
X22454545Y32070312D01*
X22556818Y31921875D02*
X22551136Y31914062D01*
X22551136Y31914062D02*
X22556818Y31906250D01*
X22562500Y31914062*
X22562500Y31914062D02*
X22556818Y31921875D01*
X22647727Y32070312D02*
X22630681Y32062500D01*
X22630681Y32062500D02*
X22619318Y32039062D01*
X22619318Y32039062D02*
X22613636Y32000000D01*
X22613636Y31976562*
X22613636Y31976562D02*
X22619318Y31937500D01*
X22630681Y31914062*
X22630681Y31914062D02*
X22647727Y31906250D01*
X22659090Y31906250*
X22659090Y31906250D02*
X22676136Y31914062D01*
X22676136Y31914062D02*
X22687500Y31937500D01*
X22693181Y31976562*
X22693181Y31976562D02*
X22693181Y32000000D01*
X22693181Y32000000D02*
X22687500Y32039062D01*
X22687500Y32039062D02*
X22676136Y32062500D01*
X22659090Y32070312*
X22659090Y32070312D02*
X22647727Y32070312D01*
X8999999Y31600000D02*
G75*
G03X8999999Y31600000I-199999D01*
G01X8550000Y31600000D02*
X9050000Y31600000D01*
X8800000Y31850000D02*
X8800000Y31350000D01*
X39799999Y8400000D02*
G03X39799999Y8400000I-199999D01*
G01X39350000Y8400000D02*
X39850000Y8400000D01*
X39600000Y8650000D02*
X39600000Y8150000D01*
X40399999Y8400000D02*
G03X40399999Y8400000I-199999D01*
G01X39950000Y8400000D02*
X40450000Y8400000D01*
X40200000Y8650000D02*
X40200000Y8150000D01*
X15000000Y10000000D02*
X15224506Y9865296D01*
X15134703Y9775493*
X15134703Y9775493D02*
X15000000Y10000000D01*
X16476236Y9170106D02*
X16521691Y9006043D01*
X16567145Y9170106D02*
X16521691Y9006043D01*
X16618282Y9076356D02*
X16720554Y9076356D01*
X16856918Y9131043D02*
X16851236Y9146668D01*
X16851236Y9146668D02*
X16839873Y9162293D01*
X16839873Y9162293D02*
X16828509Y9170106D01*
X16828509Y9170106D02*
X16805782Y9170106D01*
X16794418Y9162293*
X16794418Y9162293D02*
X16783054Y9146668D01*
X16783054Y9146668D02*
X16777373Y9131043D01*
X16777373Y9131043D02*
X16771691Y9107606D01*
X16771691Y9068543*
X16771691Y9068543D02*
X16777373Y9045106D01*
X16783054Y9029481*
X16783054Y9029481D02*
X16794418Y9013856D01*
X16794418Y9013856D02*
X16805782Y9006043D01*
X16805782Y9006043D02*
X16828509Y9006043D01*
X16828509Y9006043D02*
X16839873Y9013856D01*
X16851236Y9029481*
X16851236Y9029481D02*
X16856918Y9045106D01*
X16908054Y9170106D02*
X16908054Y9052918D01*
X16908054Y9052918D02*
X16913736Y9029481D01*
X16913736Y9029481D02*
X16925100Y9013856D01*
X16942145Y9006043*
X16942145Y9006043D02*
X16953509Y9006043D01*
X16953509Y9006043D02*
X16970554Y9013856D01*
X16970554Y9013856D02*
X16981918Y9029481D01*
X16981918Y9029481D02*
X16987600Y9052918D01*
X16987600Y9052918D02*
X16987600Y9170106D01*
X17078509Y9170106D02*
X17078509Y9006043D01*
X17038736Y9170106D02*
X17118282Y9170106D01*
X25000000Y10000000D02*
X25224506Y9865296D01*
X25134703Y9775493*
X25134703Y9775493D02*
X25000000Y10000000D01*
X26381389Y9019122D02*
X26426844Y8855060D01*
X26472298Y9019122D02*
X26426844Y8855060D01*
X26523435Y8925372D02*
X26625707Y8925372D01*
X26762071Y8980060D02*
X26756389Y8995685D01*
X26756389Y8995685D02*
X26745026Y9011310D01*
X26733662Y9019122*
X26733662Y9019122D02*
X26710935Y9019122D01*
X26710935Y9019122D02*
X26699571Y9011310D01*
X26699571Y9011310D02*
X26688207Y8995685D01*
X26688207Y8995685D02*
X26682526Y8980060D01*
X26676844Y8956622*
X26676844Y8956622D02*
X26676844Y8917560D01*
X26682526Y8894122*
X26682526Y8894122D02*
X26688207Y8878497D01*
X26688207Y8878497D02*
X26699571Y8862872D01*
X26699571Y8862872D02*
X26710935Y8855060D01*
X26733662Y8855060*
X26733662Y8855060D02*
X26745026Y8862872D01*
X26745026Y8862872D02*
X26756389Y8878497D01*
X26756389Y8878497D02*
X26762071Y8894122D01*
X26813207Y9019122D02*
X26813207Y8901935D01*
X26813207Y8901935D02*
X26818889Y8878497D01*
X26818889Y8878497D02*
X26830253Y8862872D01*
X26830253Y8862872D02*
X26847298Y8855060D01*
X26847298Y8855060D02*
X26858662Y8855060D01*
X26858662Y8855060D02*
X26875707Y8862872D01*
X26875707Y8862872D02*
X26887071Y8878497D01*
X26887071Y8878497D02*
X26892753Y8901935D01*
X26892753Y9019122*
X26983662Y9019122D02*
X26983662Y8855060D01*
X26943889Y9019122D02*
X27023435Y9019122D01*
X30000000Y10000000D02*
X30224506Y9865296D01*
X30134703Y9775493*
X30134703Y9775493D02*
X30000000Y10000000D01*
X31381389Y9019122D02*
X31426844Y8855060D01*
X31472298Y9019122D02*
X31426844Y8855060D01*
X31523435Y8925372D02*
X31625707Y8925372D01*
X31762071Y8980060D02*
X31756389Y8995685D01*
X31756389Y8995685D02*
X31745026Y9011310D01*
X31733662Y9019122*
X31733662Y9019122D02*
X31710935Y9019122D01*
X31710935Y9019122D02*
X31699571Y9011310D01*
X31699571Y9011310D02*
X31688207Y8995685D01*
X31688207Y8995685D02*
X31682526Y8980060D01*
X31676844Y8956622*
X31676844Y8956622D02*
X31676844Y8917560D01*
X31682526Y8894122*
X31682526Y8894122D02*
X31688207Y8878497D01*
X31688207Y8878497D02*
X31699571Y8862872D01*
X31699571Y8862872D02*
X31710935Y8855060D01*
X31733662Y8855060*
X31733662Y8855060D02*
X31745026Y8862872D01*
X31745026Y8862872D02*
X31756389Y8878497D01*
X31756389Y8878497D02*
X31762071Y8894122D01*
X31813207Y9019122D02*
X31813207Y8901935D01*
X31813207Y8901935D02*
X31818889Y8878497D01*
X31818889Y8878497D02*
X31830253Y8862872D01*
X31830253Y8862872D02*
X31847298Y8855060D01*
X31847298Y8855060D02*
X31858662Y8855060D01*
X31858662Y8855060D02*
X31875707Y8862872D01*
X31875707Y8862872D02*
X31887071Y8878497D01*
X31887071Y8878497D02*
X31892753Y8901935D01*
X31892753Y9019122*
X31983662Y9019122D02*
X31983662Y8855060D01*
X31943889Y9019122D02*
X32023435Y9019122D01*
X10000000Y25004987D02*
X9746000Y24941487D01*
X9746000Y24941487D02*
X9746000Y25068487D01*
X9746000Y25068487D02*
X10000000Y25004987D01*
X7459027Y25075300D02*
X7504481Y24911237D01*
X7549936Y25075300D02*
X7504481Y24911237D01*
X7601072Y24981550D02*
X7703345Y24981550D01*
X7839709Y25036237D02*
X7834027Y25051862D01*
X7834027Y25051862D02*
X7822663Y25067487D01*
X7822663Y25067487D02*
X7811300Y25075300D01*
X7788572Y25075300*
X7788572Y25075300D02*
X7777209Y25067487D01*
X7777209Y25067487D02*
X7765845Y25051862D01*
X7765845Y25051862D02*
X7760163Y25036237D01*
X7760163Y25036237D02*
X7754481Y25012800D01*
X7754481Y25012800D02*
X7754481Y24973737D01*
X7754481Y24973737D02*
X7760163Y24950300D01*
X7760163Y24950300D02*
X7765845Y24934675D01*
X7765845Y24934675D02*
X7777209Y24919050D01*
X7788572Y24911237*
X7788572Y24911237D02*
X7811300Y24911237D01*
X7811300Y24911237D02*
X7822663Y24919050D01*
X7822663Y24919050D02*
X7834027Y24934675D01*
X7839709Y24950300*
X7890845Y25075300D02*
X7890845Y24958112D01*
X7890845Y24958112D02*
X7896527Y24934675D01*
X7907890Y24919050*
X7907890Y24919050D02*
X7924936Y24911237D01*
X7924936Y24911237D02*
X7936300Y24911237D01*
X7936300Y24911237D02*
X7953345Y24919050D01*
X7953345Y24919050D02*
X7964709Y24934675D01*
X7970390Y24958112*
X7970390Y24958112D02*
X7970390Y25075300D01*
X8061300Y25075300D02*
X8061300Y24911237D01*
X8021527Y25075300D02*
X8101072Y25075300D01*
X10000000Y15000000D02*
X9746000Y14936500D01*
X9746000Y15063500*
X10000000Y15000000*
X8259027Y15070312D02*
X8304481Y14906250D01*
X8349936Y15070312D02*
X8304481Y14906250D01*
X8401072Y14976562D02*
X8503345Y14976562D01*
X8639709Y15031250D02*
X8634027Y15046875D01*
X8622663Y15062500*
X8622663Y15062500D02*
X8611300Y15070312D01*
X8611300Y15070312D02*
X8588572Y15070312D01*
X8588572Y15070312D02*
X8577209Y15062500D01*
X8565845Y15046875*
X8565845Y15046875D02*
X8560163Y15031250D01*
X8560163Y15031250D02*
X8554481Y15007812D01*
X8554481Y15007812D02*
X8554481Y14968750D01*
X8554481Y14968750D02*
X8560163Y14945312D01*
X8560163Y14945312D02*
X8565845Y14929687D01*
X8565845Y14929687D02*
X8577209Y14914062D01*
X8577209Y14914062D02*
X8588572Y14906250D01*
X8588572Y14906250D02*
X8611300Y14906250D01*
X8622663Y14914062*
X8622663Y14914062D02*
X8634027Y14929687D01*
X8634027Y14929687D02*
X8639709Y14945312D01*
X8690845Y15070312D02*
X8690845Y14953125D01*
X8690845Y14953125D02*
X8696527Y14929687D01*
X8696527Y14929687D02*
X8707890Y14914062D01*
X8707890Y14914062D02*
X8724936Y14906250D01*
X8736300Y14906250*
X8753345Y14914062*
X8753345Y14914062D02*
X8764709Y14929687D01*
X8764709Y14929687D02*
X8770390Y14953125D01*
X8770390Y14953125D02*
X8770390Y15070312D01*
X8861300Y15070312D02*
X8861300Y14906250D01*
X8821527Y15070312D02*
X8901072Y15070312D01*
X20000000Y10000000D02*
X20224506Y9865296D01*
X20134703Y9775493*
X20134703Y9775493D02*
X20000000Y10000000D01*
X21476236Y9170106D02*
X21521691Y9006043D01*
X21567145Y9170106D02*
X21521691Y9006043D01*
X21618282Y9076356D02*
X21720554Y9076356D01*
X21856918Y9131043D02*
X21851236Y9146668D01*
X21851236Y9146668D02*
X21839873Y9162293D01*
X21839873Y9162293D02*
X21828509Y9170106D01*
X21828509Y9170106D02*
X21805782Y9170106D01*
X21794418Y9162293*
X21794418Y9162293D02*
X21783054Y9146668D01*
X21783054Y9146668D02*
X21777373Y9131043D01*
X21777373Y9131043D02*
X21771691Y9107606D01*
X21771691Y9068543*
X21771691Y9068543D02*
X21777373Y9045106D01*
X21783054Y9029481*
X21783054Y9029481D02*
X21794418Y9013856D01*
X21794418Y9013856D02*
X21805782Y9006043D01*
X21805782Y9006043D02*
X21828509Y9006043D01*
X21828509Y9006043D02*
X21839873Y9013856D01*
X21851236Y9029481*
X21851236Y9029481D02*
X21856918Y9045106D01*
X21908054Y9170106D02*
X21908054Y9052918D01*
X21908054Y9052918D02*
X21913736Y9029481D01*
X21913736Y9029481D02*
X21925100Y9013856D01*
X21942145Y9006043*
X21942145Y9006043D02*
X21953509Y9006043D01*
X21953509Y9006043D02*
X21970554Y9013856D01*
X21970554Y9013856D02*
X21981918Y9029481D01*
X21981918Y9029481D02*
X21987600Y9052918D01*
X21987600Y9052918D02*
X21987600Y9170106D01*
X22078509Y9170106D02*
X22078509Y9006043D01*
X22038736Y9170106D02*
X22118282Y9170106D01*
X10000000Y20000000D02*
X9746000Y19936500D01*
X9746000Y20063500*
X10000000Y20000000*
X7459027Y20070312D02*
X7504481Y19906250D01*
X7549936Y20070312D02*
X7504481Y19906250D01*
X7601072Y19976562D02*
X7703345Y19976562D01*
X7839709Y20031250D02*
X7834027Y20046875D01*
X7822663Y20062500*
X7822663Y20062500D02*
X7811300Y20070312D01*
X7811300Y20070312D02*
X7788572Y20070312D01*
X7788572Y20070312D02*
X7777209Y20062500D01*
X7765845Y20046875*
X7765845Y20046875D02*
X7760163Y20031250D01*
X7760163Y20031250D02*
X7754481Y20007812D01*
X7754481Y20007812D02*
X7754481Y19968750D01*
X7754481Y19968750D02*
X7760163Y19945312D01*
X7760163Y19945312D02*
X7765845Y19929687D01*
X7765845Y19929687D02*
X7777209Y19914062D01*
X7777209Y19914062D02*
X7788572Y19906250D01*
X7788572Y19906250D02*
X7811300Y19906250D01*
X7822663Y19914062*
X7822663Y19914062D02*
X7834027Y19929687D01*
X7834027Y19929687D02*
X7839709Y19945312D01*
X7890845Y20070312D02*
X7890845Y19953125D01*
X7890845Y19953125D02*
X7896527Y19929687D01*
X7896527Y19929687D02*
X7907890Y19914062D01*
X7907890Y19914062D02*
X7924936Y19906250D01*
X7936300Y19906250*
X7953345Y19914062*
X7953345Y19914062D02*
X7964709Y19929687D01*
X7964709Y19929687D02*
X7970390Y19953125D01*
X7970390Y19953125D02*
X7970390Y20070312D01*
X8061300Y20070312D02*
X8061300Y19906250D01*
X8021527Y20070312D02*
X8101072Y20070312D01*
X30000000Y32000000D02*
X27792109Y32000000D01*
X30000000Y32000000D02*
X29746000Y31936500D01*
X29746000Y32063500*
X30000000Y32000000*
X25000000Y32000000D02*
X27207890Y32000000D01*
X25000000Y32000000D02*
X25254000Y32063500D01*
X25254000Y31936500*
X25000000Y32000000*
X27357954Y32070312D02*
X27301136Y32070312D01*
X27301136Y32070312D02*
X27295454Y32000000D01*
X27295454Y32000000D02*
X27301136Y32007812D01*
X27301136Y32007812D02*
X27318181Y32015625D01*
X27318181Y32015625D02*
X27335227Y32015625D01*
X27352272Y32007812*
X27352272Y32007812D02*
X27363636Y31992187D01*
X27363636Y31992187D02*
X27369318Y31968750D01*
X27363636Y31953125*
X27357954Y31929687*
X27357954Y31929687D02*
X27346590Y31914062D01*
X27346590Y31914062D02*
X27329545Y31906250D01*
X27329545Y31906250D02*
X27312500Y31906250D01*
X27295454Y31914062*
X27295454Y31914062D02*
X27289772Y31921875D01*
X27289772Y31921875D02*
X27284090Y31937500D01*
X27454545Y32070312D02*
X27437500Y32062500D01*
X27426136Y32039062*
X27426136Y32039062D02*
X27420454Y32000000D01*
X27420454Y32000000D02*
X27420454Y31976562D01*
X27420454Y31976562D02*
X27426136Y31937500D01*
X27437500Y31914062*
X27437500Y31914062D02*
X27454545Y31906250D01*
X27454545Y31906250D02*
X27465909Y31906250D01*
X27482954Y31914062*
X27482954Y31914062D02*
X27494318Y31937500D01*
X27500000Y31976562*
X27500000Y31976562D02*
X27500000Y32000000D01*
X27494318Y32039062*
X27494318Y32039062D02*
X27482954Y32062500D01*
X27482954Y32062500D02*
X27465909Y32070312D01*
X27465909Y32070312D02*
X27454545Y32070312D01*
X27556818Y31921875D02*
X27551136Y31914062D01*
X27551136Y31914062D02*
X27556818Y31906250D01*
X27562500Y31914062*
X27562500Y31914062D02*
X27556818Y31921875D01*
X27647727Y32070312D02*
X27630681Y32062500D01*
X27630681Y32062500D02*
X27619318Y32039062D01*
X27619318Y32039062D02*
X27613636Y32000000D01*
X27613636Y31976562*
X27613636Y31976562D02*
X27619318Y31937500D01*
X27630681Y31914062*
X27630681Y31914062D02*
X27647727Y31906250D01*
X27659090Y31906250*
X27659090Y31906250D02*
X27676136Y31914062D01*
X27676136Y31914062D02*
X27687500Y31937500D01*
X27693181Y31976562*
X27693181Y31976562D02*
X27693181Y32000000D01*
X27693181Y32000000D02*
X27687500Y32039062D01*
X27687500Y32039062D02*
X27676136Y32062500D01*
X27659090Y32070312*
X27659090Y32070312D02*
X27647727Y32070312D01*
X38800000Y20000000D02*
X38800000Y22330050D01*
X38800000Y20000000D02*
X38736500Y20254000D01*
X38863500Y20254000*
X38800000Y20000000*
X38800000Y25000000D02*
X38800000Y22669950D01*
X38800000Y25000000D02*
X38863500Y24746000D01*
X38736500Y24746000*
X38800000Y25000000*
X38657954Y22570312D02*
X38601136Y22570312D01*
X38601136Y22570312D02*
X38595454Y22500000D01*
X38595454Y22500000D02*
X38601136Y22507812D01*
X38601136Y22507812D02*
X38618181Y22515625D01*
X38618181Y22515625D02*
X38635227Y22515625D01*
X38652272Y22507812*
X38652272Y22507812D02*
X38663636Y22492187D01*
X38663636Y22492187D02*
X38669318Y22468750D01*
X38663636Y22453125*
X38657954Y22429687*
X38657954Y22429687D02*
X38646590Y22414062D01*
X38646590Y22414062D02*
X38629545Y22406250D01*
X38629545Y22406250D02*
X38612500Y22406250D01*
X38595454Y22414062*
X38595454Y22414062D02*
X38589772Y22421875D01*
X38589772Y22421875D02*
X38584090Y22437500D01*
X38754545Y22570312D02*
X38737500Y22562500D01*
X38726136Y22539062*
X38726136Y22539062D02*
X38720454Y22500000D01*
X38720454Y22500000D02*
X38720454Y22476562D01*
X38720454Y22476562D02*
X38726136Y22437500D01*
X38737500Y22414062*
X38737500Y22414062D02*
X38754545Y22406250D01*
X38754545Y22406250D02*
X38765909Y22406250D01*
X38782954Y22414062*
X38782954Y22414062D02*
X38794318Y22437500D01*
X38800000Y22476562*
X38800000Y22476562D02*
X38800000Y22500000D01*
X38794318Y22539062*
X38794318Y22539062D02*
X38782954Y22562500D01*
X38782954Y22562500D02*
X38765909Y22570312D01*
X38765909Y22570312D02*
X38754545Y22570312D01*
X38856818Y22421875D02*
X38851136Y22414062D01*
X38851136Y22414062D02*
X38856818Y22406250D01*
X38862500Y22414062*
X38862500Y22414062D02*
X38856818Y22421875D01*
X38947727Y22570312D02*
X38930681Y22562500D01*
X38930681Y22562500D02*
X38919318Y22539062D01*
X38919318Y22539062D02*
X38913636Y22500000D01*
X38913636Y22476562*
X38913636Y22476562D02*
X38919318Y22437500D01*
X38930681Y22414062*
X38930681Y22414062D02*
X38947727Y22406250D01*
X38959090Y22406250*
X38959090Y22406250D02*
X38976136Y22414062D01*
X38976136Y22414062D02*
X38987500Y22437500D01*
X38993181Y22476562*
X38993181Y22476562D02*
X38993181Y22500000D01*
X38993181Y22500000D02*
X38987500Y22539062D01*
X38987500Y22539062D02*
X38976136Y22562500D01*
X38959090Y22570312*
X38959090Y22570312D02*
X38947727Y22570312D01*
G54D24*
X10000000Y10000000D02*
X35000000Y10000000D01*
X35000000Y30000000*
X10000000Y30000000*
X10000000Y10000000*
X35000000Y20000000D02*
X10000000Y20000000D01*
X10000000Y15000000D02*
X35000000Y15000000D01*
X15000000Y30000000D02*
X15000000Y10000000D01*
X20000000Y10000000D02*
X20000000Y30000000D01*
X25000000Y30000000D02*
X25000000Y10000000D01*
X10000000Y30027000D02*
X10000000Y32727000D01*
X35000000Y30127000D02*
X35000000Y32727000D01*
X35127000Y10000000D02*
X39627000Y10000000D01*
X35127000Y30000000D02*
X39627000Y30000000D01*
X38127000Y10000000D02*
X38927000Y10000000D01*
X35127000Y15000000D02*
X38927000Y15000000D01*
X35127000Y15000000D02*
X38927000Y15000000D01*
X35127000Y20000000D02*
X38927000Y20000000D01*
X10000000Y31127000D02*
X10000000Y32127000D01*
X15000000Y30127000D02*
X15000000Y32127000D01*
X20000000Y30127000D02*
X20000000Y32127000D01*
X15000000Y30127000D02*
X15000000Y32127000D01*
X25000000Y30027000D02*
X25000000Y32127000D01*
X20000000Y30127000D02*
X20000000Y32127000D01*
X15000000Y10000000D02*
X15806225Y9193774D01*
X15806225Y9193774D02*
X15906419Y9099793D01*
X15906419Y9099793D02*
X16400036Y9099793D01*
X25000000Y10000000D02*
X26051189Y8948810D01*
X26051189Y8948810D02*
X26305189Y8948810D01*
X30000000Y10000000D02*
X31051189Y8948810D01*
X31051189Y8948810D02*
X31305189Y8948810D01*
X10000000Y25004987D02*
X8200000Y25004987D01*
X10000000Y15000000D02*
X9000000Y15000000D01*
X30000000Y30000000D02*
X30000000Y10000000D01*
X35000000Y25000000D02*
X10000000Y25000000D01*
X20000000Y10000000D02*
X20806225Y9193774D01*
X20806225Y9193774D02*
X20906419Y9099793D01*
X20906419Y9099793D02*
X21400036Y9099793D01*
X10000000Y20000000D02*
X8200000Y20000000D01*
X30000000Y30027000D02*
X30000000Y32127000D01*
X25000000Y30127000D02*
X25000000Y32127000D01*
X35127000Y20000000D02*
X38927000Y20000000D01*
X35127000Y25000000D02*
X38927000Y25000000D01*
G54D34*
X10000000Y29900000D02*
X10000066Y29900000D01*
X35000000Y30000000D02*
X35000066Y30000000D01*
X35000000Y10000000D02*
X35000066Y10000000D01*
X35000000Y30000000D02*
X35000066Y30000000D01*
X38000000Y10000000D02*
X38000066Y10000000D01*
X35000000Y15000000D02*
X35000066Y15000000D01*
X35000000Y15000000D02*
X35000066Y15000000D01*
X35000000Y20000000D02*
X35000066Y20000000D01*
X10000000Y31000000D02*
X10000066Y31000000D01*
X15000000Y30000000D02*
X15000066Y30000000D01*
X20000000Y30000000D02*
X20000066Y30000000D01*
X15000000Y30000000D02*
X15000066Y30000000D01*
X25000000Y29900000D02*
X25000066Y29900000D01*
X20000000Y30000000D02*
X20000066Y30000000D01*
X30000000Y29900000D02*
X30000066Y29900000D01*
X25000000Y30000000D02*
X25000066Y30000000D01*
X35000000Y20000000D02*
X35000066Y20000000D01*
X35000000Y25000000D02*
X35000066Y25000000D01*
G74*
X0Y0D02*
M02*
