*
*
G04 PADS Layout (Build Number 2004.211.1) generated Gerber (RS-274-X) file*
G04 PC Version=2.1*
*
%IN "BD9E303EFJ-EVK-001.pcb"*%
*
%MOMM*%
*
%FSLAX35Y35*%
*
*
*
*
G04 PC Standard Apertures*
*
*
G04 Thermal Relief Aperture macro.*
%AMTER*
1,1,$1,0,0*
1,0,$1-$2,0,0*
21,0,$3,$4,0,0,45*
21,0,$3,$4,0,0,135*
%
*
*
G04 Annular Aperture macro.*
%AMANN*
1,1,$1,0,0*
1,0,$2,0,0*
%
*
*
G04 Odd Aperture macro.*
%AMODD*
1,1,$1,0,0*
1,0,$1-0.005,0,0*
%
*
*
G04 PC Custom Aperture Macros*
*
*
*
*
*
*
G04 PC Aperture Table*
*
%ADD014C,1.8*%
%ADD016C,1.6*%
%ADD017C,3.3*%
%ADD018C,0.15*%
%ADD019C,0.2*%
%ADD020C,0.6*%
%ADD022C,2*%
*
*
*
*
G04 PC Custom Flashes*
G04 Layer Name BD9E303EFJ-EVK-001.pcb - flashes*
%LPD*%
*
*
G04 PC Circuitry*
G04 Layer Name BD9E303EFJ-EVK-001.pcb - circuitry*
%LPD*%
*
G54D14*
G01X11850000Y14200000D03*
X11600000Y14200000D03*
X11350000Y14200000D03*
G54D16*
X11850000Y11800000D03*
X11850000Y12800000D03*
X13800000Y13400000D03*
X12700000Y13100000D03*
X13050000Y11900000D03*
X13100000Y11400000D03*
G54D17*
X10500000Y10500000D03*
X14500000Y10500000D03*
X10500000Y14500000D03*
X14500000Y14500000D03*
G54D18*
X12510000Y12050000D02*
X12465910Y12065910D01*
X12487500Y12050000*
X12465910Y12034090*
X12510000Y12050000*
X12473929Y12040000D02*
X12482287Y12040000D01*
X12480714Y12055000D02*
X12496144Y12055000D01*
X12475000Y12037370D02*
X12475000Y12040788D01*
X12475000Y12059211D02*
X12475000Y12062629D01*
X12490000Y12042783D02*
X12490000Y12057217D01*
X12505000Y12048195D02*
X12505000Y12051804D01*
X12490000Y12050000D02*
X12534090Y12034090D01*
X12512500Y12050000*
X12534090Y12065910*
X12490000Y12050000*
X12517712Y12040000D02*
X12526070Y12040000D01*
X12503856Y12055000D02*
X12519285Y12055000D01*
X12490000Y12050000D02*
X12490000Y12050000D01*
X12505000Y12044587D02*
X12505000Y12055412D01*
X12520000Y12039174D02*
X12520000Y12044473D01*
X12520000Y12055526D02*
X12520000Y12060825D01*
X12650000Y12010000D02*
X12634090Y11965910D01*
X12650000Y11987500*
X12665910Y11965910*
X12650000Y12010000*
X12639174Y11980000D02*
X12644473Y11980000D01*
X12655526Y11980000D02*
X12660825Y11980000D01*
X12644587Y11995000D02*
X12655412Y11995000D01*
X12650000Y12010000D02*
X12650000Y12010000D01*
X12640000Y11973929D02*
X12640000Y11982287D01*
X12655000Y11980715D02*
X12655000Y11996143D01*
X12650000Y11990000D02*
X12665910Y12034090D01*
X12650000Y12012500*
X12634090Y12034090*
X12650000Y11990000*
X12648195Y11995000D02*
X12651804Y11995000D01*
X12642783Y12010000D02*
X12657217Y12010000D01*
X12637370Y12025000D02*
X12640788Y12025000D01*
X12659211Y12025000D02*
X12662629Y12025000D01*
X12640000Y12017712D02*
X12640000Y12026070D01*
X12655000Y12003856D02*
X12655000Y12019285D01*
X12610000Y12050000D02*
X12565910Y12065910D01*
X12587500Y12050000*
X12565910Y12034090*
X12610000Y12050000*
X12573929Y12040000D02*
X12582287Y12040000D01*
X12580714Y12055000D02*
X12596144Y12055000D01*
X12580000Y12039174D02*
X12580000Y12044473D01*
X12580000Y12055526D02*
X12580000Y12060825D01*
X12595000Y12044587D02*
X12595000Y12055412D01*
X12610000Y12050000D02*
X12610000Y12050000D01*
X12590000Y12050000D02*
X12634090Y12034090D01*
X12612500Y12050000*
X12634090Y12065910*
X12590000Y12050000*
X12617712Y12040000D02*
X12626070Y12040000D01*
X12603856Y12055000D02*
X12619285Y12055000D01*
X12595000Y12048195D02*
X12595000Y12051804D01*
X12610000Y12042783D02*
X12610000Y12057217D01*
X12625000Y12037370D02*
X12625000Y12040788D01*
X12625000Y12059211D02*
X12625000Y12062629D01*
X12450000Y12050000D02*
X12550000Y12050000D01*
X12650000Y11950000D02*
X12650000Y12050000D01*
X12550000Y12050000*
G54D19*
X13930000Y11430000D02*
G75*
G03X13930000Y11430000I-60000D01*
G01X13910000Y13400000D02*
G03X13910000Y13400000I-110000D01*
G01X13610000Y13800000D02*
G03X13610000Y13800000I-60000D01*
G01X13784000Y14250000D02*
G03X13784000Y14250000I-130000D01*
G01X13210000Y11400000D02*
G03X13210000Y11400000I-110000D01*
G01X13160000Y11900000D02*
G03X13160000Y11900000I-110000D01*
G01X12810000Y12130000D02*
G03X12810000Y12130000I-60000D01*
G01X12350000Y11970000D02*
G03X12350000Y11970000I-60000D01*
G01X12225000Y11635000D02*
G03X12225000Y11635000I-60000D01*
G01X11960000Y11800000D02*
G03X11960000Y11800000I-110000D01*
G01X10730000Y11946000D02*
G03X10730000Y11946000I-130000D01*
G01X14790000Y10826344D02*
X14790000Y14325356D01*
X14790000Y14325356D02*
G03X14771515Y14330648I-10000J0D01*
G01X14330648Y14771515D02*
G03X14771515Y14330648I169352J-271515D01*
G01X14330648Y14771515D02*
G03X14325356Y14790000I-5291J8485D01*
G01X14325356Y14790000D02*
X10674643Y14790000D01*
X10674643Y14790000D02*
G03X10669351Y14771515I0J-10000D01*
G01X10228484Y14330648D02*
G03X10669351Y14771515I271516J169352D01*
G01X10228484Y14330648D02*
G03X10210000Y14325356I-8484J-5291D01*
G01X10210000Y14325356D02*
X10210000Y10674643D01*
X10210000Y10674643D02*
G03X10228484Y10669351I10000J0D01*
G01X10669351Y10228484D02*
G03X10228484Y10669351I-169351J271516D01*
G01X10669351Y10228484D02*
G03X10674643Y10210000I5292J-8484D01*
G01X10674643Y10210000D02*
X14173655Y10210000D01*
X14173655Y10210000D02*
G03X14181245Y10226511I0J10000D01*
G01X14773488Y10818754D02*
G03X14181245Y10226511I-273488J-318754D01*
G01X14773488Y10818754D02*
G03X14789999Y10826344I6512J7590D01*
G01X13930000Y11430000D02*
G03X13930000Y11430000I-60000D01*
G01X13910000Y13400000D02*
G03X13910000Y13400000I-110000D01*
G01X13610000Y13800000D02*
G03X13610000Y13800000I-60000D01*
G01X13784000Y14250000D02*
G03X13784000Y14250000I-130000D01*
G01X13210000Y11400000D02*
G03X13210000Y11400000I-110000D01*
G01X13160000Y11900000D02*
G03X13160000Y11900000I-110000D01*
G01X12810000Y12130000D02*
G03X12810000Y12130000I-60000D01*
G01X12350000Y11970000D02*
G03X12350000Y11970000I-60000D01*
G01X12225000Y11635000D02*
G03X12225000Y11635000I-60000D01*
G01X11960000Y11800000D02*
G03X11960000Y11800000I-110000D01*
G01X11734615Y14167037D02*
G03X11734615Y14232962I115385J32963D01*
G01X11734615Y14167037D02*
G03X11715384Y14167037I-9615J-2746D01*
G01X11715384Y14232962D02*
G03X11715384Y14167037I-115384J-32962D01*
G01X11715384Y14232962D02*
G03X11734615Y14232962I9616J2747D01*
G01X10730000Y11946000D02*
G03X10730000Y11946000I-130000D01*
G01X14760368Y14313966D02*
X14790000Y14313966D01*
X14746517Y14295966D02*
X14790000Y14295966D01*
X14730437Y14277966D02*
X14790000Y14277966D01*
X14711623Y14259966D02*
X14790000Y14259966D01*
X14689259Y14241966D02*
X14790000Y14241966D01*
X14661882Y14223966D02*
X14790000Y14223966D01*
X14626272Y14205966D02*
X14790000Y14205966D01*
X14570961Y14187966D02*
X14790000Y14187966D01*
X13756444Y14169966D02*
X14790000Y14169966D01*
X13739379Y14151966D02*
X14790000Y14151966D01*
X13712620Y14133966D02*
X14790000Y14133966D01*
X11935665Y14115966D02*
X14790000Y14115966D01*
X11913161Y14097966D02*
X14790000Y14097966D01*
X10210000Y14079966D02*
X14790000Y14079966D01*
X10210000Y14061966D02*
X14790000Y14061966D01*
X10210000Y14043966D02*
X14790000Y14043966D01*
X10210000Y14025966D02*
X14790000Y14025966D01*
X10210000Y14007966D02*
X14790000Y14007966D01*
X10210000Y13989966D02*
X14790000Y13989966D01*
X10210000Y13971966D02*
X14790000Y13971966D01*
X10210000Y13953966D02*
X14790000Y13953966D01*
X10210000Y13935966D02*
X14790000Y13935966D01*
X10210000Y13917966D02*
X14790000Y13917966D01*
X10210000Y13899966D02*
X14790000Y13899966D01*
X10210000Y13881966D02*
X14790000Y13881966D01*
X10210000Y13863966D02*
X14790000Y13863966D01*
X13588563Y13845966D02*
X14790000Y13845966D01*
X13603084Y13827966D02*
X14790000Y13827966D01*
X13609166Y13809966D02*
X14790000Y13809966D01*
X13609460Y13791966D02*
X14790000Y13791966D01*
X13604058Y13773966D02*
X14790000Y13773966D01*
X13590756Y13755966D02*
X14790000Y13755966D01*
X10210000Y13737966D02*
X14790000Y13737966D01*
X10210000Y13719966D02*
X14790000Y13719966D01*
X10210000Y13701966D02*
X14790000Y13701966D01*
X10210000Y13683966D02*
X14790000Y13683966D01*
X10210000Y13665966D02*
X14790000Y13665966D01*
X10210000Y13647966D02*
X14790000Y13647966D01*
X10210000Y13629966D02*
X14790000Y13629966D01*
X10210000Y13611966D02*
X14790000Y13611966D01*
X10210000Y13593966D02*
X14790000Y13593966D01*
X10210000Y13575966D02*
X14790000Y13575966D01*
X10210000Y13557966D02*
X14790000Y13557966D01*
X10210000Y13539966D02*
X14790000Y13539966D01*
X10210000Y13521966D02*
X14790000Y13521966D01*
X13835931Y13503966D02*
X14790000Y13503966D01*
X13868628Y13485966D02*
X14790000Y13485966D01*
X13886490Y13467966D02*
X14790000Y13467966D01*
X13897997Y13449966D02*
X14790000Y13449966D01*
X13905253Y13431966D02*
X14790000Y13431966D01*
X13909110Y13413966D02*
X14790000Y13413966D01*
X13909926Y13395966D02*
X14790000Y13395966D01*
X13907771Y13377966D02*
X14790000Y13377966D01*
X13902457Y13359966D02*
X14790000Y13359966D01*
X13893446Y13341966D02*
X14790000Y13341966D01*
X13879492Y13323966D02*
X14790000Y13323966D01*
X13857077Y13305966D02*
X14790000Y13305966D01*
X10210000Y13287966D02*
X14790000Y13287966D01*
X10210000Y13269966D02*
X14790000Y13269966D01*
X10210000Y13251966D02*
X14790000Y13251966D01*
X10210000Y13233966D02*
X14790000Y13233966D01*
X10210000Y13215966D02*
X14790000Y13215966D01*
X10210000Y13197966D02*
X14790000Y13197966D01*
X10210000Y13179966D02*
X14790000Y13179966D01*
X10210000Y13161966D02*
X14790000Y13161966D01*
X10210000Y13143966D02*
X14790000Y13143966D01*
X10210000Y13125966D02*
X14790000Y13125966D01*
X10210000Y13107966D02*
X14790000Y13107966D01*
X10210000Y13089966D02*
X14790000Y13089966D01*
X10210000Y13071966D02*
X14790000Y13071966D01*
X10210000Y13053966D02*
X14790000Y13053966D01*
X10210000Y13035966D02*
X14790000Y13035966D01*
X10210000Y13017966D02*
X14790000Y13017966D01*
X10210000Y12999966D02*
X14790000Y12999966D01*
X10210000Y12981966D02*
X14790000Y12981966D01*
X10210000Y12963966D02*
X14790000Y12963966D01*
X10210000Y12945966D02*
X14790000Y12945966D01*
X10210000Y12927966D02*
X14790000Y12927966D01*
X10210000Y12909966D02*
X14790000Y12909966D01*
X10210000Y12891966D02*
X14790000Y12891966D01*
X10210000Y12873966D02*
X14790000Y12873966D01*
X10210000Y12855966D02*
X14790000Y12855966D01*
X10210000Y12837966D02*
X14790000Y12837966D01*
X10210000Y12819966D02*
X14790000Y12819966D01*
X10210000Y12801966D02*
X14790000Y12801966D01*
X10210000Y12783966D02*
X14790000Y12783966D01*
X10210000Y12765966D02*
X14790000Y12765966D01*
X10210000Y12747966D02*
X14790000Y12747966D01*
X10210000Y12729966D02*
X14790000Y12729966D01*
X10210000Y12711966D02*
X14790000Y12711966D01*
X10210000Y12693966D02*
X14790000Y12693966D01*
X10210000Y12675966D02*
X14790000Y12675966D01*
X10210000Y12657966D02*
X14790000Y12657966D01*
X10210000Y12639966D02*
X14790000Y12639966D01*
X10210000Y12621966D02*
X14790000Y12621966D01*
X10210000Y12603966D02*
X14790000Y12603966D01*
X10210000Y12585966D02*
X14790000Y12585966D01*
X10210000Y12567966D02*
X14790000Y12567966D01*
X10210000Y12549966D02*
X14790000Y12549966D01*
X10210000Y12531966D02*
X14790000Y12531966D01*
X10210000Y12513966D02*
X14790000Y12513966D01*
X10210000Y12495966D02*
X14790000Y12495966D01*
X10210000Y12477966D02*
X14790000Y12477966D01*
X10210000Y12459966D02*
X14790000Y12459966D01*
X10210000Y12441966D02*
X14790000Y12441966D01*
X10210000Y12423966D02*
X14790000Y12423966D01*
X10210000Y12405966D02*
X14790000Y12405966D01*
X10210000Y12387966D02*
X14790000Y12387966D01*
X10210000Y12369966D02*
X14790000Y12369966D01*
X10210000Y12351966D02*
X14790000Y12351966D01*
X10210000Y12333966D02*
X14790000Y12333966D01*
X10210000Y12315966D02*
X14790000Y12315966D01*
X10210000Y12297966D02*
X14790000Y12297966D01*
X10210000Y12279966D02*
X14790000Y12279966D01*
X10210000Y12261966D02*
X14790000Y12261966D01*
X10210000Y12243966D02*
X14790000Y12243966D01*
X10210000Y12225966D02*
X14790000Y12225966D01*
X10210000Y12207966D02*
X14790000Y12207966D01*
X12752015Y12189966D02*
X14790000Y12189966D01*
X12792881Y12171966D02*
X14790000Y12171966D01*
X12805006Y12153966D02*
X14790000Y12153966D01*
X12809703Y12135966D02*
X14790000Y12135966D01*
X12808781Y12117966D02*
X14790000Y12117966D01*
X12801942Y12099966D02*
X14790000Y12099966D01*
X12785956Y12081966D02*
X14790000Y12081966D01*
X10654626Y12063966D02*
X14790000Y12063966D01*
X10683107Y12045966D02*
X14790000Y12045966D01*
X12305489Y12027966D02*
X14790000Y12027966D01*
X13052729Y12009966D02*
X14790000Y12009966D01*
X13110351Y11991966D02*
X14790000Y11991966D01*
X13131419Y11973966D02*
X14790000Y11973966D01*
X13144698Y11955966D02*
X14790000Y11955966D01*
X13153240Y11937966D02*
X14790000Y11937966D01*
X13158173Y11919966D02*
X14790000Y11919966D01*
X13159982Y11901966D02*
X14790000Y11901966D01*
X13158825Y11883966D02*
X14790000Y11883966D01*
X13154603Y11865966D02*
X14790000Y11865966D01*
X13146915Y11847966D02*
X14790000Y11847966D01*
X13134826Y11829966D02*
X14790000Y11829966D01*
X13115956Y11811966D02*
X14790000Y11811966D01*
X13079275Y11793966D02*
X14790000Y11793966D01*
X11957343Y11775966D02*
X14790000Y11775966D01*
X11951652Y11757966D02*
X14790000Y11757966D01*
X11942174Y11739966D02*
X14790000Y11739966D01*
X11927530Y11721966D02*
X14790000Y11721966D01*
X11903644Y11703966D02*
X14790000Y11703966D01*
X12196661Y11685966D02*
X14790000Y11685966D01*
X12215132Y11667966D02*
X14790000Y11667966D01*
X12223103Y11649966D02*
X14790000Y11649966D01*
X12224923Y11631966D02*
X14790000Y11631966D01*
X12221193Y11613966D02*
X14790000Y11613966D01*
X12210568Y11595966D02*
X14790000Y11595966D01*
X12183635Y11577966D02*
X14790000Y11577966D01*
X10210000Y11559966D02*
X14790000Y11559966D01*
X10210000Y11541966D02*
X14790000Y11541966D01*
X10210000Y11523966D02*
X14790000Y11523966D01*
X13129515Y11505966D02*
X14790000Y11505966D01*
X13885489Y11487966D02*
X14790000Y11487966D01*
X13914751Y11469966D02*
X14790000Y11469966D01*
X13925834Y11451966D02*
X14790000Y11451966D01*
X13929869Y11433966D02*
X14790000Y11433966D01*
X13928336Y11415966D02*
X14790000Y11415966D01*
X13920733Y11397966D02*
X14790000Y11397966D01*
X13903116Y11379966D02*
X14790000Y11379966D01*
X13203216Y11361966D02*
X14790000Y11361966D01*
X13194659Y11343966D02*
X14790000Y11343966D01*
X13181358Y11325966D02*
X14790000Y11325966D01*
X13160249Y11307966D02*
X14790000Y11307966D01*
X10210000Y11289966D02*
X14790000Y11289966D01*
X10210000Y11271966D02*
X14790000Y11271966D01*
X10210000Y11253966D02*
X14790000Y11253966D01*
X10210000Y11235966D02*
X14790000Y11235966D01*
X10210000Y11217966D02*
X14790000Y11217966D01*
X10210000Y11199966D02*
X14790000Y11199966D01*
X10210000Y11181966D02*
X14790000Y11181966D01*
X10210000Y11163966D02*
X14790000Y11163966D01*
X10210000Y11145966D02*
X14790000Y11145966D01*
X10210000Y11127966D02*
X14790000Y11127966D01*
X10210000Y11109966D02*
X14790000Y11109966D01*
X10210000Y11091966D02*
X14790000Y11091966D01*
X10210000Y11073966D02*
X14790000Y11073966D01*
X10210000Y11055966D02*
X14790000Y11055966D01*
X10210000Y11037966D02*
X14790000Y11037966D01*
X10210000Y11019966D02*
X14790000Y11019966D01*
X10210000Y11001966D02*
X14790000Y11001966D01*
X10210000Y10983966D02*
X14790000Y10983966D01*
X10210000Y10965966D02*
X14790000Y10965966D01*
X10210000Y10947966D02*
X14790000Y10947966D01*
X10210000Y10929966D02*
X14790000Y10929966D01*
X14581755Y10911966D02*
X14790000Y10911966D01*
X14645570Y10893966D02*
X14790000Y10893966D01*
X14687215Y10875966D02*
X14790000Y10875966D01*
X14719682Y10857966D02*
X14790000Y10857966D01*
X14746623Y10839966D02*
X14790000Y10839966D01*
X14769699Y10821966D02*
X14788991Y10821966D01*
X14772496Y14331966D02*
X14787503Y14331966D01*
X13768245Y14187966D02*
X14429038Y14187966D01*
X10210000Y10911966D02*
X14418244Y10911966D01*
X13776316Y14205966D02*
X14373727Y14205966D01*
X10210000Y10893966D02*
X14354429Y10893966D01*
X13781367Y14223966D02*
X14338117Y14223966D01*
X10664838Y14781966D02*
X14335161Y14781966D01*
X10680892Y14763966D02*
X14319107Y14763966D01*
X10210000Y10875966D02*
X14312784Y10875966D01*
X13783752Y14241966D02*
X14310740Y14241966D01*
X10704696Y14745966D02*
X14295303Y14745966D01*
X13783617Y14259966D02*
X14288376Y14259966D01*
X10210000Y10857966D02*
X14280317Y10857966D01*
X10724569Y14727966D02*
X14275430Y14727966D01*
X13780956Y14277966D02*
X14269562Y14277966D01*
X10741483Y14709966D02*
X14258516Y14709966D01*
X13775602Y14295966D02*
X14253482Y14295966D01*
X10210000Y10839966D02*
X14253376Y10839966D01*
X10756025Y14691966D02*
X14243974Y14691966D01*
X13767174Y14313966D02*
X14239631Y14313966D01*
X10768581Y14673966D02*
X14231418Y14673966D01*
X10210000Y10821966D02*
X14230300Y10821966D01*
X13754903Y14331966D02*
X14227667Y14331966D01*
X10779418Y14655966D02*
X14220581Y14655966D01*
X13737107Y14349966D02*
X14217351Y14349966D01*
X10788730Y14637966D02*
X14211269Y14637966D01*
X10600023Y10803966D02*
X14210164Y10803966D01*
X13708626Y14367966D02*
X14208508Y14367966D01*
X10796662Y14619966D02*
X14203338Y14619966D01*
X10798992Y14385966D02*
X14201007Y14385966D01*
X10803320Y14601966D02*
X14196679Y14601966D01*
X10805250Y14403966D02*
X14194749Y14403966D01*
X10643608Y10785966D02*
X14192390Y10785966D01*
X10808787Y14583966D02*
X14191212Y14583966D01*
X10810340Y14421966D02*
X14189659Y14421966D01*
X10813127Y14565966D02*
X14186872Y14565966D01*
X10814318Y14439966D02*
X14185681Y14439966D01*
X10816385Y14547966D02*
X14183614Y14547966D01*
X10817227Y14457966D02*
X14182772Y14457966D01*
X10818594Y14529966D02*
X14181405Y14529966D01*
X10819096Y14475966D02*
X14180903Y14475966D01*
X10819776Y14511966D02*
X14180223Y14511966D01*
X10819943Y14493966D02*
X14180056Y14493966D01*
X10668599Y10227966D02*
X14180002Y10227966D01*
X10674912Y10767966D02*
X14176589Y10767966D01*
X10694595Y10245966D02*
X14165534Y10245966D01*
X10699792Y10749966D02*
X14162483Y10749966D01*
X10716075Y10263966D02*
X14152597Y10263966D01*
X10720435Y10731966D02*
X14149868Y10731966D01*
X10734226Y10281966D02*
X14141026Y10281966D01*
X10737946Y10713966D02*
X14138587Y10713966D01*
X10749773Y10299966D02*
X14130693Y10299966D01*
X10752977Y10695966D02*
X14128519Y10695966D01*
X10763180Y10317966D02*
X14121497Y10317966D01*
X10765947Y10677966D02*
X14119568Y10677966D01*
X10774760Y10335966D02*
X14113356Y10335966D01*
X10777148Y10659966D02*
X14111655Y10659966D01*
X10784736Y10353966D02*
X14106204Y10353966D01*
X10786785Y10641966D02*
X14104720Y10641966D01*
X10793270Y10371966D02*
X14099990Y10371966D01*
X10795012Y10623966D02*
X14098711Y10623966D01*
X10800487Y10389966D02*
X14094669Y10389966D01*
X10801946Y10605966D02*
X14093587Y10605966D01*
X10806480Y10407966D02*
X14090207Y10407966D01*
X10807672Y10587966D02*
X14089314Y10587966D01*
X10811318Y10425966D02*
X14086575Y10425966D01*
X10812257Y10569966D02*
X14085868Y10569966D01*
X10815056Y10443966D02*
X14083754Y10443966D01*
X10815752Y10551966D02*
X14083226Y10551966D01*
X10817732Y10461966D02*
X14081725Y10461966D01*
X10818192Y10533966D02*
X14081375Y10533966D01*
X10819372Y10479966D02*
X14080477Y10479966D01*
X10819601Y10515966D02*
X14080303Y10515966D01*
X10819994Y10497966D02*
X14080004Y10497966D01*
X13166045Y11487966D02*
X13854510Y11487966D01*
X13208160Y11379966D02*
X13836883Y11379966D01*
X13184881Y11469966D02*
X13825248Y11469966D01*
X13209981Y11397966D02*
X13819266Y11397966D01*
X13196951Y11451966D02*
X13814165Y11451966D01*
X13208835Y11415966D02*
X13811663Y11415966D01*
X13204624Y11433966D02*
X13810130Y11433966D01*
X10210000Y13503966D02*
X13764068Y13503966D01*
X10210000Y13305966D02*
X13742922Y13305966D01*
X10210000Y13485966D02*
X13731371Y13485966D01*
X10210000Y13323966D02*
X13720507Y13323966D01*
X10210000Y13467966D02*
X13713509Y13467966D01*
X10210000Y13341966D02*
X13706553Y13341966D01*
X10210000Y13449966D02*
X13702002Y13449966D01*
X10210000Y13359966D02*
X13697542Y13359966D01*
X10210000Y13431966D02*
X13694746Y13431966D01*
X10210000Y13377966D02*
X13692228Y13377966D01*
X10210000Y13413966D02*
X13690889Y13413966D01*
X10210000Y13395966D02*
X13690073Y13395966D01*
X10791491Y14367966D02*
X13599373Y14367966D01*
X11950198Y14133966D02*
X13595379Y14133966D01*
X10782648Y14349966D02*
X13570892Y14349966D01*
X11959967Y14151966D02*
X13568620Y14151966D01*
X10772332Y14331966D02*
X13553096Y14331966D01*
X11966181Y14169966D02*
X13551555Y14169966D01*
X11887572Y14313966D02*
X13540825Y14313966D01*
X11969395Y14187966D02*
X13539754Y14187966D01*
X11922045Y14295966D02*
X13532397Y14295966D01*
X11969852Y14205966D02*
X13531684Y14205966D01*
X11941221Y14277966D02*
X13527043Y14277966D01*
X11967582Y14223966D02*
X13526632Y14223966D01*
X11953942Y14259966D02*
X13524382Y14259966D01*
X11962423Y14241966D02*
X13524247Y14241966D01*
X10210000Y13845966D02*
X13511436Y13845966D01*
X10210000Y13755966D02*
X13509243Y13755966D01*
X10210000Y13827966D02*
X13496915Y13827966D01*
X10210000Y13773966D02*
X13495941Y13773966D01*
X10210000Y13809966D02*
X13490833Y13809966D01*
X10210000Y13791966D02*
X13490539Y13791966D01*
X10210000Y11505966D02*
X13070484Y11505966D01*
X12334751Y12009966D02*
X13047270Y12009966D01*
X10210000Y11307966D02*
X13039750Y11307966D01*
X10210000Y11487966D02*
X13033954Y11487966D01*
X11959834Y11793966D02*
X13020724Y11793966D01*
X10210000Y11325966D02*
X13018641Y11325966D01*
X10210000Y11469966D02*
X13015119Y11469966D01*
X10210000Y11343966D02*
X13005340Y11343966D01*
X10210000Y11451966D02*
X13003048Y11451966D01*
X10210000Y11361966D02*
X12996783Y11361966D01*
X10210000Y11433966D02*
X12995375Y11433966D01*
X10210000Y11379966D02*
X12991839Y11379966D01*
X10210000Y11415966D02*
X12991164Y11415966D01*
X10210000Y11397966D02*
X12990018Y11397966D01*
X12345834Y11991966D02*
X12989648Y11991966D01*
X11959347Y11811966D02*
X12984043Y11811966D01*
X12349869Y11973966D02*
X12968581Y11973966D01*
X11955840Y11829966D02*
X12965174Y11829966D01*
X12348336Y11955966D02*
X12955301Y11955966D01*
X11948991Y11847966D02*
X12953084Y11847966D01*
X12340733Y11937966D02*
X12946759Y11937966D01*
X11938025Y11865966D02*
X12945396Y11865966D01*
X12323116Y11919966D02*
X12941826Y11919966D01*
X11921061Y11883966D02*
X12941174Y11883966D01*
X11891266Y11901966D02*
X12940017Y11901966D01*
X10210000Y12189966D02*
X12747984Y12189966D01*
X10210000Y12081966D02*
X12714043Y12081966D01*
X10210000Y12171966D02*
X12707118Y12171966D01*
X10210000Y12099966D02*
X12698057Y12099966D01*
X10210000Y12153966D02*
X12694994Y12153966D01*
X10210000Y12117966D02*
X12691218Y12117966D01*
X10210000Y12135966D02*
X12690296Y12135966D01*
X10700903Y12027966D02*
X12274510Y12027966D01*
X10727367Y11919966D02*
X12256883Y11919966D01*
X10713174Y12009966D02*
X12245248Y12009966D01*
X10729752Y11937966D02*
X12239266Y11937966D01*
X10721602Y11991966D02*
X12234165Y11991966D01*
X10729617Y11955966D02*
X12231663Y11955966D01*
X10726956Y11973966D02*
X12230130Y11973966D01*
X10210000Y11577966D02*
X12146365Y11577966D01*
X10210000Y11685966D02*
X12133338Y11685966D01*
X10210000Y11595966D02*
X12119431Y11595966D01*
X10210000Y11667966D02*
X12114867Y11667966D01*
X10210000Y11613966D02*
X12108806Y11613966D01*
X10210000Y11649966D02*
X12106896Y11649966D01*
X10210000Y11631966D02*
X12105076Y11631966D01*
X11637572Y14313966D02*
X11812427Y14313966D01*
X10722316Y11901966D02*
X11808733Y11901966D01*
X10210000Y11703966D02*
X11796355Y11703966D01*
X11663161Y14097966D02*
X11786838Y14097966D01*
X10714245Y11883966D02*
X11778938Y11883966D01*
X11672045Y14295966D02*
X11777954Y14295966D01*
X10210000Y11721966D02*
X11772469Y11721966D01*
X11685665Y14115966D02*
X11764334Y14115966D01*
X10702444Y11865966D02*
X11761974Y11865966D01*
X11691221Y14277966D02*
X11758778Y14277966D01*
X10210000Y11739966D02*
X11757825Y11739966D01*
X10685379Y11847966D02*
X11751008Y11847966D01*
X11700198Y14133966D02*
X11749801Y14133966D01*
X10210000Y11757966D02*
X11748347Y11757966D01*
X11703942Y14259966D02*
X11746057Y14259966D01*
X10658620Y11829966D02*
X11744159Y11829966D01*
X10210000Y11775966D02*
X11742657Y11775966D01*
X10210000Y11811966D02*
X11740652Y11811966D01*
X10210000Y11793966D02*
X11740165Y11793966D01*
X11709967Y14151966D02*
X11740032Y14151966D01*
X11712423Y14241966D02*
X11737577Y14241966D01*
X11716766Y14169966D02*
X11733233Y14169966D01*
X10760368Y14313966D02*
X11562427Y14313966D01*
X10210000Y14097966D02*
X11536838Y14097966D01*
X10746517Y14295966D02*
X11527954Y14295966D01*
X10210000Y14115966D02*
X11514334Y14115966D01*
X10730437Y14277966D02*
X11508778Y14277966D01*
X10210000Y14133966D02*
X11499801Y14133966D01*
X10711623Y14259966D02*
X11496057Y14259966D01*
X10210000Y14151966D02*
X11490032Y14151966D01*
X10689259Y14241966D02*
X11487577Y14241966D01*
X10210000Y14169966D02*
X11483818Y14169966D01*
X10661882Y14223966D02*
X11482417Y14223966D01*
X10570961Y14187966D02*
X11480604Y14187966D01*
X10626272Y14205966D02*
X11480147Y14205966D01*
X10210000Y12063966D02*
X10545373Y12063966D01*
X10210000Y11829966D02*
X10541379Y11829966D01*
X10210000Y12045966D02*
X10516892Y12045966D01*
X10210000Y11847966D02*
X10514620Y11847966D01*
X10210000Y12027966D02*
X10499096Y12027966D01*
X10210000Y11865966D02*
X10497555Y11865966D01*
X10210000Y12009966D02*
X10486825Y12009966D01*
X10210000Y11883966D02*
X10485754Y11883966D01*
X10210000Y11991966D02*
X10478397Y11991966D01*
X10210000Y11901966D02*
X10477684Y11901966D01*
X10210000Y11973966D02*
X10473043Y11973966D01*
X10210000Y11919966D02*
X10472632Y11919966D01*
X10210000Y11955966D02*
X10470382Y11955966D01*
X10210000Y11937966D02*
X10470247Y11937966D01*
X10210000Y14187966D02*
X10429038Y14187966D01*
X10210000Y10803966D02*
X10399977Y10803966D01*
X10210000Y14205966D02*
X10373727Y14205966D01*
X10210000Y10785966D02*
X10356391Y10785966D01*
X10210000Y14223966D02*
X10338117Y14223966D01*
X10210000Y10767966D02*
X10325088Y10767966D01*
X10210000Y14241966D02*
X10310740Y14241966D01*
X10210000Y10749966D02*
X10300207Y10749966D01*
X10210000Y14259966D02*
X10288376Y14259966D01*
X10210000Y10731966D02*
X10279564Y10731966D01*
X10210000Y14277966D02*
X10269562Y14277966D01*
X10210000Y10713966D02*
X10262053Y10713966D01*
X10210000Y14295966D02*
X10253482Y14295966D01*
X10210000Y10695966D02*
X10247022Y10695966D01*
X10210000Y14313966D02*
X10239631Y14313966D01*
X10210000Y10677966D02*
X10234052Y10677966D01*
X10212496Y14331966D02*
X10227503Y14331966D01*
X8999999Y31600000D02*
G03X8999999Y31600000I-199999D01*
G01X8550000Y31600000D02*
X9050000Y31600000D01*
X8800000Y31850000D02*
X8800000Y31350000D01*
X39799999Y8400000D02*
G03X39799999Y8400000I-199999D01*
G01X39350000Y8400000D02*
X39850000Y8400000D01*
X39600000Y8650000D02*
X39600000Y8150000D01*
X40399999Y8400000D02*
G03X40399999Y8400000I-199999D01*
G01X39950000Y8400000D02*
X40450000Y8400000D01*
X40200000Y8650000D02*
X40200000Y8150000D01*
G54D20*
X12450000Y11350000D03*
X12450000Y11550000D03*
X12450000Y11450000D03*
X12550000Y11350000D03*
X12650000Y11350000D03*
X12650000Y11450000D03*
X12550000Y11550000D03*
X12550000Y11450000D03*
X12650000Y11550000D03*
X13870000Y11430000D03*
X12165000Y11635000D03*
X12450000Y11650000D03*
X12450000Y11750000D03*
X12450000Y11850000D03*
X12550000Y11750000D03*
X12550000Y11650000D03*
X12550000Y11850000D03*
X12650000Y11650000D03*
X12650000Y11750000D03*
X12650000Y11850000D03*
X12450000Y12050000D03*
X12450000Y11950000D03*
X12290000Y11970000D03*
X12650000Y12050000D03*
X12650000Y11950000D03*
X12550000Y12050000D03*
X12550000Y11950000D03*
X12750000Y12130000D03*
X12900000Y12800000D03*
X13100000Y12800000D03*
X12800000Y12900000D03*
X12900000Y13000000D03*
X13000000Y13100000D03*
X13100000Y13000000D03*
X13000000Y12900000D03*
X12900000Y13200000D03*
X12800000Y13300000D03*
X13000000Y13300000D03*
X13100000Y13200000D03*
X12900000Y13600000D03*
X12800000Y13500000D03*
X12900000Y13400000D03*
X13100000Y13600000D03*
X13000000Y13500000D03*
X13100000Y13400000D03*
X13550000Y13800000D03*
G54D22*
X13654000Y14250000D03*
X13146000Y14250000D03*
X10600000Y12454000D03*
X10600000Y11946000D03*
G74*
X0Y0D02*
M02*
