*
*
G04 PADS Layout (Build Number 2004.211.1) generated Gerber (RS-274-X) file*
G04 PC Version=2.1*
*
%IN "BD9E303EFJ-EVK-001.pcb"*%
*
%MOMM*%
*
%FSLAX35Y35*%
*
*
*
*
G04 PC Standard Apertures*
*
*
G04 Thermal Relief Aperture macro.*
%AMTER*
1,1,$1,0,0*
1,0,$1-$2,0,0*
21,0,$3,$4,0,0,45*
21,0,$3,$4,0,0,135*
%
*
*
G04 Annular Aperture macro.*
%AMANN*
1,1,$1,0,0*
1,0,$2,0,0*
%
*
*
G04 Odd Aperture macro.*
%AMODD*
1,1,$1,0,0*
1,0,$1-0.005,0,0*
%
*
*
G04 PC Custom Aperture Macros*
*
*
*
*
*
*
G04 PC Aperture Table*
*
%ADD011R,0.9X0.7*%
%ADD013R,2.6X1.4*%
%ADD014C,1.8*%
%ADD016C,1.6*%
%ADD017C,3.3*%
%ADD018C,0.15*%
%ADD019C,0.2*%
%ADD020C,0.6*%
%ADD022C,2*%
%ADD023C,0.3*%
%ADD036R,0.7X0.9*%
%ADD045R,1.2X1.7*%
%ADD047R,1.4X0.75*%
%ADD048R,3.2X4.9*%
%ADD049C,0.5*%
%ADD058R,3.2X2.5*%
*
*
*
*
G04 PC Custom Flashes*
G04 Layer Name BD9E303EFJ-EVK-001.pcb - flashes*
%LPD*%
*
*
G04 PC Circuitry*
G04 Layer Name BD9E303EFJ-EVK-001.pcb - circuitry*
%LPD*%
*
G54D11*
G01X13350000Y11330000D03*
X13350000Y11470000D03*
X13000000Y12270000D03*
X13000000Y12130000D03*
X12850000Y12130000D03*
X12850000Y12270000D03*
G54D13*
X11850000Y12070000D03*
X11850000Y12330000D03*
X11450000Y12070000D03*
X11450000Y12330000D03*
G54D14*
X11850000Y14200000D03*
X11600000Y14200000D03*
X11350000Y14200000D03*
G54D16*
X11850000Y11800000D03*
X11850000Y12800000D03*
X13800000Y13400000D03*
X12700000Y13100000D03*
X13050000Y11900000D03*
X13100000Y11400000D03*
G54D17*
X10500000Y10500000D03*
X14500000Y10500000D03*
X10500000Y14500000D03*
X14500000Y14500000D03*
G54D18*
X12510000Y11350000D02*
X12465910Y11365910D01*
X12487500Y11350000*
X12465910Y11334090*
X12510000Y11350000*
X12467144Y11335000D02*
X12468431Y11335000D01*
X12487500Y11350000D02*
X12510000Y11350000D01*
X12467144Y11365000D02*
X12468431Y11365000D01*
X12475000Y11337370D02*
X12475000Y11340788D01*
X12475000Y11359211D02*
X12475000Y11362629D01*
X12490000Y11342783D02*
X12490000Y11357217D01*
X12505000Y11348195D02*
X12505000Y11351804D01*
X12490000Y11350000D02*
X12534090Y11334090D01*
X12512500Y11350000*
X12534090Y11365910*
X12490000Y11350000*
X12531568Y11335000D02*
X12532855Y11335000D01*
X12490000Y11350000D02*
X12512500Y11350000D01*
X12531568Y11365000D02*
X12532855Y11365000D01*
X12490000Y11350000D02*
X12490000Y11350000D01*
X12505000Y11344587D02*
X12505000Y11355412D01*
X12520000Y11339174D02*
X12520000Y11344473D01*
X12520000Y11355526D02*
X12520000Y11360825D01*
X12510000Y11550000D02*
X12465910Y11565910D01*
X12487500Y11550000*
X12465910Y11534090*
X12510000Y11550000*
X12480715Y11545000D02*
X12496143Y11545000D01*
X12473929Y11560000D02*
X12482287Y11560000D01*
X12475000Y11537370D02*
X12475000Y11540788D01*
X12475000Y11559211D02*
X12475000Y11562629D01*
X12490000Y11542783D02*
X12490000Y11557217D01*
X12505000Y11548195D02*
X12505000Y11551804D01*
X12490000Y11550000D02*
X12534090Y11534090D01*
X12512500Y11550000*
X12534090Y11565910*
X12490000Y11550000*
X12503856Y11545000D02*
X12519285Y11545000D01*
X12517712Y11560000D02*
X12526070Y11560000D01*
X12490000Y11550000D02*
X12490000Y11550000D01*
X12505000Y11544587D02*
X12505000Y11555412D01*
X12520000Y11539174D02*
X12520000Y11544473D01*
X12520000Y11555526D02*
X12520000Y11560825D01*
X12510000Y11450000D02*
X12465910Y11465910D01*
X12487500Y11450000*
X12465910Y11434090*
X12510000Y11450000*
X12473929Y11440000D02*
X12482287Y11440000D01*
X12480714Y11455000D02*
X12496144Y11455000D01*
X12475000Y11437370D02*
X12475000Y11440788D01*
X12475000Y11459211D02*
X12475000Y11462629D01*
X12490000Y11442783D02*
X12490000Y11457217D01*
X12505000Y11448195D02*
X12505000Y11451804D01*
X12490000Y11450000D02*
X12534090Y11434090D01*
X12512500Y11450000*
X12534090Y11465910*
X12490000Y11450000*
X12517712Y11440000D02*
X12526070Y11440000D01*
X12503856Y11455000D02*
X12519285Y11455000D01*
X12490000Y11450000D02*
X12490000Y11450000D01*
X12505000Y11444587D02*
X12505000Y11455412D01*
X12520000Y11439174D02*
X12520000Y11444473D01*
X12520000Y11455526D02*
X12520000Y11460825D01*
X12610000Y11350000D02*
X12565910Y11365910D01*
X12587500Y11350000*
X12565910Y11334090*
X12610000Y11350000*
X12567144Y11335000D02*
X12568431Y11335000D01*
X12587500Y11350000D02*
X12610000Y11350000D01*
X12567144Y11365000D02*
X12568431Y11365000D01*
X12580000Y11339174D02*
X12580000Y11344473D01*
X12580000Y11355526D02*
X12580000Y11360825D01*
X12595000Y11344587D02*
X12595000Y11355412D01*
X12610000Y11350000D02*
X12610000Y11350000D01*
X12590000Y11350000D02*
X12634090Y11334090D01*
X12612500Y11350000*
X12634090Y11365910*
X12590000Y11350000*
X12631568Y11335000D02*
X12632855Y11335000D01*
X12590000Y11350000D02*
X12612500Y11350000D01*
X12631568Y11365000D02*
X12632855Y11365000D01*
X12595000Y11348195D02*
X12595000Y11351804D01*
X12610000Y11342783D02*
X12610000Y11357217D01*
X12625000Y11337370D02*
X12625000Y11340788D01*
X12625000Y11359211D02*
X12625000Y11362629D01*
X12650000Y11290000D02*
X12665910Y11334090D01*
X12650000Y11312500*
X12634090Y11334090*
X12650000Y11290000*
X12650000Y11290000*
X12644587Y11305000D02*
X12655412Y11305000D01*
X12639174Y11320000D02*
X12644473Y11320000D01*
X12655526Y11320000D02*
X12660825Y11320000D01*
X12640000Y11317712D02*
X12640000Y11326070D01*
X12655000Y11303856D02*
X12655000Y11319285D01*
X12650000Y11390000D02*
X12665910Y11434090D01*
X12650000Y11412500*
X12634090Y11434090*
X12650000Y11390000*
X12648195Y11395000D02*
X12651804Y11395000D01*
X12642783Y11410000D02*
X12657217Y11410000D01*
X12637370Y11425000D02*
X12640788Y11425000D01*
X12659211Y11425000D02*
X12662629Y11425000D01*
X12640000Y11417712D02*
X12640000Y11426070D01*
X12655000Y11403856D02*
X12655000Y11419285D01*
X12650000Y11410000D02*
X12634090Y11365910D01*
X12650000Y11387500*
X12665910Y11365910*
X12650000Y11410000*
X12639174Y11380000D02*
X12644473Y11380000D01*
X12655526Y11380000D02*
X12660825Y11380000D01*
X12644587Y11395000D02*
X12655412Y11395000D01*
X12650000Y11410000D02*
X12650000Y11410000D01*
X12640000Y11373929D02*
X12640000Y11382287D01*
X12655000Y11380715D02*
X12655000Y11396143D01*
X12550000Y11610000D02*
X12534090Y11565910D01*
X12550000Y11587500*
X12565910Y11565910*
X12550000Y11610000*
X12537370Y11575000D02*
X12540788Y11575000D01*
X12559211Y11575000D02*
X12562629Y11575000D01*
X12542783Y11590000D02*
X12557217Y11590000D01*
X12548195Y11605000D02*
X12551804Y11605000D01*
X12535000Y11567144D02*
X12535000Y11568431D01*
X12550000Y11587500D02*
X12550000Y11610000D01*
X12565000Y11567144D02*
X12565000Y11568431D01*
X12550000Y11590000D02*
X12565910Y11634090D01*
X12550000Y11612500*
X12534090Y11634090*
X12550000Y11590000*
X12550000Y11590000*
X12544587Y11605000D02*
X12555412Y11605000D01*
X12539174Y11620000D02*
X12544473Y11620000D01*
X12555526Y11620000D02*
X12560825Y11620000D01*
X12535000Y11631568D02*
X12535000Y11632855D01*
X12550000Y11590000D02*
X12550000Y11612500D01*
X12565000Y11631568D02*
X12565000Y11632855D01*
X12610000Y11450000D02*
X12565910Y11465910D01*
X12587500Y11450000*
X12565910Y11434090*
X12610000Y11450000*
X12573929Y11440000D02*
X12582287Y11440000D01*
X12580714Y11455000D02*
X12596144Y11455000D01*
X12580000Y11439174D02*
X12580000Y11444473D01*
X12580000Y11455526D02*
X12580000Y11460825D01*
X12595000Y11444587D02*
X12595000Y11455412D01*
X12610000Y11450000D02*
X12610000Y11450000D01*
X12590000Y11450000D02*
X12634090Y11434090D01*
X12612500Y11450000*
X12634090Y11465910*
X12590000Y11450000*
X12617712Y11440000D02*
X12626070Y11440000D01*
X12603856Y11455000D02*
X12619285Y11455000D01*
X12595000Y11448195D02*
X12595000Y11451804D01*
X12610000Y11442783D02*
X12610000Y11457217D01*
X12625000Y11437370D02*
X12625000Y11440788D01*
X12625000Y11459211D02*
X12625000Y11462629D01*
X11850000Y11960000D02*
X11798734Y11851265D01*
X11798734Y11851265D02*
X11850000Y11887500D01*
X11901265Y11851265*
X11850000Y11960000*
X11802853Y11860000D02*
X11811092Y11860000D01*
X11888907Y11860000D02*
X11897147Y11860000D01*
X11809925Y11875000D02*
X11832314Y11875000D01*
X11867685Y11875000D02*
X11890075Y11875000D01*
X11816997Y11890000D02*
X11883003Y11890000D01*
X11824069Y11905000D02*
X11875930Y11905000D01*
X11831141Y11920000D02*
X11868858Y11920000D01*
X11838213Y11935000D02*
X11861786Y11935000D01*
X11845285Y11950000D02*
X11854714Y11950000D01*
X11800000Y11852159D02*
X11800000Y11853948D01*
X11815000Y11862761D02*
X11815000Y11885764D01*
X11830000Y11873363D02*
X11830000Y11917579D01*
X11845000Y11883966D02*
X11845000Y11949395D01*
X11860000Y11880431D02*
X11860000Y11938789D01*
X11875000Y11869829D02*
X11875000Y11906974D01*
X11890000Y11859227D02*
X11890000Y11875159D01*
X12550000Y11910000D02*
X12534090Y11865910D01*
X12550000Y11887500*
X12565910Y11865910*
X12550000Y11910000*
X12537370Y11875000D02*
X12540788Y11875000D01*
X12559211Y11875000D02*
X12562629Y11875000D01*
X12542783Y11890000D02*
X12557217Y11890000D01*
X12548195Y11905000D02*
X12551804Y11905000D01*
X12535000Y11867144D02*
X12535000Y11868431D01*
X12550000Y11887500D02*
X12550000Y11910000D01*
X12565000Y11867144D02*
X12565000Y11868431D01*
X12550000Y11890000D02*
X12565910Y11934090D01*
X12550000Y11912500*
X12534090Y11934090*
X12550000Y11890000*
X12550000Y11890000*
X12544587Y11905000D02*
X12555412Y11905000D01*
X12539174Y11920000D02*
X12544473Y11920000D01*
X12555526Y11920000D02*
X12560825Y11920000D01*
X12535000Y11931568D02*
X12535000Y11932855D01*
X12550000Y11890000D02*
X12550000Y11912500D01*
X12565000Y11931568D02*
X12565000Y11932855D01*
X12550000Y11790000D02*
X12565910Y11834090D01*
X12550000Y11812500*
X12534090Y11834090*
X12550000Y11790000*
X12546391Y11800000D02*
X12553608Y11800000D01*
X12540978Y11815000D02*
X12548157Y11815000D01*
X12551842Y11815000D02*
X12559021Y11815000D01*
X12535566Y11830000D02*
X12537104Y11830000D01*
X12562896Y11830000D02*
X12564434Y11830000D01*
X12535000Y11831568D02*
X12535000Y11832855D01*
X12550000Y11790000D02*
X12550000Y11812500D01*
X12565000Y11831568D02*
X12565000Y11832855D01*
X10800000Y11946000D02*
X10665407Y12011407D01*
X10665407Y12011407D02*
X10707500Y11946000D01*
X10665407Y11880592*
X10665407Y11880592D02*
X10800000Y11946000D01*
X10671461Y11890000D02*
X10684765Y11890000D01*
X10681114Y11905000D02*
X10715631Y11905000D01*
X10690767Y11920000D02*
X10746498Y11920000D01*
X10700421Y11935000D02*
X10777364Y11935000D01*
X10704925Y11950000D02*
X10791769Y11950000D01*
X10695272Y11965000D02*
X10760902Y11965000D01*
X10685619Y11980000D02*
X10730036Y11980000D01*
X10675966Y11995000D02*
X10699170Y11995000D01*
X10666313Y12010000D02*
X10668303Y12010000D01*
X10675000Y11885254D02*
X10675000Y11895498D01*
X10675000Y11996501D02*
X10675000Y12006745D01*
X10690000Y11892543D02*
X10690000Y11918806D01*
X10690000Y11973193D02*
X10690000Y11999456D01*
X10705000Y11899833D02*
X10705000Y11942115D01*
X10705000Y11949884D02*
X10705000Y11992166D01*
X10720000Y11907122D02*
X10720000Y11984877D01*
X10735000Y11914412D02*
X10735000Y11977587D01*
X10750000Y11921701D02*
X10750000Y11970298D01*
X10765000Y11928991D02*
X10765000Y11963008D01*
X10780000Y11936280D02*
X10780000Y11955719D01*
X10795000Y11943570D02*
X10795000Y11948429D01*
X12510000Y11950000D02*
X12465910Y11965910D01*
X12487500Y11950000*
X12465910Y11934090*
X12510000Y11950000*
X12467144Y11935000D02*
X12468431Y11935000D01*
X12487500Y11950000D02*
X12510000Y11950000D01*
X12467144Y11965000D02*
X12468431Y11965000D01*
X12475000Y11937370D02*
X12475000Y11940788D01*
X12475000Y11959211D02*
X12475000Y11962629D01*
X12490000Y11942783D02*
X12490000Y11957217D01*
X12505000Y11948195D02*
X12505000Y11951804D01*
X12490000Y11950000D02*
X12534090Y11934090D01*
X12512500Y11950000*
X12534090Y11965910*
X12490000Y11950000*
X12531568Y11935000D02*
X12532855Y11935000D01*
X12490000Y11950000D02*
X12512500Y11950000D01*
X12531568Y11965000D02*
X12532855Y11965000D01*
X12490000Y11950000D02*
X12490000Y11950000D01*
X12505000Y11944587D02*
X12505000Y11955412D01*
X12520000Y11939174D02*
X12520000Y11944473D01*
X12520000Y11955526D02*
X12520000Y11960825D01*
X12550000Y12010000D02*
X12534090Y11965910D01*
X12550000Y11987500*
X12565910Y11965910*
X12550000Y12010000*
X12539174Y11980000D02*
X12544473Y11980000D01*
X12555526Y11980000D02*
X12560825Y11980000D01*
X12544587Y11995000D02*
X12555412Y11995000D01*
X12550000Y12010000D02*
X12550000Y12010000D01*
X12535000Y11967144D02*
X12535000Y11968431D01*
X12550000Y11987500D02*
X12550000Y12010000D01*
X12565000Y11967144D02*
X12565000Y11968431D01*
X12550000Y11990000D02*
X12565910Y12034090D01*
X12550000Y12012500*
X12534090Y12034090*
X12550000Y11990000*
X12548195Y11995000D02*
X12551804Y11995000D01*
X12542783Y12010000D02*
X12557217Y12010000D01*
X12537370Y12025000D02*
X12540788Y12025000D01*
X12559211Y12025000D02*
X12562629Y12025000D01*
X12535000Y12031568D02*
X12535000Y12032855D01*
X12550000Y11990000D02*
X12550000Y12012500D01*
X12565000Y12031568D02*
X12565000Y12032855D01*
X12610000Y11950000D02*
X12565910Y11965910D01*
X12587500Y11950000*
X12565910Y11934090*
X12610000Y11950000*
X12567144Y11935000D02*
X12568431Y11935000D01*
X12587500Y11950000D02*
X12610000Y11950000D01*
X12567144Y11965000D02*
X12568431Y11965000D01*
X12580000Y11939174D02*
X12580000Y11944473D01*
X12580000Y11955526D02*
X12580000Y11960825D01*
X12595000Y11944587D02*
X12595000Y11955412D01*
X12610000Y11950000D02*
X12610000Y11950000D01*
X12590000Y11950000D02*
X12634090Y11934090D01*
X12612500Y11950000*
X12634090Y11965910*
X12590000Y11950000*
X12631568Y11935000D02*
X12632855Y11935000D01*
X12590000Y11950000D02*
X12612500Y11950000D01*
X12631568Y11965000D02*
X12632855Y11965000D01*
X12595000Y11948195D02*
X12595000Y11951804D01*
X12610000Y11942783D02*
X12610000Y11957217D01*
X12625000Y11937370D02*
X12625000Y11940788D01*
X12625000Y11959211D02*
X12625000Y11962629D01*
X10600000Y12654000D02*
X10534592Y12519407D01*
X10534592Y12519407D02*
X10600000Y12561500D01*
X10665407Y12519407*
X10665407Y12519407D02*
X10600000Y12654000D01*
X10534880Y12520000D02*
X10535513Y12520000D01*
X10664486Y12520000D02*
X10665119Y12520000D01*
X10542170Y12535000D02*
X10558821Y12535000D01*
X10641178Y12535000D02*
X10657830Y12535000D01*
X10549459Y12550000D02*
X10582130Y12550000D01*
X10617869Y12550000D02*
X10650540Y12550000D01*
X10556749Y12565000D02*
X10643251Y12565000D01*
X10564038Y12580000D02*
X10635961Y12580000D01*
X10571328Y12595000D02*
X10628672Y12595000D01*
X10578617Y12610000D02*
X10621382Y12610000D01*
X10585907Y12625000D02*
X10614093Y12625000D01*
X10593196Y12640000D02*
X10606803Y12640000D01*
X10540000Y12522887D02*
X10540000Y12530534D01*
X10555000Y12532540D02*
X10555000Y12561400D01*
X10570000Y12542193D02*
X10570000Y12592267D01*
X10585000Y12551846D02*
X10585000Y12623133D01*
X10600000Y12561500D02*
X10600000Y12654000D01*
X10615000Y12551846D02*
X10615000Y12623133D01*
X10630000Y12542193D02*
X10630000Y12592267D01*
X10645000Y12532540D02*
X10645000Y12561401D01*
X10660000Y12522887D02*
X10660000Y12530534D01*
X11222720Y14072720D02*
X11350000Y14117500D01*
X11281057Y14131057*
X11267500Y14200000*
X11222720Y14072720*
X11225281Y14080000D02*
X11243410Y14080000D01*
X11230559Y14095000D02*
X11286046Y14095000D01*
X11235836Y14110000D02*
X11328682Y14110000D01*
X11241113Y14125000D02*
X11311860Y14125000D01*
X11246390Y14140000D02*
X11279298Y14140000D01*
X11251668Y14155000D02*
X11276348Y14155000D01*
X11256945Y14170000D02*
X11273399Y14170000D01*
X11262222Y14185000D02*
X11270449Y14185000D01*
X11267500Y14200000D02*
X11267500Y14200000D01*
X11230000Y14075281D02*
X11230000Y14093410D01*
X11245000Y14080559D02*
X11245000Y14136046D01*
X11260000Y14085836D02*
X11260000Y14178682D01*
X11275000Y14091113D02*
X11275000Y14161859D01*
X11290000Y14096390D02*
X11290000Y14129298D01*
X11305000Y14101668D02*
X11305000Y14126348D01*
X11320000Y14106945D02*
X11320000Y14123399D01*
X11335000Y14112222D02*
X11335000Y14120449D01*
X11350000Y14117500D02*
X11350000Y14117500D01*
X10800000Y12454000D02*
X10665407Y12519407D01*
X10665407Y12519407D02*
X10707500Y12454000D01*
X10665407Y12388592*
X10665407Y12388592D02*
X10800000Y12454000D01*
X10672748Y12400000D02*
X10688881Y12400000D01*
X10682401Y12415000D02*
X10719747Y12415000D01*
X10692055Y12430000D02*
X10750613Y12430000D01*
X10701708Y12445000D02*
X10781480Y12445000D01*
X10703638Y12460000D02*
X10787653Y12460000D01*
X10693985Y12475000D02*
X10756787Y12475000D01*
X10684332Y12490000D02*
X10725920Y12490000D01*
X10674679Y12505000D02*
X10695054Y12505000D01*
X10675000Y12393254D02*
X10675000Y12403498D01*
X10675000Y12504501D02*
X10675000Y12514745D01*
X10690000Y12400543D02*
X10690000Y12426806D01*
X10690000Y12481193D02*
X10690000Y12507456D01*
X10705000Y12407833D02*
X10705000Y12450115D01*
X10705000Y12457884D02*
X10705000Y12500166D01*
X10720000Y12415122D02*
X10720000Y12492877D01*
X10735000Y12422412D02*
X10735000Y12485587D01*
X10750000Y12429701D02*
X10750000Y12478298D01*
X10765000Y12436991D02*
X10765000Y12471008D01*
X10780000Y12444280D02*
X10780000Y12463719D01*
X10795000Y12451570D02*
X10795000Y12456429D01*
X11850000Y12640000D02*
X11901265Y12748734D01*
X11901265Y12748734D02*
X11850000Y12712500D01*
X11798734Y12748734*
X11798734Y12748734D02*
X11850000Y12640000D01*
X11850000Y12640000*
X11842927Y12655000D02*
X11857072Y12655000D01*
X11835855Y12670000D02*
X11864144Y12670000D01*
X11828783Y12685000D02*
X11871216Y12685000D01*
X11821711Y12700000D02*
X11878288Y12700000D01*
X11814639Y12715000D02*
X11846462Y12715000D01*
X11853537Y12715000D02*
X11885360Y12715000D01*
X11807567Y12730000D02*
X11825240Y12730000D01*
X11874759Y12730000D02*
X11892432Y12730000D01*
X11800495Y12745000D02*
X11804018Y12745000D01*
X11895981Y12745000D02*
X11899504Y12745000D01*
X11800000Y12746051D02*
X11800000Y12747840D01*
X11815000Y12714235D02*
X11815000Y12737238D01*
X11830000Y12682420D02*
X11830000Y12726636D01*
X11845000Y12650605D02*
X11845000Y12716034D01*
X11860000Y12661210D02*
X11860000Y12719568D01*
X11875000Y12693025D02*
X11875000Y12730170D01*
X11890000Y12724840D02*
X11890000Y12740772D01*
X12840000Y12800000D02*
X12884090Y12784090D01*
X12862500Y12800000*
X12884090Y12815910*
X12840000Y12800000*
X12867712Y12790000D02*
X12876070Y12790000D01*
X12853856Y12805000D02*
X12869285Y12805000D01*
X12850000Y12796391D02*
X12850000Y12803608D01*
X12865000Y12790978D02*
X12865000Y12798157D01*
X12865000Y12801842D02*
X12865000Y12809021D01*
X12880000Y12785566D02*
X12880000Y12787104D01*
X12880000Y12812896D02*
X12880000Y12814434D01*
X12942426Y12842426D02*
X12900000Y12822500D01*
X12926516Y12826516*
X12926516Y12826516D02*
X12922500Y12800000D01*
X12942426Y12842426*
X12923257Y12805000D02*
X12924848Y12805000D01*
X12925529Y12820000D02*
X12931893Y12820000D01*
X12926614Y12835000D02*
X12938938Y12835000D01*
X12910000Y12824014D02*
X12910000Y12827196D01*
X12925000Y12805322D02*
X12925000Y12816504D01*
X12925000Y12826286D02*
X12925000Y12834241D01*
X12940000Y12837260D02*
X12940000Y12841286D01*
X12957573Y12857573D02*
X13000000Y12877500D01*
X12973483Y12873483*
X12973483Y12873483D02*
X12977500Y12900000D01*
X12957573Y12857573*
X12961061Y12865000D02*
X12973385Y12865000D01*
X12968106Y12880000D02*
X12974470Y12880000D01*
X12975151Y12895000D02*
X12976742Y12895000D01*
X12970000Y12863410D02*
X12970000Y12884031D01*
X12985000Y12870455D02*
X12985000Y12875228D01*
X13000000Y12877500D02*
X13000000Y12877500D01*
X12960000Y12800000D02*
X12915910Y12815910D01*
X12937500Y12800000*
X12915910Y12784090*
X12960000Y12800000*
X12923929Y12790000D02*
X12932287Y12790000D01*
X12930714Y12805000D02*
X12946144Y12805000D01*
X12925000Y12787370D02*
X12925000Y12790788D01*
X12925000Y12809211D02*
X12925000Y12812629D01*
X12940000Y12792783D02*
X12940000Y12807217D01*
X12955000Y12798195D02*
X12955000Y12801804D01*
X13040000Y12800000D02*
X13084090Y12784090D01*
X13062500Y12800000*
X13084090Y12815910*
X13040000Y12800000*
X13067712Y12790000D02*
X13076070Y12790000D01*
X13053856Y12805000D02*
X13069285Y12805000D01*
X13045000Y12798195D02*
X13045000Y12801804D01*
X13060000Y12792783D02*
X13060000Y12807217D01*
X13075000Y12787370D02*
X13075000Y12790788D01*
X13075000Y12809211D02*
X13075000Y12812629D01*
X12860000Y13100000D02*
X12751265Y13151265D01*
X12787500Y13100000*
X12751265Y13048734*
X12751265Y13048734D02*
X12860000Y13100000D01*
X12759227Y13060000D02*
X12775159Y13060000D01*
X12769829Y13075000D02*
X12806974Y13075000D01*
X12780432Y13090000D02*
X12838789Y13090000D01*
X12783965Y13105000D02*
X12849395Y13105000D01*
X12773363Y13120000D02*
X12817579Y13120000D01*
X12762761Y13135000D02*
X12785764Y13135000D01*
X12752159Y13150000D02*
X12753949Y13150000D01*
X12760000Y13052853D02*
X12760000Y13061092D01*
X12760000Y13138907D02*
X12760000Y13147147D01*
X12775000Y13059925D02*
X12775000Y13082314D01*
X12775000Y13117685D02*
X12775000Y13140075D01*
X12790000Y13066997D02*
X12790000Y13133003D01*
X12805000Y13074069D02*
X12805000Y13125930D01*
X12820000Y13081141D02*
X12820000Y13118858D01*
X12835000Y13088213D02*
X12835000Y13111786D01*
X12850000Y13095285D02*
X12850000Y13104714D01*
X12940000Y13100000D02*
X12984090Y13084090D01*
X12962500Y13100000*
X12984090Y13115910*
X12940000Y13100000*
X12967712Y13090000D02*
X12976070Y13090000D01*
X12953856Y13105000D02*
X12969285Y13105000D01*
X12940000Y13100000D02*
X12940000Y13100000D01*
X12955000Y13094587D02*
X12955000Y13105412D01*
X12970000Y13089174D02*
X12970000Y13094473D01*
X12970000Y13105526D02*
X12970000Y13110825D01*
X12900000Y12940000D02*
X12915910Y12984090D01*
X12900000Y12962500*
X12884090Y12984090*
X12900000Y12940000*
X12900000Y12940000*
X12894587Y12955000D02*
X12905412Y12955000D01*
X12889174Y12970000D02*
X12894473Y12970000D01*
X12905526Y12970000D02*
X12910825Y12970000D01*
X12895000Y12953856D02*
X12895000Y12969285D01*
X12910000Y12967712D02*
X12910000Y12976070D01*
X12900000Y12860000D02*
X12884090Y12815910D01*
X12900000Y12837500*
X12915910Y12815910*
X12900000Y12860000*
X12885566Y12820000D02*
X12887104Y12820000D01*
X12912896Y12820000D02*
X12914434Y12820000D01*
X12890978Y12835000D02*
X12898157Y12835000D01*
X12901842Y12835000D02*
X12909021Y12835000D01*
X12896391Y12850000D02*
X12903608Y12850000D01*
X12895000Y12830714D02*
X12895000Y12846144D01*
X12910000Y12823929D02*
X12910000Y12832287D01*
X13048524Y13135290D02*
X13003509Y13122224D01*
X13003509Y13122224D02*
X13030327Y13122056D01*
X13030327Y13122056D02*
X13022224Y13096490D01*
X13022224Y13096490D02*
X13048524Y13135290D01*
X13024921Y13105000D02*
X13027992Y13105000D01*
X13029675Y13120000D02*
X13038159Y13120000D01*
X13047523Y13135000D02*
X13048327Y13135000D01*
X13015000Y13122152D02*
X13015000Y13125560D01*
X13030000Y13107961D02*
X13030000Y13121022D01*
X13030000Y13122058D02*
X13030000Y13129913D01*
X13045000Y13130091D02*
X13045000Y13134267D01*
X12900000Y13140000D02*
X12915910Y13184090D01*
X12900000Y13162500*
X12884090Y13184090*
X12900000Y13140000*
X12896391Y13150000D02*
X12903608Y13150000D01*
X12890978Y13165000D02*
X12898157Y13165000D01*
X12901842Y13165000D02*
X12909021Y13165000D01*
X12885566Y13180000D02*
X12887104Y13180000D01*
X12912896Y13180000D02*
X12914434Y13180000D01*
X12895000Y13153856D02*
X12895000Y13169285D01*
X12910000Y13167712D02*
X12910000Y13176070D01*
X12900000Y13060000D02*
X12884090Y13015910D01*
X12900000Y13037500*
X12915910Y13015910*
X12900000Y13060000*
X12889174Y13030000D02*
X12894473Y13030000D01*
X12905526Y13030000D02*
X12910825Y13030000D01*
X12894587Y13045000D02*
X12905412Y13045000D01*
X12900000Y13060000D02*
X12900000Y13060000D01*
X12895000Y13030714D02*
X12895000Y13046144D01*
X12910000Y13023929D02*
X12910000Y13032287D01*
X13000000Y13240000D02*
X13015910Y13284090D01*
X13000000Y13262500*
X12984090Y13284090*
X13000000Y13240000*
X13000000Y13240000*
X12994587Y13255000D02*
X13005412Y13255000D01*
X12989174Y13270000D02*
X12994473Y13270000D01*
X13005526Y13270000D02*
X13010825Y13270000D01*
X12985000Y13281568D02*
X12985000Y13282855D01*
X13000000Y13240000D02*
X13000000Y13262500D01*
X13015000Y13281568D02*
X13015000Y13282855D01*
X13000000Y12960000D02*
X12984090Y12915910D01*
X13000000Y12937500*
X13015910Y12915910*
X13000000Y12960000*
X12987370Y12925000D02*
X12990788Y12925000D01*
X13009211Y12925000D02*
X13012629Y12925000D01*
X12992783Y12940000D02*
X13007217Y12940000D01*
X12998195Y12955000D02*
X13001804Y12955000D01*
X12985000Y12917144D02*
X12985000Y12918431D01*
X13000000Y12937500D02*
X13000000Y12960000D01*
X13015000Y12917144D02*
X13015000Y12918431D01*
X13100000Y13140000D02*
X13115910Y13184090D01*
X13100000Y13162500*
X13084090Y13184090*
X13100000Y13140000*
X13096391Y13150000D02*
X13103608Y13150000D01*
X13090978Y13165000D02*
X13098157Y13165000D01*
X13101842Y13165000D02*
X13109021Y13165000D01*
X13085566Y13180000D02*
X13087104Y13180000D01*
X13112896Y13180000D02*
X13114434Y13180000D01*
X13090000Y13167712D02*
X13090000Y13176070D01*
X13105000Y13153856D02*
X13105000Y13169285D01*
X13100000Y13060000D02*
X13084090Y13015910D01*
X13100000Y13037500*
X13115910Y13015910*
X13100000Y13060000*
X13089174Y13030000D02*
X13094473Y13030000D01*
X13105526Y13030000D02*
X13110825Y13030000D01*
X13094587Y13045000D02*
X13105412Y13045000D01*
X13100000Y13060000D02*
X13100000Y13060000D01*
X13090000Y13023929D02*
X13090000Y13032287D01*
X13105000Y13030715D02*
X13105000Y13046143D01*
X12960000Y13600000D02*
X12915910Y13615910D01*
X12937500Y13600000*
X12915910Y13584090*
X12960000Y13600000*
X12917144Y13585000D02*
X12918431Y13585000D01*
X12937500Y13600000D02*
X12960000Y13600000D01*
X12917144Y13615000D02*
X12918431Y13615000D01*
X12925000Y13587370D02*
X12925000Y13590788D01*
X12925000Y13609211D02*
X12925000Y13612629D01*
X12940000Y13592783D02*
X12940000Y13607217D01*
X12955000Y13598195D02*
X12955000Y13601804D01*
X12900000Y13540000D02*
X12915910Y13584090D01*
X12900000Y13562500*
X12884090Y13584090*
X12900000Y13540000*
X12900000Y13540000*
X12894587Y13555000D02*
X12905412Y13555000D01*
X12889174Y13570000D02*
X12894473Y13570000D01*
X12905526Y13570000D02*
X12910825Y13570000D01*
X12895000Y13553856D02*
X12895000Y13569285D01*
X12910000Y13567712D02*
X12910000Y13576070D01*
X12900000Y13460000D02*
X12884090Y13415910D01*
X12900000Y13437500*
X12915910Y13415910*
X12900000Y13460000*
X12885566Y13420000D02*
X12887104Y13420000D01*
X12912896Y13420000D02*
X12914434Y13420000D01*
X12890978Y13435000D02*
X12898157Y13435000D01*
X12901842Y13435000D02*
X12909021Y13435000D01*
X12896391Y13450000D02*
X12903608Y13450000D01*
X12895000Y13430714D02*
X12895000Y13446144D01*
X12910000Y13423929D02*
X12910000Y13432287D01*
X12800000Y13440000D02*
X12815910Y13484090D01*
X12800000Y13462500*
X12784090Y13484090*
X12800000Y13440000*
X12796391Y13450000D02*
X12803608Y13450000D01*
X12790978Y13465000D02*
X12798157Y13465000D01*
X12801842Y13465000D02*
X12809021Y13465000D01*
X12785566Y13480000D02*
X12787104Y13480000D01*
X12812896Y13480000D02*
X12814434Y13480000D01*
X12790000Y13467712D02*
X12790000Y13476070D01*
X12805000Y13453856D02*
X12805000Y13469285D01*
X12800000Y13360000D02*
X12784090Y13315910D01*
X12800000Y13337500*
X12815910Y13315910*
X12800000Y13360000*
X12789174Y13330000D02*
X12794473Y13330000D01*
X12805526Y13330000D02*
X12810825Y13330000D01*
X12794587Y13345000D02*
X12805412Y13345000D01*
X12800000Y13360000D02*
X12800000Y13360000D01*
X12790000Y13323929D02*
X12790000Y13332287D01*
X12805000Y13330715D02*
X12805000Y13346143D01*
X12800000Y13560000D02*
X12784090Y13515910D01*
X12800000Y13537500*
X12815910Y13515910*
X12800000Y13560000*
X12787370Y13525000D02*
X12790788Y13525000D01*
X12809211Y13525000D02*
X12812629Y13525000D01*
X12792783Y13540000D02*
X12807217Y13540000D01*
X12798195Y13555000D02*
X12801804Y13555000D01*
X12790000Y13523929D02*
X12790000Y13532287D01*
X12805000Y13530715D02*
X12805000Y13546143D01*
X12840000Y13600000D02*
X12884090Y13584090D01*
X12862500Y13600000*
X12884090Y13615910*
X12840000Y13600000*
X12881568Y13585000D02*
X12882855Y13585000D01*
X12840000Y13600000D02*
X12862500Y13600000D01*
X12881568Y13615000D02*
X12882855Y13615000D01*
X12850000Y13596391D02*
X12850000Y13603608D01*
X12865000Y13590978D02*
X12865000Y13598157D01*
X12865000Y13601842D02*
X12865000Y13609021D01*
X12880000Y13585566D02*
X12880000Y13587104D01*
X12880000Y13612896D02*
X12880000Y13614434D01*
X12900000Y13340000D02*
X12915910Y13384090D01*
X12900000Y13362500*
X12884090Y13384090*
X12900000Y13340000*
X12898195Y13345000D02*
X12901804Y13345000D01*
X12892783Y13360000D02*
X12907217Y13360000D01*
X12887370Y13375000D02*
X12890788Y13375000D01*
X12909211Y13375000D02*
X12912629Y13375000D01*
X12895000Y13353856D02*
X12895000Y13369285D01*
X12910000Y13367712D02*
X12910000Y13376070D01*
X12900000Y13260000D02*
X12884090Y13215910D01*
X12900000Y13237500*
X12915910Y13215910*
X12900000Y13260000*
X12887370Y13225000D02*
X12890788Y13225000D01*
X12909211Y13225000D02*
X12912629Y13225000D01*
X12892783Y13240000D02*
X12907217Y13240000D01*
X12898195Y13255000D02*
X12901804Y13255000D01*
X12895000Y13230714D02*
X12895000Y13246144D01*
X12910000Y13223929D02*
X12910000Y13232287D01*
X13100000Y13540000D02*
X13115910Y13584090D01*
X13100000Y13562500*
X13084090Y13584090*
X13100000Y13540000*
X13100000Y13540000*
X13094587Y13555000D02*
X13105412Y13555000D01*
X13089174Y13570000D02*
X13094473Y13570000D01*
X13105526Y13570000D02*
X13110825Y13570000D01*
X13090000Y13567712D02*
X13090000Y13576070D01*
X13105000Y13553856D02*
X13105000Y13569285D01*
X13100000Y13460000D02*
X13084090Y13415910D01*
X13100000Y13437500*
X13115910Y13415910*
X13100000Y13460000*
X13085566Y13420000D02*
X13087104Y13420000D01*
X13112896Y13420000D02*
X13114434Y13420000D01*
X13090978Y13435000D02*
X13098157Y13435000D01*
X13101842Y13435000D02*
X13109021Y13435000D01*
X13096391Y13450000D02*
X13103608Y13450000D01*
X13090000Y13423929D02*
X13090000Y13432287D01*
X13105000Y13430715D02*
X13105000Y13446143D01*
X13000000Y13440000D02*
X13015910Y13484090D01*
X13000000Y13462500*
X12984090Y13484090*
X13000000Y13440000*
X12996391Y13450000D02*
X13003608Y13450000D01*
X12990978Y13465000D02*
X12998157Y13465000D01*
X13001842Y13465000D02*
X13009021Y13465000D01*
X12985566Y13480000D02*
X12987104Y13480000D01*
X13012896Y13480000D02*
X13014434Y13480000D01*
X12985000Y13481568D02*
X12985000Y13482855D01*
X13000000Y13440000D02*
X13000000Y13462500D01*
X13015000Y13481568D02*
X13015000Y13482855D01*
X13000000Y13360000D02*
X12984090Y13315910D01*
X13000000Y13337500*
X13015910Y13315910*
X13000000Y13360000*
X12989174Y13330000D02*
X12994473Y13330000D01*
X13005526Y13330000D02*
X13010825Y13330000D01*
X12994587Y13345000D02*
X13005412Y13345000D01*
X13000000Y13360000D02*
X13000000Y13360000D01*
X12985000Y13317144D02*
X12985000Y13318431D01*
X13000000Y13337500D02*
X13000000Y13360000D01*
X13015000Y13317144D02*
X13015000Y13318431D01*
X13100000Y13340000D02*
X13115910Y13384090D01*
X13100000Y13362500*
X13084090Y13384090*
X13100000Y13340000*
X13098195Y13345000D02*
X13101804Y13345000D01*
X13092783Y13360000D02*
X13107217Y13360000D01*
X13087370Y13375000D02*
X13090788Y13375000D01*
X13109211Y13375000D02*
X13112629Y13375000D01*
X13090000Y13367712D02*
X13090000Y13376070D01*
X13105000Y13353856D02*
X13105000Y13369285D01*
X13100000Y13260000D02*
X13084090Y13215910D01*
X13100000Y13237500*
X13115910Y13215910*
X13100000Y13260000*
X13087370Y13225000D02*
X13090788Y13225000D01*
X13109211Y13225000D02*
X13112629Y13225000D01*
X13092783Y13240000D02*
X13107217Y13240000D01*
X13098195Y13255000D02*
X13101804Y13255000D01*
X13090000Y13223929D02*
X13090000Y13232287D01*
X13105000Y13230715D02*
X13105000Y13246143D01*
X13040000Y13600000D02*
X13084090Y13584090D01*
X13062500Y13600000*
X13084090Y13615910*
X13040000Y13600000*
X13081568Y13585000D02*
X13082855Y13585000D01*
X13040000Y13600000D02*
X13062500Y13600000D01*
X13081568Y13615000D02*
X13082855Y13615000D01*
X13045000Y13598195D02*
X13045000Y13601804D01*
X13060000Y13592783D02*
X13060000Y13607217D01*
X13075000Y13587370D02*
X13075000Y13590788D01*
X13075000Y13609211D02*
X13075000Y13612629D01*
X13000000Y13560000D02*
X12984090Y13515910D01*
X13000000Y13537500*
X13015910Y13515910*
X13000000Y13560000*
X12987370Y13525000D02*
X12990788Y13525000D01*
X13009211Y13525000D02*
X13012629Y13525000D01*
X12992783Y13540000D02*
X13007217Y13540000D01*
X12998195Y13555000D02*
X13001804Y13555000D01*
X12985000Y13517144D02*
X12985000Y13518431D01*
X13000000Y13537500D02*
X13000000Y13560000D01*
X13015000Y13517144D02*
X13015000Y13518431D01*
X13146000Y14050000D02*
X13211407Y14184592D01*
X13211407Y14184592D02*
X13146000Y14142500D01*
X13080592Y14184592*
X13080592Y14184592D02*
X13146000Y14050000D01*
X13146000Y14050000*
X13138710Y14065000D02*
X13153289Y14065000D01*
X13131421Y14080000D02*
X13160579Y14080000D01*
X13124131Y14095000D02*
X13167868Y14095000D01*
X13116842Y14110000D02*
X13175158Y14110000D01*
X13109552Y14125000D02*
X13182447Y14125000D01*
X13102263Y14140000D02*
X13189737Y14140000D01*
X13094973Y14155000D02*
X13126576Y14155000D01*
X13165423Y14155000D02*
X13197026Y14155000D01*
X13087684Y14170000D02*
X13103268Y14170000D01*
X13188732Y14170000D02*
X13204315Y14170000D01*
X13090000Y14165234D02*
X13090000Y14178538D01*
X13105000Y14134368D02*
X13105000Y14168885D01*
X13120000Y14103501D02*
X13120000Y14159232D01*
X13135000Y14072635D02*
X13135000Y14149578D01*
X13150000Y14058230D02*
X13150000Y14145074D01*
X13165000Y14089097D02*
X13165000Y14154727D01*
X13180000Y14119963D02*
X13180000Y14164380D01*
X13195000Y14150830D02*
X13195000Y14174033D01*
X13210000Y14181696D02*
X13210000Y14183686D01*
X12450000Y11350000D02*
X12550000Y11350000D01*
X12450000Y11550000D02*
X12550000Y11550000D01*
X12450000Y11450000D02*
X12550000Y11450000D01*
X12285000Y11509500D02*
X12389500Y11509500D01*
X12430000Y11550000*
X12450000Y11550000*
X12285000Y11509500D02*
X12285000Y11000000D01*
X14000000Y11000000*
X12550000Y11350000D02*
X12650000Y11350000D01*
X12650000Y11240000*
X13350000Y11240000*
X13350000Y11330000*
X12650000Y11450000D02*
X12650000Y11350000D01*
X12550000Y11550000D02*
X12550000Y11650000D01*
X12550000Y11450000D02*
X12650000Y11450000D01*
X11850000Y11800000D02*
X11850000Y12070000D01*
X12013500Y11850000D02*
X12100000Y11763500D01*
X12285000Y11763500*
X12013500Y11850000D02*
X12013500Y12010000D01*
X12076750Y12073250*
X12550000Y11650000D02*
X12550000Y11700000D01*
X12550000Y11850000D02*
X12550000Y11950000D01*
X12540000Y11763500D02*
X12550000Y11753500D01*
X12550000Y11700000*
X12540000Y11763500D02*
X12815000Y11763500D01*
X12550000Y11750000D02*
X12550000Y11700000D01*
X12550000Y11850000*
X13470000Y11650000D02*
X14000000Y11650000D01*
X14000000Y11000000*
X10600000Y11946000D02*
X11200000Y11946000D01*
X11324000Y12070000*
X11450000Y12070000*
X11870000Y12070000*
X12073500Y12070000*
X12076750Y12073250*
X11850000Y12070000D02*
X11870000Y12070000D01*
X12076750Y12073250D02*
X12100000Y12096500D01*
X12176500Y12096500*
X12180000Y12100000*
X12450000Y12050000D02*
X12460000Y12050000D01*
X12450000Y11950000D02*
X12550000Y11950000D01*
X12320000Y12100000D02*
X12550000Y12100000D01*
X12550000Y12050000*
X12550000Y11950000*
X12650000Y11950000*
X12550000Y12100000D02*
X12550000Y12300000D01*
X12815000Y11890500D02*
X13096358Y11890500D01*
X13098179Y11892321*
X13100000Y12090000D02*
X13400000Y12090000D01*
X13500000Y12190000*
X13500000Y12195000*
X13650000Y12195000*
X13050000Y11900000D02*
X13100000Y11950000D01*
X13100000Y12090000*
X11450000Y12330000D02*
X11850000Y12330000D01*
X11880000Y12300000*
X12550000Y12300000*
X12550000Y12600000*
X13000000Y12130000D02*
X13100000Y12130000D01*
X13100000Y12090000*
X13570000Y12200000D02*
X13645000Y12200000D01*
X13650000Y12195000*
X10600000Y12454000D02*
X10600000Y13450000D01*
X11350000Y14200000*
X10600000Y12454000D02*
X11200000Y12454000D01*
X11346000Y12600000*
X12550000Y12600000*
X12550000Y12800000*
X11850000Y12800000D02*
X11850000Y12330000D01*
X12550000Y12800000D02*
X12550000Y12980000D01*
X12670000Y13100000*
X12700000Y13100000*
X12550000Y12800000D02*
X12900000Y12800000D01*
X13000000Y12900000*
X12900000Y12800000D02*
X13100000Y12800000D01*
X12700000Y13100000D02*
X13000000Y13100000D01*
X12900000Y13000000D02*
X12900000Y12800000D01*
X13000000Y13100000D02*
X13275000Y13300000D01*
X12900000Y13200000D02*
X12900000Y13000000D01*
X13000000Y13300000D02*
X13000000Y12900000D01*
X13100000Y13200000D02*
X13100000Y13000000D01*
X13275000Y13300000D02*
X13275000Y13600000D01*
X13520975Y13134975D02*
X13650000Y13005950D01*
X13650000Y13005000*
X13000000Y13600000D02*
X12900000Y13600000D01*
X12900000Y13400000*
X12800000Y13300000D02*
X12800000Y13500000D01*
X12800000Y13600000*
X12900000Y13600000*
X12900000Y13400000D02*
X12900000Y13200000D01*
X13100000Y13600000D02*
X13100000Y13400000D01*
X13000000Y13500000D02*
X13000000Y13300000D01*
X13100000Y13400000D02*
X13100000Y13200000D01*
X13100000Y13600000D02*
X13000000Y13600000D01*
X13000000Y13500000*
X13275000Y13600000D02*
X13275000Y13700000D01*
X13146000Y14250000D02*
X13146000Y13829000D01*
X13275000Y13700000*
G54D19*
X10445000Y12369142D02*
X10604142Y12210000D01*
X12234142Y12210000*
X12360000Y12084142*
X12360000Y12054142*
X12400000Y12014142*
X12400000Y11510000*
X12700000Y11510000*
X12700000Y11704142*
X12730857Y11735000*
X12730857Y11735000D02*
X12800000Y11735000D01*
X12800000Y11790000*
X12725857Y11790000*
X12725857Y11790000D02*
X12700000Y11815857D01*
X12700000Y11815857D02*
X12700000Y12015857D01*
X12700000Y12015857D02*
X12680000Y12035857D01*
X12680000Y12035857D02*
X12680000Y12304142D01*
X12755857Y12380000*
X12755857Y12380000D02*
X13055857Y12380000D01*
X13055857Y12380000D02*
X13320000Y12644142D01*
X13320000Y14335857*
X13320000Y14335857D02*
X13265857Y14390000D01*
X13265857Y14390000D02*
X12694142Y14390000D01*
X12289142Y13985000*
X11485857Y13985000*
X11485857Y13985000D02*
X11397500Y14073357D01*
X11397500Y14073357D02*
X11397500Y14230000D01*
X11284142Y14230000*
X10445000Y13390857*
X10445000Y13390857D02*
X10445000Y12369142D01*
X13460000Y14325857D02*
X13460000Y12914142D01*
X13504142Y12870000*
X13945857Y12870000*
X13945857Y12870000D02*
X14185000Y13109142D01*
X14185000Y14050857*
X14185000Y14050857D02*
X13845857Y14390000D01*
X13845857Y14390000D02*
X13524142Y14390000D01*
X13460000Y14325857*
X12220000Y11520000D02*
X12220000Y10944142D01*
X12264142Y10900000*
X14125857Y10900000*
X14125857Y10900000D02*
X14185000Y10959142D01*
X14185000Y11655857*
X14185000Y11655857D02*
X14103357Y11737500D01*
X14103357Y11737500D02*
X13484142Y11737500D01*
X13450000Y11703357*
X13450000Y11703357D02*
X13450000Y11644142D01*
X13504142Y11590000*
X13859142Y11590000*
X13940000Y11509142*
X13940000Y11315857*
X13940000Y11315857D02*
X13894142Y11270000D01*
X13545857Y11270000*
X13545857Y11270000D02*
X13535857Y11280000D01*
X13535857Y11280000D02*
X12855857Y11280000D01*
X12855857Y11280000D02*
X12700000Y11435857D01*
X12700000Y11435857D02*
X12700000Y11520000D01*
X12220000Y11520000*
X12290000Y11790000D02*
X12195857Y11790000D01*
X12195857Y11790000D02*
X12170000Y11815857D01*
X12170000Y11815857D02*
X12170000Y11974142D01*
X12200000Y12004142*
X12200000Y12140000*
X10410000Y12140000*
X10410000Y11184142*
X10684142Y10910000*
X12045857Y10910000*
X12045857Y10910000D02*
X12090000Y10954142D01*
X12090000Y11664142*
X12165857Y11740000*
X12165857Y11740000D02*
X12290000Y11740000D01*
X12290000Y11790000*
X12770000Y11920000D02*
X12894142Y11920000D01*
X12955000Y11980857*
X12955000Y11980857D02*
X12955000Y12150000D01*
X13354142Y12150000*
X13494142Y12290000*
X13790000Y12290000*
X13790000Y11914142*
X13745857Y11870000*
X13745857Y11870000D02*
X12770000Y11870000D01*
X12770000Y11920000*
X13304142Y11350000D02*
X13485857Y11350000D01*
X13485857Y11350000D02*
X13600000Y11235857D01*
X13600000Y11235857D02*
X13600000Y11180000D01*
X13210000Y11180000*
X13210000Y11255857*
X13210000Y11255857D02*
X13304142Y11350000D01*
X12622108Y14317966D02*
X13320000Y14317966D01*
X12604108Y14299966D02*
X13320000Y14299966D01*
X12586108Y14281966D02*
X13320000Y14281966D01*
X12568108Y14263966D02*
X13320000Y14263966D01*
X12550108Y14245966D02*
X13320000Y14245966D01*
X12532108Y14227966D02*
X13320000Y14227966D01*
X12514108Y14209966D02*
X13320000Y14209966D01*
X12496108Y14191966D02*
X13320000Y14191966D01*
X12478108Y14173966D02*
X13320000Y14173966D01*
X12460108Y14155966D02*
X13320000Y14155966D01*
X12442108Y14137966D02*
X13320000Y14137966D01*
X12424108Y14119966D02*
X13320000Y14119966D01*
X12406108Y14101966D02*
X13320000Y14101966D01*
X12388108Y14083966D02*
X13320000Y14083966D01*
X12370108Y14065966D02*
X13320000Y14065966D01*
X12352108Y14047966D02*
X13320000Y14047966D01*
X12334108Y14029966D02*
X13320000Y14029966D01*
X12316108Y14011966D02*
X13320000Y14011966D01*
X12298108Y13993966D02*
X13320000Y13993966D01*
X11030108Y13975966D02*
X13320000Y13975966D01*
X11012108Y13957966D02*
X13320000Y13957966D01*
X10994108Y13939966D02*
X13320000Y13939966D01*
X10976108Y13921966D02*
X13320000Y13921966D01*
X10958108Y13903966D02*
X13320000Y13903966D01*
X10940108Y13885966D02*
X13320000Y13885966D01*
X10922108Y13867966D02*
X13320000Y13867966D01*
X10904108Y13849966D02*
X13320000Y13849966D01*
X10886108Y13831966D02*
X13320000Y13831966D01*
X10868108Y13813966D02*
X13320000Y13813966D01*
X10850108Y13795966D02*
X13320000Y13795966D01*
X10832108Y13777966D02*
X13320000Y13777966D01*
X10814108Y13759966D02*
X13320000Y13759966D01*
X10796108Y13741966D02*
X13320000Y13741966D01*
X10778108Y13723966D02*
X13320000Y13723966D01*
X10760108Y13705966D02*
X13320000Y13705966D01*
X10742108Y13687966D02*
X13320000Y13687966D01*
X10724108Y13669966D02*
X13320000Y13669966D01*
X10706108Y13651966D02*
X13320000Y13651966D01*
X10688108Y13633966D02*
X13320000Y13633966D01*
X10670108Y13615966D02*
X13320000Y13615966D01*
X10652108Y13597966D02*
X13320000Y13597966D01*
X10634108Y13579966D02*
X13320000Y13579966D01*
X10616108Y13561966D02*
X13320000Y13561966D01*
X10598108Y13543966D02*
X13320000Y13543966D01*
X10580108Y13525966D02*
X13320000Y13525966D01*
X10562108Y13507966D02*
X13320000Y13507966D01*
X10544108Y13489966D02*
X13320000Y13489966D01*
X10526108Y13471966D02*
X13320000Y13471966D01*
X10508108Y13453966D02*
X13320000Y13453966D01*
X10490108Y13435966D02*
X13320000Y13435966D01*
X10472108Y13417966D02*
X13320000Y13417966D01*
X10454108Y13399966D02*
X13320000Y13399966D01*
X10445000Y13381966D02*
X13320000Y13381966D01*
X10445000Y13363966D02*
X13320000Y13363966D01*
X10445000Y13345966D02*
X13320000Y13345966D01*
X10445000Y13327966D02*
X13320000Y13327966D01*
X10445000Y13309966D02*
X13320000Y13309966D01*
X10445000Y13291966D02*
X13320000Y13291966D01*
X10445000Y13273966D02*
X13320000Y13273966D01*
X10445000Y13255966D02*
X13320000Y13255966D01*
X10445000Y13237966D02*
X13320000Y13237966D01*
X10445000Y13219966D02*
X13320000Y13219966D01*
X10445000Y13201966D02*
X13320000Y13201966D01*
X10445000Y13183966D02*
X13320000Y13183966D01*
X10445000Y13165966D02*
X13320000Y13165966D01*
X10445000Y13147966D02*
X13320000Y13147966D01*
X10445000Y13129966D02*
X13320000Y13129966D01*
X10445000Y13111966D02*
X13320000Y13111966D01*
X10445000Y13093966D02*
X13320000Y13093966D01*
X10445000Y13075966D02*
X13320000Y13075966D01*
X10445000Y13057966D02*
X13320000Y13057966D01*
X10445000Y13039966D02*
X13320000Y13039966D01*
X10445000Y13021966D02*
X13320000Y13021966D01*
X10445000Y13003966D02*
X13320000Y13003966D01*
X10445000Y12985966D02*
X13320000Y12985966D01*
X10445000Y12967966D02*
X13320000Y12967966D01*
X10445000Y12949966D02*
X13320000Y12949966D01*
X10445000Y12931966D02*
X13320000Y12931966D01*
X10445000Y12913966D02*
X13320000Y12913966D01*
X10445000Y12895966D02*
X13320000Y12895966D01*
X10445000Y12877966D02*
X13320000Y12877966D01*
X10445000Y12859966D02*
X13320000Y12859966D01*
X10445000Y12841966D02*
X13320000Y12841966D01*
X10445000Y12823966D02*
X13320000Y12823966D01*
X10445000Y12805966D02*
X13320000Y12805966D01*
X10445000Y12787966D02*
X13320000Y12787966D01*
X10445000Y12769966D02*
X13320000Y12769966D01*
X10445000Y12751966D02*
X13320000Y12751966D01*
X10445000Y12733966D02*
X13320000Y12733966D01*
X10445000Y12715966D02*
X13320000Y12715966D01*
X10445000Y12697966D02*
X13320000Y12697966D01*
X10445000Y12679966D02*
X13320000Y12679966D01*
X10445000Y12661966D02*
X13320000Y12661966D01*
X12640108Y14335966D02*
X13319891Y14335966D01*
X10445000Y12643966D02*
X13319824Y12643966D01*
X12658108Y14353966D02*
X13301891Y14353966D01*
X10445000Y12625966D02*
X13301824Y12625966D01*
X12676108Y14371966D02*
X13283891Y14371966D01*
X10445000Y12607966D02*
X13283824Y12607966D01*
X12694108Y14389966D02*
X13265891Y14389966D01*
X10445000Y12589966D02*
X13265824Y12589966D01*
X10445000Y12571966D02*
X13247824Y12571966D01*
X10445000Y12553966D02*
X13229824Y12553966D01*
X10445000Y12535966D02*
X13211824Y12535966D01*
X10445000Y12517966D02*
X13193824Y12517966D01*
X10445000Y12499966D02*
X13175824Y12499966D01*
X10445000Y12481966D02*
X13157824Y12481966D01*
X10445000Y12463966D02*
X13139824Y12463966D01*
X10445000Y12445966D02*
X13121824Y12445966D01*
X10445000Y12427966D02*
X13103824Y12427966D01*
X10445000Y12409966D02*
X13085824Y12409966D01*
X10445000Y12391966D02*
X13067824Y12391966D01*
X12400000Y11779966D02*
X12800000Y11779966D01*
X12400000Y11761966D02*
X12800000Y11761966D01*
X12400000Y11743966D02*
X12800000Y11743966D01*
X10445000Y12373966D02*
X12749824Y12373966D01*
X10458175Y12355966D02*
X12731824Y12355966D01*
X12400000Y11725966D02*
X12721824Y11725966D01*
X12400000Y11797966D02*
X12717891Y11797966D01*
X10476175Y12337966D02*
X12713824Y12337966D01*
X12400000Y11707966D02*
X12703824Y11707966D01*
X12400000Y12013966D02*
X12700000Y12013966D01*
X12400000Y11995966D02*
X12700000Y11995966D01*
X12400000Y11977966D02*
X12700000Y11977966D01*
X12400000Y11959966D02*
X12700000Y11959966D01*
X12400000Y11941966D02*
X12700000Y11941966D01*
X12400000Y11923966D02*
X12700000Y11923966D01*
X12400000Y11905966D02*
X12700000Y11905966D01*
X12400000Y11887966D02*
X12700000Y11887966D01*
X12400000Y11869966D02*
X12700000Y11869966D01*
X12400000Y11851966D02*
X12700000Y11851966D01*
X12400000Y11833966D02*
X12700000Y11833966D01*
X12400000Y11815966D02*
X12700000Y11815966D01*
X12400000Y11689966D02*
X12700000Y11689966D01*
X12400000Y11671966D02*
X12700000Y11671966D01*
X12400000Y11653966D02*
X12700000Y11653966D01*
X12400000Y11635966D02*
X12700000Y11635966D01*
X12400000Y11617966D02*
X12700000Y11617966D01*
X12400000Y11599966D02*
X12700000Y11599966D01*
X12400000Y11581966D02*
X12700000Y11581966D01*
X12400000Y11563966D02*
X12700000Y11563966D01*
X12400000Y11545966D02*
X12700000Y11545966D01*
X12400000Y11527966D02*
X12700000Y11527966D01*
X10494175Y12319966D02*
X12695824Y12319966D01*
X12382175Y12031966D02*
X12683891Y12031966D01*
X10512175Y12301966D02*
X12680000Y12301966D01*
X10530175Y12283966D02*
X12680000Y12283966D01*
X10548175Y12265966D02*
X12680000Y12265966D01*
X10566175Y12247966D02*
X12680000Y12247966D01*
X10584175Y12229966D02*
X12680000Y12229966D01*
X10602175Y12211966D02*
X12680000Y12211966D01*
X12250175Y12193966D02*
X12680000Y12193966D01*
X12268175Y12175966D02*
X12680000Y12175966D01*
X12286175Y12157966D02*
X12680000Y12157966D01*
X12304175Y12139966D02*
X12680000Y12139966D01*
X12322175Y12121966D02*
X12680000Y12121966D01*
X12340175Y12103966D02*
X12680000Y12103966D01*
X12358175Y12085966D02*
X12680000Y12085966D01*
X12360000Y12067966D02*
X12680000Y12067966D01*
X12364175Y12049966D02*
X12680000Y12049966D01*
X11048108Y13993966D02*
X11476891Y13993966D01*
X11066108Y14011966D02*
X11458891Y14011966D01*
X11084108Y14029966D02*
X11440891Y14029966D01*
X11102108Y14047966D02*
X11422891Y14047966D01*
X11120108Y14065966D02*
X11404891Y14065966D01*
X11282108Y14227966D02*
X11397500Y14227966D01*
X11264108Y14209966D02*
X11397500Y14209966D01*
X11246108Y14191966D02*
X11397500Y14191966D01*
X11228108Y14173966D02*
X11397500Y14173966D01*
X11210108Y14155966D02*
X11397500Y14155966D01*
X11192108Y14137966D02*
X11397500Y14137966D01*
X11174108Y14119966D02*
X11397500Y14119966D01*
X11156108Y14101966D02*
X11397500Y14101966D01*
X11138108Y14083966D02*
X11397500Y14083966D01*
X13460000Y14039966D02*
X14185000Y14039966D01*
X13460000Y14021966D02*
X14185000Y14021966D01*
X13460000Y14003966D02*
X14185000Y14003966D01*
X13460000Y13985966D02*
X14185000Y13985966D01*
X13460000Y13967966D02*
X14185000Y13967966D01*
X13460000Y13949966D02*
X14185000Y13949966D01*
X13460000Y13931966D02*
X14185000Y13931966D01*
X13460000Y13913966D02*
X14185000Y13913966D01*
X13460000Y13895966D02*
X14185000Y13895966D01*
X13460000Y13877966D02*
X14185000Y13877966D01*
X13460000Y13859966D02*
X14185000Y13859966D01*
X13460000Y13841966D02*
X14185000Y13841966D01*
X13460000Y13823966D02*
X14185000Y13823966D01*
X13460000Y13805966D02*
X14185000Y13805966D01*
X13460000Y13787966D02*
X14185000Y13787966D01*
X13460000Y13769966D02*
X14185000Y13769966D01*
X13460000Y13751966D02*
X14185000Y13751966D01*
X13460000Y13733966D02*
X14185000Y13733966D01*
X13460000Y13715966D02*
X14185000Y13715966D01*
X13460000Y13697966D02*
X14185000Y13697966D01*
X13460000Y13679966D02*
X14185000Y13679966D01*
X13460000Y13661966D02*
X14185000Y13661966D01*
X13460000Y13643966D02*
X14185000Y13643966D01*
X13460000Y13625966D02*
X14185000Y13625966D01*
X13460000Y13607966D02*
X14185000Y13607966D01*
X13460000Y13589966D02*
X14185000Y13589966D01*
X13460000Y13571966D02*
X14185000Y13571966D01*
X13460000Y13553966D02*
X14185000Y13553966D01*
X13460000Y13535966D02*
X14185000Y13535966D01*
X13460000Y13517966D02*
X14185000Y13517966D01*
X13460000Y13499966D02*
X14185000Y13499966D01*
X13460000Y13481966D02*
X14185000Y13481966D01*
X13460000Y13463966D02*
X14185000Y13463966D01*
X13460000Y13445966D02*
X14185000Y13445966D01*
X13460000Y13427966D02*
X14185000Y13427966D01*
X13460000Y13409966D02*
X14185000Y13409966D01*
X13460000Y13391966D02*
X14185000Y13391966D01*
X13460000Y13373966D02*
X14185000Y13373966D01*
X13460000Y13355966D02*
X14185000Y13355966D01*
X13460000Y13337966D02*
X14185000Y13337966D01*
X13460000Y13319966D02*
X14185000Y13319966D01*
X13460000Y13301966D02*
X14185000Y13301966D01*
X13460000Y13283966D02*
X14185000Y13283966D01*
X13460000Y13265966D02*
X14185000Y13265966D01*
X13460000Y13247966D02*
X14185000Y13247966D01*
X13460000Y13229966D02*
X14185000Y13229966D01*
X13460000Y13211966D02*
X14185000Y13211966D01*
X13460000Y13193966D02*
X14185000Y13193966D01*
X13460000Y13175966D02*
X14185000Y13175966D01*
X13460000Y13157966D02*
X14185000Y13157966D01*
X13460000Y13139966D02*
X14185000Y13139966D01*
X13460000Y13121966D02*
X14185000Y13121966D01*
X13460000Y13103966D02*
X14179824Y13103966D01*
X13460000Y14057966D02*
X14177891Y14057966D01*
X13460000Y13085966D02*
X14161824Y13085966D01*
X13460000Y14075966D02*
X14159891Y14075966D01*
X13460000Y13067966D02*
X14143824Y13067966D01*
X13460000Y14093966D02*
X14141891Y14093966D01*
X13460000Y13049966D02*
X14125824Y13049966D01*
X13460000Y14111966D02*
X14123891Y14111966D01*
X13460000Y13031966D02*
X14107824Y13031966D01*
X13460000Y14129966D02*
X14105891Y14129966D01*
X13460000Y13013966D02*
X14089824Y13013966D01*
X13460000Y14147966D02*
X14087891Y14147966D01*
X13460000Y12995966D02*
X14071824Y12995966D01*
X13460000Y14165966D02*
X14069891Y14165966D01*
X13460000Y12977966D02*
X14053824Y12977966D01*
X13460000Y14183966D02*
X14051891Y14183966D01*
X13460000Y12959966D02*
X14035824Y12959966D01*
X13460000Y14201966D02*
X14033891Y14201966D01*
X13460000Y12941966D02*
X14017824Y12941966D01*
X13460000Y14219966D02*
X14015891Y14219966D01*
X13460000Y12923966D02*
X13999824Y12923966D01*
X13460000Y14237966D02*
X13997891Y14237966D01*
X13468175Y12905966D02*
X13981824Y12905966D01*
X13460000Y14255966D02*
X13979891Y14255966D01*
X13486175Y12887966D02*
X13963824Y12887966D01*
X13460000Y14273966D02*
X13961891Y14273966D01*
X13460000Y14291966D02*
X13943891Y14291966D01*
X13460000Y14309966D02*
X13925891Y14309966D01*
X13462108Y14327966D02*
X13907891Y14327966D01*
X13480108Y14345966D02*
X13889891Y14345966D01*
X13498108Y14363966D02*
X13871891Y14363966D01*
X13516108Y14381966D02*
X13853891Y14381966D01*
X13456175Y11637966D02*
X14185000Y11637966D01*
X13474175Y11619966D02*
X14185000Y11619966D01*
X13492175Y11601966D02*
X14185000Y11601966D01*
X13865175Y11583966D02*
X14185000Y11583966D01*
X13883175Y11565966D02*
X14185000Y11565966D01*
X13901175Y11547966D02*
X14185000Y11547966D01*
X13919175Y11529966D02*
X14185000Y11529966D01*
X13937175Y11511966D02*
X14185000Y11511966D01*
X13940000Y11493966D02*
X14185000Y11493966D01*
X13940000Y11475966D02*
X14185000Y11475966D01*
X13940000Y11457966D02*
X14185000Y11457966D01*
X13940000Y11439966D02*
X14185000Y11439966D01*
X13940000Y11421966D02*
X14185000Y11421966D01*
X13940000Y11403966D02*
X14185000Y11403966D01*
X13940000Y11385966D02*
X14185000Y11385966D01*
X13940000Y11367966D02*
X14185000Y11367966D01*
X13940000Y11349966D02*
X14185000Y11349966D01*
X13940000Y11331966D02*
X14185000Y11331966D01*
X13938108Y11313966D02*
X14185000Y11313966D01*
X13920108Y11295966D02*
X14185000Y11295966D01*
X13902108Y11277966D02*
X14185000Y11277966D01*
X12220000Y11259966D02*
X14185000Y11259966D01*
X12220000Y11241966D02*
X14185000Y11241966D01*
X12220000Y11223966D02*
X14185000Y11223966D01*
X12220000Y11205966D02*
X14185000Y11205966D01*
X12220000Y11187966D02*
X14185000Y11187966D01*
X12220000Y11169966D02*
X14185000Y11169966D01*
X12220000Y11151966D02*
X14185000Y11151966D01*
X12220000Y11133966D02*
X14185000Y11133966D01*
X12220000Y11115966D02*
X14185000Y11115966D01*
X12220000Y11097966D02*
X14185000Y11097966D01*
X12220000Y11079966D02*
X14185000Y11079966D01*
X12220000Y11061966D02*
X14185000Y11061966D01*
X12220000Y11043966D02*
X14185000Y11043966D01*
X12220000Y11025966D02*
X14185000Y11025966D01*
X12220000Y11007966D02*
X14185000Y11007966D01*
X12220000Y10989966D02*
X14185000Y10989966D01*
X12220000Y10971966D02*
X14185000Y10971966D01*
X13450000Y11655966D02*
X14184891Y11655966D01*
X12220000Y10953966D02*
X14179824Y10953966D01*
X13450000Y11673966D02*
X14166891Y11673966D01*
X12228175Y10935966D02*
X14161824Y10935966D01*
X13450000Y11691966D02*
X14148891Y11691966D01*
X12246175Y10917966D02*
X14143824Y10917966D01*
X13456608Y11709966D02*
X14130891Y11709966D01*
X13474608Y11727966D02*
X14112891Y11727966D01*
X12220000Y11277966D02*
X13537891Y11277966D01*
X12220000Y11295966D02*
X12839891Y11295966D01*
X12220000Y11313966D02*
X12821891Y11313966D01*
X12220000Y11331966D02*
X12803891Y11331966D01*
X12220000Y11349966D02*
X12785891Y11349966D01*
X12220000Y11367966D02*
X12767891Y11367966D01*
X12220000Y11385966D02*
X12749891Y11385966D01*
X12220000Y11403966D02*
X12731891Y11403966D01*
X12220000Y11421966D02*
X12713891Y11421966D01*
X12220000Y11511966D02*
X12700000Y11511966D01*
X12220000Y11493966D02*
X12700000Y11493966D01*
X12220000Y11475966D02*
X12700000Y11475966D01*
X12220000Y11457966D02*
X12700000Y11457966D01*
X12220000Y11439966D02*
X12700000Y11439966D01*
X10410000Y11773966D02*
X12290000Y11773966D01*
X10410000Y11755966D02*
X12290000Y11755966D01*
X10410000Y12133966D02*
X12200000Y12133966D01*
X10410000Y12115966D02*
X12200000Y12115966D01*
X10410000Y12097966D02*
X12200000Y12097966D01*
X10410000Y12079966D02*
X12200000Y12079966D01*
X10410000Y12061966D02*
X12200000Y12061966D01*
X10410000Y12043966D02*
X12200000Y12043966D01*
X10410000Y12025966D02*
X12200000Y12025966D01*
X10410000Y12007966D02*
X12200000Y12007966D01*
X10410000Y11791966D02*
X12193891Y11791966D01*
X10410000Y11989966D02*
X12185824Y11989966D01*
X10410000Y11809966D02*
X12175891Y11809966D01*
X10410000Y11971966D02*
X12170000Y11971966D01*
X10410000Y11953966D02*
X12170000Y11953966D01*
X10410000Y11935966D02*
X12170000Y11935966D01*
X10410000Y11917966D02*
X12170000Y11917966D01*
X10410000Y11899966D02*
X12170000Y11899966D01*
X10410000Y11881966D02*
X12170000Y11881966D01*
X10410000Y11863966D02*
X12170000Y11863966D01*
X10410000Y11845966D02*
X12170000Y11845966D01*
X10410000Y11827966D02*
X12170000Y11827966D01*
X10410000Y11737966D02*
X12163824Y11737966D01*
X10410000Y11719966D02*
X12145824Y11719966D01*
X10410000Y11701966D02*
X12127824Y11701966D01*
X10410000Y11683966D02*
X12109824Y11683966D01*
X10410000Y11665966D02*
X12091824Y11665966D01*
X10410000Y11647966D02*
X12090000Y11647966D01*
X10410000Y11629966D02*
X12090000Y11629966D01*
X10410000Y11611966D02*
X12090000Y11611966D01*
X10410000Y11593966D02*
X12090000Y11593966D01*
X10410000Y11575966D02*
X12090000Y11575966D01*
X10410000Y11557966D02*
X12090000Y11557966D01*
X10410000Y11539966D02*
X12090000Y11539966D01*
X10410000Y11521966D02*
X12090000Y11521966D01*
X10410000Y11503966D02*
X12090000Y11503966D01*
X10410000Y11485966D02*
X12090000Y11485966D01*
X10410000Y11467966D02*
X12090000Y11467966D01*
X10410000Y11449966D02*
X12090000Y11449966D01*
X10410000Y11431966D02*
X12090000Y11431966D01*
X10410000Y11413966D02*
X12090000Y11413966D01*
X10410000Y11395966D02*
X12090000Y11395966D01*
X10410000Y11377966D02*
X12090000Y11377966D01*
X10410000Y11359966D02*
X12090000Y11359966D01*
X10410000Y11341966D02*
X12090000Y11341966D01*
X10410000Y11323966D02*
X12090000Y11323966D01*
X10410000Y11305966D02*
X12090000Y11305966D01*
X10410000Y11287966D02*
X12090000Y11287966D01*
X10410000Y11269966D02*
X12090000Y11269966D01*
X10410000Y11251966D02*
X12090000Y11251966D01*
X10410000Y11233966D02*
X12090000Y11233966D01*
X10410000Y11215966D02*
X12090000Y11215966D01*
X10410000Y11197966D02*
X12090000Y11197966D01*
X10414175Y11179966D02*
X12090000Y11179966D01*
X10432175Y11161966D02*
X12090000Y11161966D01*
X10450175Y11143966D02*
X12090000Y11143966D01*
X10468175Y11125966D02*
X12090000Y11125966D01*
X10486175Y11107966D02*
X12090000Y11107966D01*
X10504175Y11089966D02*
X12090000Y11089966D01*
X10522175Y11071966D02*
X12090000Y11071966D01*
X10540175Y11053966D02*
X12090000Y11053966D01*
X10558175Y11035966D02*
X12090000Y11035966D01*
X10576175Y11017966D02*
X12090000Y11017966D01*
X10594175Y10999966D02*
X12090000Y10999966D01*
X10612175Y10981966D02*
X12090000Y10981966D01*
X10630175Y10963966D02*
X12090000Y10963966D01*
X10648175Y10945966D02*
X12081824Y10945966D01*
X10666175Y10927966D02*
X12063824Y10927966D01*
X13488108Y12283966D02*
X13790000Y12283966D01*
X13470108Y12265966D02*
X13790000Y12265966D01*
X13452108Y12247966D02*
X13790000Y12247966D01*
X13434108Y12229966D02*
X13790000Y12229966D01*
X13416108Y12211966D02*
X13790000Y12211966D01*
X13398108Y12193966D02*
X13790000Y12193966D01*
X13380108Y12175966D02*
X13790000Y12175966D01*
X13362108Y12157966D02*
X13790000Y12157966D01*
X12955000Y12139966D02*
X13790000Y12139966D01*
X12955000Y12121966D02*
X13790000Y12121966D01*
X12955000Y12103966D02*
X13790000Y12103966D01*
X12955000Y12085966D02*
X13790000Y12085966D01*
X12955000Y12067966D02*
X13790000Y12067966D01*
X12955000Y12049966D02*
X13790000Y12049966D01*
X12955000Y12031966D02*
X13790000Y12031966D01*
X12955000Y12013966D02*
X13790000Y12013966D01*
X12955000Y11995966D02*
X13790000Y11995966D01*
X12952108Y11977966D02*
X13790000Y11977966D01*
X12934108Y11959966D02*
X13790000Y11959966D01*
X12916108Y11941966D02*
X13790000Y11941966D01*
X12898108Y11923966D02*
X13790000Y11923966D01*
X12770000Y11905966D02*
X13781824Y11905966D01*
X12770000Y11887966D02*
X13763824Y11887966D01*
X13210000Y11233966D02*
X13600000Y11233966D01*
X13210000Y11215966D02*
X13600000Y11215966D01*
X13210000Y11197966D02*
X13600000Y11197966D01*
X13210000Y11251966D02*
X13583891Y11251966D01*
X13224108Y11269966D02*
X13565891Y11269966D01*
X13242108Y11287966D02*
X13547891Y11287966D01*
X13260108Y11305966D02*
X13529891Y11305966D01*
X13278108Y11323966D02*
X13511891Y11323966D01*
X13296108Y11341966D02*
X13493891Y11341966D01*
X8999999Y31600000D02*
G75*
G03X8999999Y31600000I-199999D01*
G01X8550000Y31600000D02*
X9050000Y31600000D01*
X8800000Y31850000D02*
X8800000Y31350000D01*
X39799999Y8400000D02*
G03X39799999Y8400000I-199999D01*
G01X39350000Y8400000D02*
X39850000Y8400000D01*
X39600000Y8650000D02*
X39600000Y8150000D01*
X40399999Y8400000D02*
G03X40399999Y8400000I-199999D01*
G01X39950000Y8400000D02*
X40450000Y8400000D01*
X40200000Y8650000D02*
X40200000Y8150000D01*
G54D20*
X12450000Y11350000D03*
X12450000Y11550000D03*
X12450000Y11450000D03*
X12550000Y11350000D03*
X12650000Y11350000D03*
X12650000Y11450000D03*
X12550000Y11550000D03*
X12550000Y11450000D03*
X12650000Y11550000D03*
X13870000Y11430000D03*
X12165000Y11635000D03*
X12450000Y11650000D03*
X12450000Y11750000D03*
X12450000Y11850000D03*
X12550000Y11750000D03*
X12550000Y11650000D03*
X12550000Y11850000D03*
X12650000Y11650000D03*
X12650000Y11750000D03*
X12650000Y11850000D03*
X12450000Y12050000D03*
X12450000Y11950000D03*
X12290000Y11970000D03*
X12650000Y12050000D03*
X12650000Y11950000D03*
X12550000Y12050000D03*
X12550000Y11950000D03*
X12750000Y12130000D03*
X12900000Y12800000D03*
X13100000Y12800000D03*
X12800000Y12900000D03*
X12900000Y13000000D03*
X13000000Y13100000D03*
X13100000Y13000000D03*
X13000000Y12900000D03*
X12900000Y13200000D03*
X12800000Y13300000D03*
X13000000Y13300000D03*
X13100000Y13200000D03*
X12900000Y13600000D03*
X12800000Y13500000D03*
X12900000Y13400000D03*
X13100000Y13600000D03*
X13000000Y13500000D03*
X13100000Y13400000D03*
X13550000Y13800000D03*
G54D22*
X13654000Y14250000D03*
X13146000Y14250000D03*
X10600000Y12454000D03*
X10600000Y11946000D03*
G54D23*
X13022319Y11477680D02*
X13036718Y11414849D01*
X13036718Y11414849D02*
X13032824Y11467175D01*
X13032824Y11467175D02*
X13085150Y11463281D01*
X13085150Y11463281D02*
X13022319Y11477680D01*
X13030955Y11440000D02*
X13034847Y11440000D01*
X13024079Y11470000D02*
X13055833Y11470000D01*
X13030000Y11444167D02*
X13030000Y11475920D01*
X13060000Y11465152D02*
X13060000Y11469045D01*
X13815000Y11430000D02*
X13859393Y11419393D01*
X13859393Y11419393D02*
X13825000Y11430000D01*
X13859393Y11440606*
X13859393Y11440606D02*
X13815000Y11430000D01*
X13856854Y11440000D02*
X13857426Y11440000D01*
X13840000Y11424026D02*
X13840000Y11425374D01*
X13840000Y11434625D02*
X13840000Y11435973D01*
X12805000Y12130000D02*
X12760606Y12140606D01*
X12760606Y12140606D02*
X12795000Y12130000D01*
X12760606Y12119393*
X12760606Y12119393D02*
X12805000Y12130000D01*
X12795000Y12130000D02*
X12805000Y12130000D01*
X12790000Y12126416D02*
X12790000Y12128458D01*
X12790000Y12131541D02*
X12790000Y12133583D01*
X13649633Y13345321D02*
X13772512Y13341098D01*
X13772512Y13341098D02*
X13710719Y13367534D01*
X13710719Y13367534D02*
X13741098Y13427487D01*
X13741098Y13427487D02*
X13649633Y13345321D01*
X13665973Y13360000D02*
X13728330Y13360000D01*
X13699368Y13390000D02*
X13722103Y13390000D01*
X13732763Y13420000D02*
X13737304Y13420000D01*
X13660000Y13344964D02*
X13660000Y13354634D01*
X13690000Y13343933D02*
X13690000Y13381584D01*
X13720000Y13342902D02*
X13720000Y13363564D01*
X13720000Y13385849D02*
X13720000Y13408534D01*
X13750000Y13341871D02*
X13750000Y13350729D01*
X13550000Y13740000D02*
X13560606Y13789393D01*
X13560606Y13789393D02*
X13550000Y13755000D01*
X13539393Y13789393*
X13539393Y13789393D02*
X13550000Y13740000D01*
X13547852Y13750000D02*
X13552147Y13750000D01*
X13541410Y13780000D02*
X13542290Y13780000D01*
X13557709Y13780000D02*
X13558589Y13780000D01*
X13540000Y13786568D02*
X13540000Y13787426D01*
X13650899Y14094991D02*
X13707055Y14183591D01*
X13707055Y14183591D02*
X13651700Y14135023D01*
X13651700Y14135023D02*
X13598331Y14185765D01*
X13598331Y14185765D02*
X13650899Y14094991D01*
X13642208Y14110000D02*
X13660412Y14110000D01*
X13624834Y14140000D02*
X13646466Y14140000D01*
X13657372Y14140000D02*
X13679427Y14140000D01*
X13607461Y14170000D02*
X13614913Y14170000D01*
X13691565Y14170000D02*
X13698441Y14170000D01*
X13600000Y14182884D02*
X13600000Y14184179D01*
X13630000Y14131080D02*
X13630000Y14155655D01*
X13660000Y14109348D02*
X13660000Y14142305D01*
X13690000Y14156681D02*
X13690000Y14168626D01*
X12870000Y11489250D02*
X12919500Y11509500D01*
X12870000Y11529750*
X12919500Y11509500D02*
X12870000Y11509500D01*
X12815000Y11509500D02*
X12990500Y11509500D01*
X13100000Y11400000*
X13121686Y11461275D02*
X13159750Y11459750D01*
X13159750Y11459750D02*
X13161275Y11421686D01*
X13140598Y11450761D02*
X13159750Y11459750D01*
X13159750Y11459750D02*
X13150761Y11440598D01*
X13320000Y11488000D02*
X13293000Y11470000D01*
X13320000Y11452000*
X13293000Y11470000D02*
X13320000Y11470000D01*
X13100000Y11400000D02*
X13170000Y11470000D01*
X13350000Y11470000*
X13358711Y11473350*
X13358711Y11473350D02*
X13503350Y11473350D01*
X13503350Y11473350D02*
X13530000Y11500000D01*
X13630000Y11500000*
X13630000Y11350000D02*
X13630000Y11500000D01*
X13770000Y11500000D02*
X13770000Y11430000D01*
X13870000Y11430000*
X13770000Y11350000D02*
X13770000Y11430000D01*
X12165000Y11635000D02*
X12165000Y11636500D01*
X12285000Y11636500*
X12870000Y11616250D02*
X12919500Y11636500D01*
X12870000Y11656750*
X12919500Y11636500D02*
X12870000Y11636500D01*
X13010000Y11623000D02*
X12983000Y11650000D01*
X13010000Y11677000*
X12983000Y11650000D02*
X13010000Y11650000D01*
X12815000Y11636500D02*
X12940000Y11636500D01*
X12953500Y11650000*
X13030000Y11650000*
X13190000Y11623000D02*
X13217000Y11650000D01*
X13190000Y11677000*
X13217000Y11650000D02*
X13190000Y11650000D01*
X13310000Y11677000D02*
X13283000Y11650000D01*
X13310000Y11623000*
X13283000Y11650000D02*
X13310000Y11650000D01*
X13170000Y11650000D02*
X13330000Y11650000D01*
X12285000Y11890500D02*
X12290000Y11895500D01*
X12290000Y11970000*
X12850000Y12270000D02*
X13000000Y12270000D01*
X12750000Y12130000D02*
X12850000Y12130000D01*
X13520000Y13095000D02*
X13520975Y13134975D01*
X13525000Y13300000*
X13525000Y13600000D02*
X13525000Y13300000D01*
X13800000Y13400000*
X13520000Y13620000D02*
X13550000Y13650000D01*
X13550000Y13800000*
X13520000Y13620000D02*
X13520000Y13605000D01*
X13525000Y13600000*
X13650000Y13725000*
X13650000Y14050000*
X13654000Y14250000*
G54D36*
X13770000Y11350000D03*
X13630000Y11350000D03*
X13030000Y11650000D03*
X13170000Y11650000D03*
X12180000Y12100000D03*
X12320000Y12100000D03*
X13630000Y11500000D03*
X13770000Y11500000D03*
X13470000Y11650000D03*
X13330000Y11650000D03*
G54D45*
X13525000Y13300000D03*
X13275000Y13300000D03*
X13525000Y13600000D03*
X13275000Y13600000D03*
G54D47*
X12285000Y11890500D03*
X12285000Y11763500D03*
X12285000Y11636500D03*
X12285000Y11509500D03*
X12815000Y11509500D03*
X12815000Y11636500D03*
X12815000Y11763500D03*
X12815000Y11890500D03*
G54D48*
X12550000Y11700000D03*
G54D49*
X10458578Y12087421D02*
X10525000Y11946000D01*
X10511611Y12034388*
X10511611Y12034388D02*
X10600000Y12021000D01*
X10458578Y12087421*
X10523121Y11950000D02*
X10524394Y11950000D01*
X10499637Y12000000D02*
X10516820Y12000000D01*
X10476154Y12050000D02*
X10538254Y12050000D01*
X10500000Y11999229D02*
X10500000Y12067967D01*
X10550000Y12028573D02*
X10550000Y12044483D01*
X10600000Y12021000D02*
X10600000Y12021000D01*
X10280000Y13385000D02*
X10280000Y12266000D01*
X10600000Y11946000*
X11894656Y14247231D02*
X11850000Y14352750D01*
X11805343Y14247231*
X11862551Y14263776D02*
X11850000Y14352750D01*
X11837448Y14263776*
X10280000Y13385000D02*
X11315000Y14420000D01*
X11790000Y14420000*
X11850000Y14360000*
X11850000Y14200000*
G54D58*
X13650000Y12195000D03*
X13650000Y13005000D03*
G74*
X0Y0D02*
M02*
