*
*
G04 PADS Layout (Build Number 2004.211.1) generated Gerber (RS-274-X) file*
G04 PC Version=2.1*
*
%IN "BD9E303EFJ-EVK-001.pcb"*%
*
%MOMM*%
*
%FSLAX35Y35*%
*
*
*
*
G04 PC Standard Apertures*
*
*
G04 Thermal Relief Aperture macro.*
%AMTER*
1,1,$1,0,0*
1,0,$1-$2,0,0*
21,0,$3,$4,0,0,45*
21,0,$3,$4,0,0,135*
%
*
*
G04 Annular Aperture macro.*
%AMANN*
1,1,$1,0,0*
1,0,$2,0,0*
%
*
*
G04 Odd Aperture macro.*
%AMODD*
1,1,$1,0,0*
1,0,$1-0.005,0,0*
%
*
*
G04 PC Custom Aperture Macros*
*
*
*
*
*
*
G04 PC Aperture Table*
*
%ADD024C,0.254*%
*
*
*
*
G04 PC Custom Flashes*
G04 Layer Name BD9E303EFJ-EVK-001.pcb - flashes*
%LPD*%
*
*
G04 PC Circuitry*
G04 Layer Name BD9E303EFJ-EVK-001.pcb - circuitry*
%LPD*%
*
G54D24*
G01X11748400Y14200000D02*
X11951600Y14200000D01*
X11850000Y14098400D02*
X11850000Y14301600D01*
X11498400Y14200000D02*
X11701600Y14200000D01*
X11600000Y14098400D02*
X11600000Y14301600D01*
X11248400Y14200000D02*
X11451600Y14200000D01*
X11350000Y14098400D02*
X11350000Y14301600D01*
X11748400Y11800000D02*
X11951600Y11800000D01*
X11850000Y11698400D02*
X11850000Y11901600D01*
X11748400Y12800000D02*
X11951600Y12800000D01*
X11850000Y12698400D02*
X11850000Y12901600D01*
X10398400Y10398400D02*
X10601600Y10601600D01*
X10398400Y10601600D02*
X10601600Y10398400D01*
X14398400Y10398400D02*
X14601600Y10601600D01*
X14398400Y10601600D02*
X14601600Y10398400D01*
X10398400Y14398400D02*
X10601600Y14601600D01*
X10398400Y14601600D02*
X10601600Y14398400D01*
X14398400Y14398400D02*
X14601600Y14601600D01*
X14398400Y14601600D02*
X14601600Y14398400D01*
X13552400Y14148400D02*
X13755600Y14148400D01*
X13755600Y14351600*
X13552400Y14351600*
X13552400Y14148400*
X13654000Y14250000D02*
X13654000Y14351600D01*
X13044400Y14148400D02*
X13247600Y14148400D01*
X13247600Y14351600*
X13044400Y14351600*
X13044400Y14148400*
X13146000Y14250000D02*
X13146000Y14351600D01*
X10498400Y12352400D02*
X10701600Y12352400D01*
X10701600Y12555600*
X10498400Y12555600*
X10498400Y12352400*
X10600000Y12454000D02*
X10600000Y12555600D01*
X10498400Y11844400D02*
X10701600Y11844400D01*
X10701600Y12047600*
X10498400Y12047600*
X10498400Y11844400*
X10600000Y11946000D02*
X10600000Y12047600D01*
X13698400Y13400000D02*
X13901600Y13400000D01*
X13800000Y13298400D02*
X13800000Y13501600D01*
X12598400Y13100000D02*
X12801600Y13100000D01*
X12700000Y12998400D02*
X12700000Y13201600D01*
X12948400Y11900000D02*
X13151600Y11900000D01*
X13050000Y11798400D02*
X13050000Y12001600D01*
X12998400Y11400000D02*
X13201600Y11400000D01*
X13100000Y11298400D02*
X13100000Y11501600D01*
X12450000Y11248400D02*
X12551600Y11350000D01*
X12450000Y11451600*
X12348400Y11350000*
X12450000Y11248400*
X12450000Y11350000D02*
X12450000Y11451600D01*
X12450000Y11448400D02*
X12551600Y11550000D01*
X12450000Y11651600*
X12348400Y11550000*
X12450000Y11448400*
X12450000Y11550000D02*
X12450000Y11651600D01*
X12450000Y11348400D02*
X12551600Y11450000D01*
X12450000Y11551600*
X12348400Y11450000*
X12450000Y11348400*
X12450000Y11450000D02*
X12450000Y11551600D01*
X12550000Y11248400D02*
X12651600Y11350000D01*
X12550000Y11451600*
X12448400Y11350000*
X12550000Y11248400*
X12550000Y11350000D02*
X12550000Y11451600D01*
X12650000Y11248400D02*
X12751600Y11350000D01*
X12650000Y11451600*
X12548400Y11350000*
X12650000Y11248400*
X12650000Y11350000D02*
X12650000Y11451600D01*
X12650000Y11348400D02*
X12751600Y11450000D01*
X12650000Y11551600*
X12548400Y11450000*
X12650000Y11348400*
X12650000Y11450000D02*
X12650000Y11551600D01*
X12550000Y11448400D02*
X12651600Y11550000D01*
X12550000Y11651600*
X12448400Y11550000*
X12550000Y11448400*
X12550000Y11550000D02*
X12550000Y11651600D01*
X12550000Y11348400D02*
X12651600Y11450000D01*
X12550000Y11551600*
X12448400Y11450000*
X12550000Y11348400*
X12550000Y11450000D02*
X12550000Y11551600D01*
X12650000Y11448400D02*
X12751600Y11550000D01*
X12650000Y11651600*
X12548400Y11550000*
X12650000Y11448400*
X12650000Y11550000D02*
X12650000Y11651600D01*
X13870000Y11328400D02*
X13971600Y11430000D01*
X13870000Y11531600*
X13768400Y11430000*
X13870000Y11328400*
X13870000Y11430000D02*
X13870000Y11531600D01*
X12165000Y11533400D02*
X12266600Y11635000D01*
X12165000Y11736600*
X12063400Y11635000*
X12165000Y11533400*
X12165000Y11635000D02*
X12165000Y11736600D01*
X12450000Y11548400D02*
X12551600Y11650000D01*
X12450000Y11751600*
X12348400Y11650000*
X12450000Y11548400*
X12450000Y11650000D02*
X12450000Y11751600D01*
X12450000Y11648400D02*
X12551600Y11750000D01*
X12450000Y11851600*
X12348400Y11750000*
X12450000Y11648400*
X12450000Y11750000D02*
X12450000Y11851600D01*
X12450000Y11748400D02*
X12551600Y11850000D01*
X12450000Y11951600*
X12348400Y11850000*
X12450000Y11748400*
X12450000Y11850000D02*
X12450000Y11951600D01*
X12550000Y11648400D02*
X12651600Y11750000D01*
X12550000Y11851600*
X12448400Y11750000*
X12550000Y11648400*
X12550000Y11750000D02*
X12550000Y11851600D01*
X12550000Y11548400D02*
X12651600Y11650000D01*
X12550000Y11751600*
X12448400Y11650000*
X12550000Y11548400*
X12550000Y11650000D02*
X12550000Y11751600D01*
X12550000Y11748400D02*
X12651600Y11850000D01*
X12550000Y11951600*
X12448400Y11850000*
X12550000Y11748400*
X12550000Y11850000D02*
X12550000Y11951600D01*
X12650000Y11548400D02*
X12751600Y11650000D01*
X12650000Y11751600*
X12548400Y11650000*
X12650000Y11548400*
X12650000Y11650000D02*
X12650000Y11751600D01*
X12650000Y11648400D02*
X12751600Y11750000D01*
X12650000Y11851600*
X12548400Y11750000*
X12650000Y11648400*
X12650000Y11750000D02*
X12650000Y11851600D01*
X12650000Y11748400D02*
X12751600Y11850000D01*
X12650000Y11951600*
X12548400Y11850000*
X12650000Y11748400*
X12650000Y11850000D02*
X12650000Y11951600D01*
X12450000Y11948400D02*
X12551600Y12050000D01*
X12450000Y12151600*
X12348400Y12050000*
X12450000Y11948400*
X12450000Y12050000D02*
X12450000Y12151600D01*
X12450000Y11848400D02*
X12551600Y11950000D01*
X12450000Y12051600*
X12348400Y11950000*
X12450000Y11848400*
X12450000Y11950000D02*
X12450000Y12051600D01*
X12290000Y11868400D02*
X12391600Y11970000D01*
X12290000Y12071600*
X12188400Y11970000*
X12290000Y11868400*
X12290000Y11970000D02*
X12290000Y12071600D01*
X12650000Y11948400D02*
X12751600Y12050000D01*
X12650000Y12151600*
X12548400Y12050000*
X12650000Y11948400*
X12650000Y12050000D02*
X12650000Y12151600D01*
X12650000Y11848400D02*
X12751600Y11950000D01*
X12650000Y12051600*
X12548400Y11950000*
X12650000Y11848400*
X12650000Y11950000D02*
X12650000Y12051600D01*
X12550000Y11948400D02*
X12651600Y12050000D01*
X12550000Y12151600*
X12448400Y12050000*
X12550000Y11948400*
X12550000Y12050000D02*
X12550000Y12151600D01*
X12550000Y11848400D02*
X12651600Y11950000D01*
X12550000Y12051600*
X12448400Y11950000*
X12550000Y11848400*
X12550000Y11950000D02*
X12550000Y12051600D01*
X12750000Y12028400D02*
X12851600Y12130000D01*
X12750000Y12231600*
X12648400Y12130000*
X12750000Y12028400*
X12750000Y12130000D02*
X12750000Y12231600D01*
X12900000Y12698400D02*
X13001600Y12800000D01*
X12900000Y12901600*
X12798400Y12800000*
X12900000Y12698400*
X12900000Y12800000D02*
X12900000Y12901600D01*
X13100000Y12698400D02*
X13201600Y12800000D01*
X13100000Y12901600*
X12998400Y12800000*
X13100000Y12698400*
X13100000Y12800000D02*
X13100000Y12901600D01*
X12800000Y12798400D02*
X12901600Y12900000D01*
X12800000Y13001600*
X12698400Y12900000*
X12800000Y12798400*
X12800000Y12900000D02*
X12800000Y13001600D01*
X12900000Y12898400D02*
X13001600Y13000000D01*
X12900000Y13101600*
X12798400Y13000000*
X12900000Y12898400*
X12900000Y13000000D02*
X12900000Y13101600D01*
X13000000Y12998400D02*
X13101600Y13100000D01*
X13000000Y13201600*
X12898400Y13100000*
X13000000Y12998400*
X13000000Y13100000D02*
X13000000Y13201600D01*
X13100000Y12898400D02*
X13201600Y13000000D01*
X13100000Y13101600*
X12998400Y13000000*
X13100000Y12898400*
X13100000Y13000000D02*
X13100000Y13101600D01*
X13000000Y12798400D02*
X13101600Y12900000D01*
X13000000Y13001600*
X12898400Y12900000*
X13000000Y12798400*
X13000000Y12900000D02*
X13000000Y13001600D01*
X12900000Y13098400D02*
X13001600Y13200000D01*
X12900000Y13301600*
X12798400Y13200000*
X12900000Y13098400*
X12900000Y13200000D02*
X12900000Y13301600D01*
X12800000Y13198400D02*
X12901600Y13300000D01*
X12800000Y13401600*
X12698400Y13300000*
X12800000Y13198400*
X12800000Y13300000D02*
X12800000Y13401600D01*
X13000000Y13198400D02*
X13101600Y13300000D01*
X13000000Y13401600*
X12898400Y13300000*
X13000000Y13198400*
X13000000Y13300000D02*
X13000000Y13401600D01*
X13100000Y13098400D02*
X13201600Y13200000D01*
X13100000Y13301600*
X12998400Y13200000*
X13100000Y13098400*
X13100000Y13200000D02*
X13100000Y13301600D01*
X12900000Y13498400D02*
X13001600Y13600000D01*
X12900000Y13701600*
X12798400Y13600000*
X12900000Y13498400*
X12900000Y13600000D02*
X12900000Y13701600D01*
X12800000Y13398400D02*
X12901600Y13500000D01*
X12800000Y13601600*
X12698400Y13500000*
X12800000Y13398400*
X12800000Y13500000D02*
X12800000Y13601600D01*
X12900000Y13298400D02*
X13001600Y13400000D01*
X12900000Y13501600*
X12798400Y13400000*
X12900000Y13298400*
X12900000Y13400000D02*
X12900000Y13501600D01*
X13100000Y13498400D02*
X13201600Y13600000D01*
X13100000Y13701600*
X12998400Y13600000*
X13100000Y13498400*
X13100000Y13600000D02*
X13100000Y13701600D01*
X13000000Y13398400D02*
X13101600Y13500000D01*
X13000000Y13601600*
X12898400Y13500000*
X13000000Y13398400*
X13000000Y13500000D02*
X13000000Y13601600D01*
X13100000Y13298400D02*
X13201600Y13400000D01*
X13100000Y13501600*
X12998400Y13400000*
X13100000Y13298400*
X13100000Y13400000D02*
X13100000Y13501600D01*
X13550000Y13698400D02*
X13651600Y13800000D01*
X13550000Y13901600*
X13448400Y13800000*
X13550000Y13698400*
X13550000Y13800000D02*
X13550000Y13901600D01*
X10000000Y10000000D02*
X35000000Y10000000D01*
X35000000Y30000000*
X10000000Y30000000*
X10000000Y10000000*
X10000000Y8048000D02*
X16096000Y8048000D01*
X10000000Y7438400D02*
X16096000Y7438400D01*
X10000000Y6828800D02*
X16096000Y6828800D01*
X10000000Y6219200D02*
X16096000Y6219200D01*
X10000000Y5609600D02*
X16096000Y5609600D01*
X10000000Y5000000D02*
X16096000Y5000000D01*
X10000000Y8048000D02*
X10000000Y5000000D01*
X12133600Y8048000D02*
X12133600Y5000000D01*
X13048000Y8048000D02*
X13048000Y5000000D01*
X13962400Y8048000D02*
X13962400Y5000000D01*
X14876800Y8048000D02*
X14876800Y5000000D01*
X16096000Y8048000D02*
X16096000Y5000000D01*
X10841663Y7655292D02*
X10822613Y7685057D01*
X10822613Y7685057D02*
X10794038Y7707382D01*
X10755938Y7752030D02*
X11013113Y7752030D01*
X10955963Y7796678D02*
X10955963Y7588319D01*
X10955963Y7588319D02*
X10946438Y7580878D01*
X10946438Y7580878D02*
X10879763Y7595760D01*
X11085850Y7580878D02*
X11123950Y7655292D01*
X11123950Y7707382D02*
X11076325Y7729706D01*
X11095375Y7789237D02*
X11133475Y7766913D01*
X11171575Y7766913D02*
X11343025Y7766913D01*
X11352550Y7692499D02*
X11162050Y7692499D01*
X11257300Y7692499D02*
X11257300Y7796678D01*
X11238250Y7692499D02*
X11190625Y7588319D01*
X11162050Y7580878D02*
X11343025Y7603202D01*
X11352550Y7588319D02*
X11304925Y7655292D01*
X12260888Y7677616D02*
X12308513Y7722264D01*
X12308513Y7722264D02*
X12346613Y7789237D01*
X12308513Y7580878D02*
X12308513Y7722264D01*
X12365663Y7588319D02*
X12365663Y7766913D01*
X12365663Y7766913D02*
X12375188Y7774354D01*
X12375188Y7774354D02*
X12527588Y7774354D01*
X12527588Y7774354D02*
X12537113Y7766913D01*
X12537113Y7766913D02*
X12537113Y7588319D01*
X12537113Y7588319D02*
X12527588Y7580878D01*
X12527588Y7580878D02*
X12375188Y7580878D01*
X12375188Y7580878D02*
X12365663Y7588319D01*
X12403763Y7632967D02*
X12403763Y7670175D01*
X12403763Y7670175D02*
X12413288Y7677616D01*
X12413288Y7677616D02*
X12489488Y7677616D01*
X12489488Y7677616D02*
X12499013Y7670175D01*
X12499013Y7670175D02*
X12499013Y7632967D01*
X12499013Y7632967D02*
X12489488Y7625526D01*
X12489488Y7625526D02*
X12413288Y7625526D01*
X12413288Y7625526D02*
X12403763Y7632967D01*
X12403763Y7722264D02*
X12499013Y7722264D01*
X12451388Y7752030D02*
X12451388Y7677616D01*
X12600325Y7662733D02*
X12733675Y7662733D01*
X12714625Y7662733D02*
X12695575Y7625526D01*
X12695575Y7625526D02*
X12667000Y7603202D01*
X12609850Y7580878*
X12714625Y7580878D02*
X12667000Y7610643D01*
X12667000Y7610643D02*
X12619375Y7625526D01*
X12619375Y7625526D02*
X12619375Y7632967D01*
X12619375Y7632967D02*
X12647950Y7655292D01*
X12667000Y7685057*
X12667000Y7692499D02*
X12667000Y7796678D01*
X12609850Y7796678D02*
X12628900Y7766913D01*
X12695575Y7766913D02*
X12714625Y7796678D01*
X12733675Y7752030D02*
X12609850Y7752030D01*
X12600325Y7699940D02*
X12638425Y7722264D01*
X12638425Y7722264D02*
X12667000Y7752030D01*
X12667000Y7752030D02*
X12724150Y7714823D01*
X12743200Y7714823D02*
X12762250Y7759471D01*
X12762250Y7759471D02*
X12762250Y7796678D01*
X12762250Y7759471D02*
X12886075Y7759471D01*
X12867025Y7759471D02*
X12847975Y7692499D01*
X12800350Y7618085*
X12752725Y7580878*
X12876550Y7580878D02*
X12838450Y7618085D01*
X12790825Y7692499*
X12771775Y7759471*
X13184813Y7588319D02*
X13184813Y7632967D01*
X13184813Y7632967D02*
X13194338Y7640409D01*
X13194338Y7640409D02*
X13261013Y7640409D01*
X13261013Y7640409D02*
X13270538Y7632967D01*
X13270538Y7632967D02*
X13270538Y7588319D01*
X13270538Y7588319D02*
X13261013Y7580878D01*
X13261013Y7580878D02*
X13194338Y7580878D01*
X13194338Y7580878D02*
X13184813Y7588319D01*
X13184813Y7677616D02*
X13270538Y7677616D01*
X13270538Y7714823D02*
X13184813Y7714823D01*
X13175288Y7752030D02*
X13280063Y7752030D01*
X13261013Y7789237D02*
X13194338Y7789237D01*
X13318163Y7789237D02*
X13432463Y7789237D01*
X13432463Y7789237D02*
X13441988Y7781796D01*
X13441988Y7781796D02*
X13441988Y7707382D01*
X13441988Y7707382D02*
X13432463Y7699940D01*
X13432463Y7699940D02*
X13337213Y7699940D01*
X13337213Y7699940D02*
X13327688Y7692499D01*
X13327688Y7692499D02*
X13327688Y7588319D01*
X13327688Y7588319D02*
X13337213Y7580878D01*
X13337213Y7580878D02*
X13441988Y7580878D01*
X13441988Y7580878D02*
X13451513Y7588319D01*
X13451513Y7588319D02*
X13451513Y7632967D01*
X13524250Y7692499D02*
X13790950Y7692499D01*
X13600450Y7692499D02*
X13581400Y7655292D01*
X13590925Y7647850*
X13590925Y7647850D02*
X13743325Y7647850D01*
X13743325Y7647850D02*
X13752850Y7640409D01*
X13743325Y7588319*
X13743325Y7588319D02*
X13733800Y7580878D01*
X13657600Y7588319*
X13571875Y7737147D02*
X13571875Y7781796D01*
X13581400Y7789237*
X13581400Y7789237D02*
X13743325Y7789237D01*
X13743325Y7789237D02*
X13752850Y7781796D01*
X13752850Y7737147*
X13752850Y7737147D02*
X13743325Y7729706D01*
X13581400Y7729706*
X13571875Y7737147*
X14107872Y7790825D02*
X14107872Y7590800D01*
X14107872Y7790825D02*
X14170218Y7790825D01*
X14191000Y7781300*
X14197927Y7771775*
X14204854Y7752725*
X14204854Y7752725D02*
X14204854Y7724150D01*
X14204854Y7724150D02*
X14197927Y7705100D01*
X14191000Y7695575*
X14170218Y7686050*
X14107872Y7686050*
X14267200Y7790825D02*
X14267200Y7590800D01*
X14350327Y7590800*
X14461163Y7790825D02*
X14461163Y7590800D01*
X14412672Y7790825D02*
X14509654Y7790825D01*
X14572000Y7790825D02*
X14572000Y7590800D01*
X14572000Y7790825D02*
X14620490Y7790825D01*
X14620490Y7790825D02*
X14641272Y7781300D01*
X14641272Y7781300D02*
X14655127Y7762250D01*
X14662054Y7743200*
X14662054Y7743200D02*
X14668981Y7714625D01*
X14668981Y7714625D02*
X14668981Y7667000D01*
X14668981Y7667000D02*
X14662054Y7638425D01*
X14662054Y7638425D02*
X14655127Y7619375D01*
X14641272Y7600325*
X14641272Y7600325D02*
X14620490Y7590800D01*
X14620490Y7590800D02*
X14572000Y7590800D01*
X15295900Y7790825D02*
X15295900Y7590800D01*
X15247409Y7790825D02*
X15344390Y7790825D01*
X15448300Y7790825D02*
X15434445Y7781300D01*
X15434445Y7781300D02*
X15420590Y7762250D01*
X15420590Y7762250D02*
X15413663Y7743200D01*
X15413663Y7743200D02*
X15406736Y7714625D01*
X15406736Y7667000*
X15413663Y7638425*
X15413663Y7638425D02*
X15420590Y7619375D01*
X15420590Y7619375D02*
X15434445Y7600325D01*
X15434445Y7600325D02*
X15448300Y7590800D01*
X15476009Y7590800*
X15489863Y7600325*
X15489863Y7600325D02*
X15503718Y7619375D01*
X15510645Y7638425*
X15510645Y7638425D02*
X15517572Y7667000D01*
X15517572Y7667000D02*
X15517572Y7714625D01*
X15517572Y7714625D02*
X15510645Y7743200D01*
X15510645Y7743200D02*
X15503718Y7762250D01*
X15489863Y7781300*
X15489863Y7781300D02*
X15476009Y7790825D01*
X15448300Y7790825*
X15579918Y7790825D02*
X15579918Y7590800D01*
X15663045Y7590800*
X10152400Y7143125D02*
X10166254Y7152650D01*
X10166254Y7152650D02*
X10187036Y7181225D01*
X10187036Y6981200*
X12604654Y7114550D02*
X12597727Y7085975D01*
X12583872Y7066925*
X12583872Y7066925D02*
X12563090Y7057400D01*
X12563090Y7057400D02*
X12556163Y7057400D01*
X12556163Y7057400D02*
X12535381Y7066925D01*
X12535381Y7066925D02*
X12521527Y7085975D01*
X12514600Y7114550*
X12514600Y7124075*
X12521527Y7152650*
X12535381Y7171700*
X12535381Y7171700D02*
X12556163Y7181225D01*
X12556163Y7181225D02*
X12563090Y7181225D01*
X12563090Y7181225D02*
X12583872Y7171700D01*
X12583872Y7171700D02*
X12597727Y7152650D01*
X12604654Y7114550*
X12604654Y7114550D02*
X12604654Y7066925D01*
X12604654Y7066925D02*
X12597727Y7019300D01*
X12583872Y6990725*
X12583872Y6990725D02*
X12563090Y6981200D01*
X12563090Y6981200D02*
X12549236Y6981200D01*
X12528454Y6990725*
X12528454Y6990725D02*
X12521527Y7009775D01*
X13352800Y7133600D02*
X13657600Y7133600D01*
X13505200Y6981200D02*
X13505200Y7286000D01*
X14177145Y7181225D02*
X14232563Y7085975D01*
X14232563Y7085975D02*
X14232563Y6981200D01*
X14287981Y7181225D02*
X14232563Y7085975D01*
X14350327Y7181225D02*
X14350327Y6981200D01*
X14350327Y7181225D02*
X14440381Y7181225D01*
X14350327Y7085975D02*
X14405745Y7085975D01*
X14350327Y6981200D02*
X14440381Y6981200D01*
X14599709Y7152650D02*
X14585854Y7171700D01*
X14585854Y7171700D02*
X14565072Y7181225D01*
X14565072Y7181225D02*
X14537363Y7181225D01*
X14537363Y7181225D02*
X14516581Y7171700D01*
X14516581Y7171700D02*
X14502727Y7152650D01*
X14502727Y7133600*
X14509654Y7114550*
X14509654Y7114550D02*
X14516581Y7105025D01*
X14516581Y7105025D02*
X14530436Y7095500D01*
X14572000Y7076450*
X14585854Y7066925*
X14585854Y7066925D02*
X14592781Y7057400D01*
X14592781Y7057400D02*
X14599709Y7038350D01*
X14599709Y7009775*
X14585854Y6990725*
X14585854Y6990725D02*
X14565072Y6981200D01*
X14565072Y6981200D02*
X14537363Y6981200D01*
X14537363Y6981200D02*
X14516581Y6990725D01*
X14516581Y6990725D02*
X14502727Y7009775D01*
X15070763Y7152650D02*
X15070763Y6981200D01*
X15008418Y7066925D02*
X15133109Y7066925D01*
X15320145Y7219325D02*
X15195454Y6914525D01*
X15382490Y7066925D02*
X15507181Y7066925D01*
X15611090Y7181225D02*
X15590309Y7171700D01*
X15576454Y7143125*
X15576454Y7143125D02*
X15569527Y7095500D01*
X15569527Y7066925*
X15576454Y7019300*
X15576454Y7019300D02*
X15590309Y6990725D01*
X15611090Y6981200*
X15611090Y6981200D02*
X15624945Y6981200D01*
X15624945Y6981200D02*
X15645727Y6990725D01*
X15659581Y7019300*
X15659581Y7019300D02*
X15666509Y7066925D01*
X15666509Y7095500*
X15659581Y7143125*
X15659581Y7143125D02*
X15645727Y7171700D01*
X15624945Y7181225*
X15624945Y7181225D02*
X15611090Y7181225D01*
X15735781Y7000250D02*
X15728854Y6990725D01*
X15728854Y6990725D02*
X15735781Y6981200D01*
X15735781Y6981200D02*
X15742709Y6990725D01*
X15735781Y7000250*
X15846618Y7181225D02*
X15825836Y7171700D01*
X15811981Y7143125*
X15811981Y7143125D02*
X15805054Y7095500D01*
X15805054Y7095500D02*
X15805054Y7066925D01*
X15805054Y7066925D02*
X15811981Y7019300D01*
X15811981Y7019300D02*
X15825836Y6990725D01*
X15846618Y6981200*
X15860472Y6981200*
X15860472Y6981200D02*
X15881254Y6990725D01*
X15881254Y6990725D02*
X15895109Y7019300D01*
X15902036Y7066925*
X15902036Y7095500*
X15895109Y7143125*
X15881254Y7171700*
X15881254Y7171700D02*
X15860472Y7181225D01*
X15860472Y7181225D02*
X15846618Y7181225D01*
X10166254Y6571625D02*
X10242454Y6571625D01*
X10242454Y6571625D02*
X10200890Y6495425D01*
X10200890Y6495425D02*
X10221672Y6495425D01*
X10221672Y6495425D02*
X10235527Y6485900D01*
X10242454Y6476375*
X10242454Y6476375D02*
X10249381Y6447800D01*
X10249381Y6447800D02*
X10249381Y6428750D01*
X10249381Y6428750D02*
X10242454Y6400175D01*
X10242454Y6400175D02*
X10228600Y6381125D01*
X10207818Y6371600*
X10187036Y6371600*
X10166254Y6381125*
X10166254Y6381125D02*
X10159327Y6390650D01*
X10152400Y6409700*
X10318654Y6390650D02*
X10311727Y6381125D01*
X10318654Y6371600*
X10318654Y6371600D02*
X10325581Y6381125D01*
X10325581Y6381125D02*
X10318654Y6390650D01*
X10401781Y6571625D02*
X10477981Y6571625D01*
X10477981Y6571625D02*
X10436418Y6495425D01*
X10457200Y6495425*
X10471054Y6485900*
X10471054Y6485900D02*
X10477981Y6476375D01*
X10477981Y6476375D02*
X10484909Y6447800D01*
X10484909Y6428750*
X10477981Y6400175*
X10477981Y6400175D02*
X10464127Y6381125D01*
X10443345Y6371600*
X10422563Y6371600*
X10422563Y6371600D02*
X10401781Y6381125D01*
X10401781Y6381125D02*
X10394854Y6390650D01*
X10394854Y6390650D02*
X10387927Y6409700D01*
X12576945Y6571625D02*
X12507672Y6438275D01*
X12507672Y6438275D02*
X12611581Y6438275D01*
X12576945Y6571625D02*
X12576945Y6371600D01*
X13352800Y6371600D02*
X13657600Y6676400D01*
X13352800Y6676400D02*
X13657600Y6371600D01*
X14253345Y6571625D02*
X14253345Y6371600D01*
X14253345Y6571625D02*
X14350327Y6371600D01*
X14350327Y6571625D02*
X14350327Y6371600D01*
X14454236Y6571625D02*
X14440381Y6562100D01*
X14440381Y6562100D02*
X14426527Y6543050D01*
X14419600Y6524000*
X14412672Y6495425*
X14412672Y6495425D02*
X14412672Y6447800D01*
X14412672Y6447800D02*
X14419600Y6419225D01*
X14426527Y6400175*
X14440381Y6381125*
X14440381Y6381125D02*
X14454236Y6371600D01*
X14481945Y6371600*
X14481945Y6371600D02*
X14495800Y6381125D01*
X14509654Y6400175*
X14509654Y6400175D02*
X14516581Y6419225D01*
X14516581Y6419225D02*
X14523509Y6447800D01*
X14523509Y6495425*
X14516581Y6524000*
X14516581Y6524000D02*
X14509654Y6543050D01*
X14509654Y6543050D02*
X14495800Y6562100D01*
X14481945Y6571625*
X14481945Y6571625D02*
X14454236Y6571625D01*
X15070763Y6543050D02*
X15070763Y6371600D01*
X15008418Y6457325D02*
X15133109Y6457325D01*
X15320145Y6609725D02*
X15195454Y6304925D01*
X15382490Y6457325D02*
X15507181Y6457325D01*
X15611090Y6571625D02*
X15590309Y6562100D01*
X15576454Y6533525*
X15576454Y6533525D02*
X15569527Y6485900D01*
X15569527Y6457325*
X15576454Y6409700*
X15576454Y6409700D02*
X15590309Y6381125D01*
X15611090Y6371600*
X15611090Y6371600D02*
X15624945Y6371600D01*
X15624945Y6371600D02*
X15645727Y6381125D01*
X15659581Y6409700*
X15659581Y6409700D02*
X15666509Y6457325D01*
X15666509Y6485900*
X15659581Y6533525*
X15659581Y6533525D02*
X15645727Y6562100D01*
X15624945Y6571625*
X15624945Y6571625D02*
X15611090Y6571625D01*
X15735781Y6390650D02*
X15728854Y6381125D01*
X15728854Y6381125D02*
X15735781Y6371600D01*
X15735781Y6371600D02*
X15742709Y6381125D01*
X15735781Y6390650*
X15846618Y6571625D02*
X15825836Y6562100D01*
X15811981Y6533525*
X15811981Y6533525D02*
X15805054Y6485900D01*
X15805054Y6485900D02*
X15805054Y6457325D01*
X15805054Y6457325D02*
X15811981Y6409700D01*
X15811981Y6409700D02*
X15825836Y6381125D01*
X15846618Y6371600*
X15860472Y6371600*
X15860472Y6371600D02*
X15881254Y6381125D01*
X15881254Y6381125D02*
X15895109Y6409700D01*
X15902036Y6457325*
X15902036Y6485900*
X15895109Y6533525*
X15881254Y6562100*
X15881254Y6562100D02*
X15860472Y6571625D01*
X15860472Y6571625D02*
X15846618Y6571625D01*
X10152400Y5923925D02*
X10166254Y5933450D01*
X10166254Y5933450D02*
X10187036Y5962025D01*
X10187036Y5762000*
X10256309Y5781050D02*
X10249381Y5771525D01*
X10249381Y5771525D02*
X10256309Y5762000D01*
X10263236Y5771525*
X10256309Y5781050*
X10339436Y5962025D02*
X10415636Y5962025D01*
X10374072Y5885825*
X10374072Y5885825D02*
X10394854Y5885825D01*
X10394854Y5885825D02*
X10408709Y5876300D01*
X10415636Y5866775*
X10422563Y5838200*
X10422563Y5838200D02*
X10422563Y5819150D01*
X10422563Y5819150D02*
X10415636Y5790575D01*
X10401781Y5771525*
X10401781Y5771525D02*
X10381000Y5762000D01*
X10360218Y5762000*
X10339436Y5771525*
X10332509Y5781050*
X10325581Y5800100*
X12576945Y5962025D02*
X12507672Y5828675D01*
X12507672Y5828675D02*
X12611581Y5828675D01*
X12576945Y5962025D02*
X12576945Y5762000D01*
X13352800Y5762000D02*
X13657600Y5762000D01*
X13657600Y6066800*
X13352800Y6066800*
X13352800Y5762000*
X13505200Y5914400D02*
X13505200Y6066800D01*
X14177145Y5962025D02*
X14232563Y5866775D01*
X14232563Y5866775D02*
X14232563Y5762000D01*
X14287981Y5962025D02*
X14232563Y5866775D01*
X14350327Y5962025D02*
X14350327Y5762000D01*
X14350327Y5962025D02*
X14440381Y5962025D01*
X14350327Y5866775D02*
X14405745Y5866775D01*
X14350327Y5762000D02*
X14440381Y5762000D01*
X14599709Y5933450D02*
X14585854Y5952500D01*
X14585854Y5952500D02*
X14565072Y5962025D01*
X14565072Y5962025D02*
X14537363Y5962025D01*
X14537363Y5962025D02*
X14516581Y5952500D01*
X14516581Y5952500D02*
X14502727Y5933450D01*
X14502727Y5914400*
X14509654Y5895350*
X14509654Y5895350D02*
X14516581Y5885825D01*
X14516581Y5885825D02*
X14530436Y5876300D01*
X14572000Y5857250*
X14585854Y5847725*
X14585854Y5847725D02*
X14592781Y5838200D01*
X14592781Y5838200D02*
X14599709Y5819150D01*
X14599709Y5790575*
X14585854Y5771525*
X14585854Y5771525D02*
X14565072Y5762000D01*
X14565072Y5762000D02*
X14537363Y5762000D01*
X14537363Y5762000D02*
X14516581Y5771525D01*
X14516581Y5771525D02*
X14502727Y5790575D01*
X15070763Y5933450D02*
X15070763Y5762000D01*
X15008418Y5847725D02*
X15133109Y5847725D01*
X15320145Y6000125D02*
X15195454Y5695325D01*
X15382490Y5847725D02*
X15507181Y5847725D01*
X15611090Y5962025D02*
X15590309Y5952500D01*
X15576454Y5923925*
X15576454Y5923925D02*
X15569527Y5876300D01*
X15569527Y5847725*
X15576454Y5800100*
X15576454Y5800100D02*
X15590309Y5771525D01*
X15611090Y5762000*
X15611090Y5762000D02*
X15624945Y5762000D01*
X15624945Y5762000D02*
X15645727Y5771525D01*
X15659581Y5800100*
X15659581Y5800100D02*
X15666509Y5847725D01*
X15666509Y5876300*
X15659581Y5923925*
X15659581Y5923925D02*
X15645727Y5952500D01*
X15624945Y5962025*
X15624945Y5962025D02*
X15611090Y5962025D01*
X15735781Y5781050D02*
X15728854Y5771525D01*
X15728854Y5771525D02*
X15735781Y5762000D01*
X15735781Y5762000D02*
X15742709Y5771525D01*
X15735781Y5781050*
X15846618Y5962025D02*
X15825836Y5952500D01*
X15811981Y5923925*
X15811981Y5923925D02*
X15805054Y5876300D01*
X15805054Y5876300D02*
X15805054Y5847725D01*
X15805054Y5847725D02*
X15811981Y5800100D01*
X15811981Y5800100D02*
X15825836Y5771525D01*
X15846618Y5762000*
X15860472Y5762000*
X15860472Y5762000D02*
X15881254Y5771525D01*
X15881254Y5771525D02*
X15895109Y5800100D01*
X15902036Y5847725*
X15902036Y5876300*
X15895109Y5923925*
X15881254Y5952500*
X15881254Y5952500D02*
X15860472Y5962025D01*
X15860472Y5962025D02*
X15846618Y5962025D01*
X10193963Y5352425D02*
X10173181Y5342900D01*
X10173181Y5342900D02*
X10159327Y5314325D01*
X10152400Y5266700*
X10152400Y5238125*
X10159327Y5190500*
X10173181Y5161925*
X10173181Y5161925D02*
X10193963Y5152400D01*
X10193963Y5152400D02*
X10207818Y5152400D01*
X10228600Y5161925*
X10242454Y5190500*
X10242454Y5190500D02*
X10249381Y5238125D01*
X10249381Y5238125D02*
X10249381Y5266700D01*
X10249381Y5266700D02*
X10242454Y5314325D01*
X10242454Y5314325D02*
X10228600Y5342900D01*
X10207818Y5352425*
X10193963Y5352425*
X10318654Y5171450D02*
X10311727Y5161925D01*
X10318654Y5152400*
X10318654Y5152400D02*
X10325581Y5161925D01*
X10325581Y5161925D02*
X10318654Y5171450D01*
X10401781Y5352425D02*
X10477981Y5352425D01*
X10477981Y5352425D02*
X10436418Y5276225D01*
X10457200Y5276225*
X10471054Y5266700*
X10471054Y5266700D02*
X10477981Y5257175D01*
X10477981Y5257175D02*
X10484909Y5228600D01*
X10484909Y5209550*
X10477981Y5180975*
X10477981Y5180975D02*
X10464127Y5161925D01*
X10443345Y5152400*
X10422563Y5152400*
X10422563Y5152400D02*
X10401781Y5161925D01*
X10401781Y5161925D02*
X10394854Y5171450D01*
X10394854Y5171450D02*
X10387927Y5190500D01*
X12500745Y5352425D02*
X12431472Y5219075D01*
X12431472Y5219075D02*
X12535381Y5219075D01*
X12500745Y5352425D02*
X12500745Y5152400D01*
X12680854Y5323850D02*
X12673927Y5342900D01*
X12653145Y5352425*
X12639290Y5352425*
X12639290Y5352425D02*
X12618509Y5342900D01*
X12604654Y5314325*
X12604654Y5314325D02*
X12597727Y5266700D01*
X12597727Y5219075*
X12604654Y5180975*
X12604654Y5180975D02*
X12618509Y5161925D01*
X12639290Y5152400*
X12639290Y5152400D02*
X12646218Y5152400D01*
X12667000Y5161925*
X12680854Y5180975*
X12680854Y5180975D02*
X12687781Y5209550D01*
X12687781Y5209550D02*
X12687781Y5219075D01*
X12687781Y5219075D02*
X12680854Y5247650D01*
X12680854Y5247650D02*
X12667000Y5266700D01*
X12646218Y5276225*
X12639290Y5276225*
X12639290Y5276225D02*
X12618509Y5266700D01*
X12604654Y5247650*
X12604654Y5247650D02*
X12597727Y5219075D01*
X13505200Y5152400D02*
X13657600Y5304800D01*
X13505200Y5457200*
X13352800Y5304800*
X13505200Y5152400*
X13505200Y5304800D02*
X13505200Y5457200D01*
X14177145Y5352425D02*
X14232563Y5257175D01*
X14232563Y5257175D02*
X14232563Y5152400D01*
X14287981Y5352425D02*
X14232563Y5257175D01*
X14350327Y5352425D02*
X14350327Y5152400D01*
X14350327Y5352425D02*
X14440381Y5352425D01*
X14350327Y5257175D02*
X14405745Y5257175D01*
X14350327Y5152400D02*
X14440381Y5152400D01*
X14599709Y5323850D02*
X14585854Y5342900D01*
X14585854Y5342900D02*
X14565072Y5352425D01*
X14565072Y5352425D02*
X14537363Y5352425D01*
X14537363Y5352425D02*
X14516581Y5342900D01*
X14516581Y5342900D02*
X14502727Y5323850D01*
X14502727Y5304800*
X14509654Y5285750*
X14509654Y5285750D02*
X14516581Y5276225D01*
X14516581Y5276225D02*
X14530436Y5266700D01*
X14572000Y5247650*
X14585854Y5238125*
X14585854Y5238125D02*
X14592781Y5228600D01*
X14592781Y5228600D02*
X14599709Y5209550D01*
X14599709Y5180975*
X14585854Y5161925*
X14585854Y5161925D02*
X14565072Y5152400D01*
X14565072Y5152400D02*
X14537363Y5152400D01*
X14537363Y5152400D02*
X14516581Y5161925D01*
X14516581Y5161925D02*
X14502727Y5180975D01*
X15070763Y5323850D02*
X15070763Y5152400D01*
X15008418Y5238125D02*
X15133109Y5238125D01*
X15320145Y5390525D02*
X15195454Y5085725D01*
X15382490Y5238125D02*
X15507181Y5238125D01*
X15611090Y5352425D02*
X15590309Y5342900D01*
X15576454Y5314325*
X15576454Y5314325D02*
X15569527Y5266700D01*
X15569527Y5238125*
X15576454Y5190500*
X15576454Y5190500D02*
X15590309Y5161925D01*
X15611090Y5152400*
X15611090Y5152400D02*
X15624945Y5152400D01*
X15624945Y5152400D02*
X15645727Y5161925D01*
X15659581Y5190500*
X15659581Y5190500D02*
X15666509Y5238125D01*
X15666509Y5266700*
X15659581Y5314325*
X15659581Y5314325D02*
X15645727Y5342900D01*
X15624945Y5352425*
X15624945Y5352425D02*
X15611090Y5352425D01*
X15735781Y5171450D02*
X15728854Y5161925D01*
X15728854Y5161925D02*
X15735781Y5152400D01*
X15735781Y5152400D02*
X15742709Y5161925D01*
X15735781Y5171450*
X15846618Y5352425D02*
X15825836Y5342900D01*
X15811981Y5314325*
X15811981Y5314325D02*
X15805054Y5266700D01*
X15805054Y5266700D02*
X15805054Y5238125D01*
X15805054Y5238125D02*
X15811981Y5190500D01*
X15811981Y5190500D02*
X15825836Y5161925D01*
X15846618Y5152400*
X15860472Y5152400*
X15860472Y5152400D02*
X15881254Y5161925D01*
X15881254Y5161925D02*
X15895109Y5190500D01*
X15902036Y5238125*
X15902036Y5266700*
X15895109Y5314325*
X15881254Y5342900*
X15881254Y5342900D02*
X15860472Y5352425D01*
X15860472Y5352425D02*
X15846618Y5352425D01*
X0Y0D02*
M02*
