*
*
G04 PADS Layout (Build Number 2004.211.1) generated Gerber (RS-274-X) file*
G04 PC Version=2.1*
*
%IN "BD9E303EFJ-EVK-001.pcb"*%
*
%MOMM*%
*
%FSLAX35Y35*%
*
*
*
*
G04 PC Standard Apertures*
*
*
G04 Thermal Relief Aperture macro.*
%AMTER*
1,1,$1,0,0*
1,0,$1-$2,0,0*
21,0,$3,$4,0,0,45*
21,0,$3,$4,0,0,135*
%
*
*
G04 Annular Aperture macro.*
%AMANN*
1,1,$1,0,0*
1,0,$2,0,0*
%
*
*
G04 Odd Aperture macro.*
%AMODD*
1,1,$1,0,0*
1,0,$1-0.005,0,0*
%
*
*
G04 PC Custom Aperture Macros*
*
*
*
*
*
*
G04 PC Aperture Table*
*
%ADD019C,0.2*%
%ADD026R,1X0.8*%
%ADD028R,2.7X1.5*%
%ADD029C,1.9*%
%ADD031C,1.7*%
%ADD032C,3.4*%
%ADD033C,2.1*%
%ADD042R,0.8X1*%
%ADD052R,1.3X1.8*%
%ADD054R,1.5X0.85*%
%ADD055R,3.3X5*%
%ADD059R,3.3X2.6*%
*
*
*
*
G04 PC Custom Flashes*
G04 Layer Name BD9E303EFJ-EVK-001.pcb - flashes*
%LPD*%
*
*
G04 PC Circuitry*
G04 Layer Name BD9E303EFJ-EVK-001.pcb - circuitry*
%LPD*%
*
G54D19*
G01X8999999Y31600000D02*
G75*
G03X8999999Y31600000I-199999D01*
G01X8550000Y31600000D02*
X9050000Y31600000D01*
X8800000Y31850000D02*
X8800000Y31350000D01*
X39799999Y8400000D02*
G03X39799999Y8400000I-199999D01*
G01X39350000Y8400000D02*
X39850000Y8400000D01*
X39600000Y8650000D02*
X39600000Y8150000D01*
X40399999Y8400000D02*
G03X40399999Y8400000I-199999D01*
G01X39950000Y8400000D02*
X40450000Y8400000D01*
X40200000Y8650000D02*
X40200000Y8150000D01*
G54D26*
X13350000Y11330000D03*
X13350000Y11470000D03*
X13000000Y12270000D03*
X13000000Y12130000D03*
X12850000Y12130000D03*
X12850000Y12270000D03*
G54D28*
X11850000Y12070000D03*
X11850000Y12330000D03*
X11450000Y12070000D03*
X11450000Y12330000D03*
G54D29*
X11850000Y14200000D03*
X11600000Y14200000D03*
X11350000Y14200000D03*
G54D31*
X11850000Y11800000D03*
X11850000Y12800000D03*
X13800000Y13400000D03*
X12700000Y13100000D03*
X13050000Y11900000D03*
X13100000Y11400000D03*
G54D32*
X10500000Y10500000D03*
X14500000Y10500000D03*
X10500000Y14500000D03*
X14500000Y14500000D03*
G54D33*
X13654000Y14250000D03*
X13146000Y14250000D03*
X10600000Y12454000D03*
X10600000Y11946000D03*
G54D42*
X13770000Y11350000D03*
X13630000Y11350000D03*
X13030000Y11650000D03*
X13170000Y11650000D03*
X12180000Y12100000D03*
X12320000Y12100000D03*
X13630000Y11500000D03*
X13770000Y11500000D03*
X13470000Y11650000D03*
X13330000Y11650000D03*
G54D52*
X13525000Y13300000D03*
X13275000Y13300000D03*
X13525000Y13600000D03*
X13275000Y13600000D03*
G54D54*
X12285000Y11890500D03*
X12285000Y11763500D03*
X12285000Y11636500D03*
X12285000Y11509500D03*
X12815000Y11509500D03*
X12815000Y11636500D03*
X12815000Y11763500D03*
X12815000Y11890500D03*
G54D55*
X12550000Y11700000D03*
G54D59*
X13650000Y12195000D03*
X13650000Y13005000D03*
G74*
X0Y0D02*
M02*
