*
*
G04 PADS Layout (Build Number 2004.211.1) generated Gerber (RS-274-X) file*
G04 PC Version=2.1*
*
%IN "BD9E303EFJ-EVK-001.pcb"*%
*
%MOMM*%
*
%FSLAX35Y35*%
*
*
*
*
G04 PC Standard Apertures*
*
*
G04 Thermal Relief Aperture macro.*
%AMTER*
1,1,$1,0,0*
1,0,$1-$2,0,0*
21,0,$3,$4,0,0,45*
21,0,$3,$4,0,0,135*
%
*
*
G04 Annular Aperture macro.*
%AMANN*
1,1,$1,0,0*
1,0,$2,0,0*
%
*
*
G04 Odd Aperture macro.*
%AMODD*
1,1,$1,0,0*
1,0,$1-0.005,0,0*
%
*
*
G04 PC Custom Aperture Macros*
*
*
*
*
*
*
G04 PC Aperture Table*
*
%ADD018C,0.15*%
%ADD019C,0.2*%
%ADD023C,0.3*%
%ADD024C,0.254*%
*
*
*
*
G04 PC Custom Flashes*
G04 Layer Name BD9E303EFJ-EVK-001.pcb - flashes*
%LPD*%
*
*
G04 PC Circuitry*
G04 Layer Name BD9E303EFJ-EVK-001.pcb - circuitry*
%LPD*%
*
G54D18*
G01X12370000Y11941000D02*
X12389000Y11960000D01*
X12730000Y11960000*
X12730000Y11440000*
X12370000Y11440000*
X12370000Y11941000*
X13481136Y11375000D02*
X13477727Y11384375D01*
X13470909Y11393750*
X13464090Y11398437*
X13464090Y11398437D02*
X13450454Y11398437D01*
X13450454Y11398437D02*
X13443636Y11393750D01*
X13436818Y11384375*
X13433409Y11375000*
X13430000Y11360937*
X13430000Y11360937D02*
X13430000Y11337500D01*
X13433409Y11323437*
X13433409Y11323437D02*
X13436818Y11314062D01*
X13436818Y11314062D02*
X13443636Y11304687D01*
X13443636Y11304687D02*
X13450454Y11300000D01*
X13450454Y11300000D02*
X13464090Y11300000D01*
X13464090Y11300000D02*
X13470909Y11304687D01*
X13470909Y11304687D02*
X13477727Y11314062D01*
X13477727Y11314062D02*
X13481136Y11323437D01*
X13528863Y11398437D02*
X13518636Y11393750D01*
X13515227Y11384375*
X13515227Y11375000*
X13518636Y11365625*
X13525454Y11360937*
X13525454Y11360937D02*
X13539090Y11356250D01*
X13539090Y11356250D02*
X13549318Y11351562D01*
X13549318Y11351562D02*
X13556136Y11342187D01*
X13556136Y11342187D02*
X13559545Y11332812D01*
X13559545Y11332812D02*
X13559545Y11318750D01*
X13556136Y11309375*
X13552727Y11304687*
X13552727Y11304687D02*
X13542500Y11300000D01*
X13528863Y11300000*
X13528863Y11300000D02*
X13518636Y11304687D01*
X13518636Y11304687D02*
X13515227Y11309375D01*
X13511818Y11318750*
X13511818Y11332812*
X13511818Y11332812D02*
X13515227Y11342187D01*
X13515227Y11342187D02*
X13522045Y11351562D01*
X13522045Y11351562D02*
X13532272Y11356250D01*
X13532272Y11356250D02*
X13545909Y11360937D01*
X13545909Y11360937D02*
X13552727Y11365625D01*
X13556136Y11375000*
X13556136Y11384375*
X13552727Y11393750*
X13542500Y11398437*
X13542500Y11398437D02*
X13528863Y11398437D01*
X11537727Y14764375D02*
X11530909Y14773750D01*
X11520681Y14778437*
X11520681Y14778437D02*
X11507045Y14778437D01*
X11507045Y14778437D02*
X11496818Y14773750D01*
X11490000Y14764375*
X11490000Y14755000*
X11493409Y14745625*
X11496818Y14740937*
X11496818Y14740937D02*
X11503636Y14736250D01*
X11524090Y14726875*
X11524090Y14726875D02*
X11530909Y14722187D01*
X11530909Y14722187D02*
X11534318Y14717500D01*
X11537727Y14708125*
X11537727Y14694062*
X11537727Y14694062D02*
X11530909Y14684687D01*
X11530909Y14684687D02*
X11520681Y14680000D01*
X11520681Y14680000D02*
X11507045Y14680000D01*
X11496818Y14684687*
X11496818Y14684687D02*
X11490000Y14694062D01*
X11568409Y14778437D02*
X11585454Y14680000D01*
X11602500Y14778437D02*
X11585454Y14680000D01*
X11602500Y14778437D02*
X11619545Y14680000D01*
X11636590Y14778437D02*
X11619545Y14680000D01*
X11667272Y14759687D02*
X11674090Y14764375D01*
X11674090Y14764375D02*
X11684318Y14778437D01*
X11684318Y14778437D02*
X11684318Y14680000D01*
X13301562Y11120000D02*
X13400000Y11120000D01*
X13301562Y11120000D02*
X13301562Y11150681D01*
X13301562Y11150681D02*
X13306250Y11160909D01*
X13310937Y11164318*
X13310937Y11164318D02*
X13320312Y11167727D01*
X13320312Y11167727D02*
X13329687Y11167727D01*
X13329687Y11167727D02*
X13339062Y11164318D01*
X13339062Y11164318D02*
X13343750Y11160909D01*
X13348437Y11150681*
X13348437Y11150681D02*
X13348437Y11120000D01*
X13348437Y11143863D02*
X13400000Y11167727D01*
X13325000Y11201818D02*
X13320312Y11201818D01*
X13320312Y11201818D02*
X13310937Y11205227D01*
X13310937Y11205227D02*
X13306250Y11208636D01*
X13301562Y11215454*
X13301562Y11215454D02*
X13301562Y11229090D01*
X13301562Y11229090D02*
X13306250Y11235909D01*
X13310937Y11239318*
X13310937Y11239318D02*
X13320312Y11242727D01*
X13320312Y11242727D02*
X13329687Y11242727D01*
X13329687Y11242727D02*
X13339062Y11239318D01*
X13339062Y11239318D02*
X13353125Y11232500D01*
X13400000Y11198409*
X13400000Y11246136*
X11783863Y11558437D02*
X11783863Y11460000D01*
X11760000Y11558437D02*
X11807727Y11558437D01*
X11838409Y11558437D02*
X11838409Y11460000D01*
X11838409Y11558437D02*
X11869090Y11558437D01*
X11869090Y11558437D02*
X11879318Y11553750D01*
X11882727Y11549062*
X11882727Y11549062D02*
X11886136Y11539687D01*
X11886136Y11539687D02*
X11886136Y11525625D01*
X11882727Y11516250*
X11879318Y11511562*
X11879318Y11511562D02*
X11869090Y11506875D01*
X11869090Y11506875D02*
X11838409Y11506875D01*
X11916818Y11539687D02*
X11923636Y11544375D01*
X11933863Y11558437*
X11933863Y11558437D02*
X11933863Y11460000D01*
X11573863Y13098437D02*
X11573863Y13000000D01*
X11550000Y13098437D02*
X11597727Y13098437D01*
X11628409Y13098437D02*
X11628409Y13000000D01*
X11628409Y13098437D02*
X11659090Y13098437D01*
X11659090Y13098437D02*
X11669318Y13093750D01*
X11672727Y13089062*
X11672727Y13089062D02*
X11676136Y13079687D01*
X11676136Y13079687D02*
X11676136Y13065625D01*
X11672727Y13056250*
X11669318Y13051562*
X11669318Y13051562D02*
X11659090Y13046875D01*
X11659090Y13046875D02*
X11628409Y13046875D01*
X11710227Y13075000D02*
X11710227Y13079687D01*
X11710227Y13079687D02*
X11713636Y13089062D01*
X11713636Y13089062D02*
X11717045Y13093750D01*
X11723863Y13098437*
X11723863Y13098437D02*
X11737500Y13098437D01*
X11737500Y13098437D02*
X11744318Y13093750D01*
X11747727Y13089062*
X11747727Y13089062D02*
X11751136Y13079687D01*
X11751136Y13079687D02*
X11751136Y13070312D01*
X11751136Y13070312D02*
X11747727Y13060937D01*
X11747727Y13060937D02*
X11740909Y13046875D01*
X11706818Y13000000*
X11754545Y13000000*
X13281136Y11825000D02*
X13277727Y11834375D01*
X13270909Y11843750*
X13264090Y11848437*
X13264090Y11848437D02*
X13250454Y11848437D01*
X13250454Y11848437D02*
X13243636Y11843750D01*
X13236818Y11834375*
X13233409Y11825000*
X13230000Y11810937*
X13230000Y11810937D02*
X13230000Y11787500D01*
X13233409Y11773437*
X13233409Y11773437D02*
X13236818Y11764062D01*
X13236818Y11764062D02*
X13243636Y11754687D01*
X13243636Y11754687D02*
X13250454Y11750000D01*
X13250454Y11750000D02*
X13264090Y11750000D01*
X13264090Y11750000D02*
X13270909Y11754687D01*
X13270909Y11754687D02*
X13277727Y11764062D01*
X13277727Y11764062D02*
X13281136Y11773437D01*
X13352727Y11834375D02*
X13349318Y11843750D01*
X13339090Y11848437*
X13339090Y11848437D02*
X13332272Y11848437D01*
X13332272Y11848437D02*
X13322045Y11843750D01*
X13315227Y11829687*
X13315227Y11829687D02*
X13311818Y11806250D01*
X13311818Y11782812*
X13311818Y11782812D02*
X13315227Y11764062D01*
X13315227Y11764062D02*
X13322045Y11754687D01*
X13322045Y11754687D02*
X13332272Y11750000D01*
X13332272Y11750000D02*
X13335681Y11750000D01*
X13335681Y11750000D02*
X13345909Y11754687D01*
X13345909Y11754687D02*
X13352727Y11764062D01*
X13352727Y11764062D02*
X13356136Y11778125D01*
X13356136Y11782812*
X13356136Y11782812D02*
X13352727Y11796875D01*
X13345909Y11806250*
X13335681Y11810937*
X13335681Y11810937D02*
X13332272Y11810937D01*
X13332272Y11810937D02*
X13322045Y11806250D01*
X13315227Y11796875*
X13311818Y11782812*
X12241136Y12265000D02*
X12237727Y12274375D01*
X12230909Y12283750*
X12224090Y12288437*
X12224090Y12288437D02*
X12210454Y12288437D01*
X12210454Y12288437D02*
X12203636Y12283750D01*
X12196818Y12274375*
X12193409Y12265000*
X12190000Y12250937*
X12190000Y12250937D02*
X12190000Y12227500D01*
X12193409Y12213437*
X12193409Y12213437D02*
X12196818Y12204062D01*
X12196818Y12204062D02*
X12203636Y12194687D01*
X12203636Y12194687D02*
X12210454Y12190000D01*
X12210454Y12190000D02*
X12224090Y12190000D01*
X12224090Y12190000D02*
X12230909Y12194687D01*
X12230909Y12194687D02*
X12237727Y12204062D01*
X12237727Y12204062D02*
X12241136Y12213437D01*
X12271818Y12269687D02*
X12278636Y12274375D01*
X12288863Y12288437*
X12288863Y12288437D02*
X12288863Y12190000D01*
X13101136Y13325000D02*
X13097727Y13334375D01*
X13090909Y13343750*
X13084090Y13348437*
X13084090Y13348437D02*
X13070454Y13348437D01*
X13070454Y13348437D02*
X13063636Y13343750D01*
X13056818Y13334375*
X13053409Y13325000*
X13050000Y13310937*
X13050000Y13310937D02*
X13050000Y13287500D01*
X13053409Y13273437*
X13053409Y13273437D02*
X13056818Y13264062D01*
X13056818Y13264062D02*
X13063636Y13254687D01*
X13063636Y13254687D02*
X13070454Y13250000D01*
X13070454Y13250000D02*
X13084090Y13250000D01*
X13084090Y13250000D02*
X13090909Y13254687D01*
X13090909Y13254687D02*
X13097727Y13264062D01*
X13097727Y13264062D02*
X13101136Y13273437D01*
X13165909Y13348437D02*
X13131818Y13282812D01*
X13131818Y13282812D02*
X13182954Y13282812D01*
X13165909Y13348437D02*
X13165909Y13250000D01*
X13101136Y13724999D02*
X13097727Y13734374D01*
X13097727Y13734374D02*
X13090909Y13743749D01*
X13090909Y13743749D02*
X13084090Y13748437D01*
X13084090Y13748437D02*
X13070454Y13748437D01*
X13070454Y13748437D02*
X13063636Y13743749D01*
X13063636Y13743749D02*
X13056818Y13734374D01*
X13056818Y13734374D02*
X13053409Y13724999D01*
X13053409Y13724999D02*
X13050000Y13710937D01*
X13050000Y13687499*
X13050000Y13687499D02*
X13053409Y13673437D01*
X13056818Y13664062*
X13063636Y13654687*
X13070454Y13649999*
X13070454Y13649999D02*
X13084090Y13649999D01*
X13084090Y13649999D02*
X13090909Y13654687D01*
X13097727Y13664062*
X13101136Y13673437*
X13176136Y13748437D02*
X13142045Y13748437D01*
X13138636Y13706249*
X13138636Y13706249D02*
X13142045Y13710937D01*
X13152272Y13715624*
X13152272Y13715624D02*
X13162500Y13715624D01*
X13162500Y13715624D02*
X13172727Y13710937D01*
X13179545Y13701562*
X13182954Y13687499*
X13182954Y13687499D02*
X13179545Y13678124D01*
X13179545Y13678124D02*
X13176136Y13664062D01*
X13169318Y13654687*
X13159090Y13649999*
X13159090Y13649999D02*
X13148863Y13649999D01*
X13148863Y13649999D02*
X13138636Y13654687D01*
X13135227Y13659374*
X13135227Y13659374D02*
X13131818Y13668749D01*
X13384090Y14748437D02*
X13384090Y14673437D01*
X13384090Y14673437D02*
X13380681Y14659375D01*
X13380681Y14659375D02*
X13377272Y14654687D01*
X13377272Y14654687D02*
X13370454Y14650000D01*
X13370454Y14650000D02*
X13363636Y14650000D01*
X13356818Y14654687*
X13356818Y14654687D02*
X13353409Y14659375D01*
X13350000Y14673437*
X13350000Y14673437D02*
X13350000Y14682812D01*
X13418181Y14725000D02*
X13418181Y14729687D01*
X13418181Y14729687D02*
X13421590Y14739062D01*
X13421590Y14739062D02*
X13425000Y14743750D01*
X13431818Y14748437*
X13431818Y14748437D02*
X13445454Y14748437D01*
X13445454Y14748437D02*
X13452272Y14743750D01*
X13452272Y14743750D02*
X13455681Y14739062D01*
X13455681Y14739062D02*
X13459090Y14729687D01*
X13459090Y14729687D02*
X13459090Y14720312D01*
X13459090Y14720312D02*
X13455681Y14710937D01*
X13455681Y14710937D02*
X13448863Y14696875D01*
X13448863Y14696875D02*
X13414772Y14650000D01*
X13414772Y14650000D02*
X13462500Y14650000D01*
X11149090Y12253437D02*
X11149090Y12178437D01*
X11149090Y12178437D02*
X11145681Y12164375D01*
X11145681Y12164375D02*
X11142272Y12159687D01*
X11142272Y12159687D02*
X11135454Y12155000D01*
X11135454Y12155000D02*
X11128636Y12155000D01*
X11121818Y12159687*
X11121818Y12159687D02*
X11118409Y12164375D01*
X11115000Y12178437*
X11115000Y12178437D02*
X11115000Y12187812D01*
X11179772Y12234687D02*
X11186590Y12239375D01*
X11186590Y12239375D02*
X11196818Y12253437D01*
X11196818Y12253437D02*
X11196818Y12155000D01*
X13440000Y11558437D02*
X13440000Y11460000D01*
X13440000Y11558437D02*
X13470681Y11558437D01*
X13470681Y11558437D02*
X13480909Y11553750D01*
X13484318Y11549062*
X13484318Y11549062D02*
X13487727Y11539687D01*
X13487727Y11539687D02*
X13487727Y11530312D01*
X13487727Y11530312D02*
X13484318Y11520937D01*
X13484318Y11520937D02*
X13480909Y11516250D01*
X13470681Y11511562*
X13470681Y11511562D02*
X13440000Y11511562D01*
X13463863Y11511562D02*
X13487727Y11460000D01*
X13518409Y11539687D02*
X13525227Y11544375D01*
X13535454Y11558437*
X13535454Y11558437D02*
X13535454Y11460000D01*
X13419999Y11848437D02*
X13419999Y11750000D01*
X13419999Y11848437D02*
X13450681Y11848437D01*
X13450681Y11848437D02*
X13460909Y11843750D01*
X13464318Y11839062*
X13464318Y11839062D02*
X13467727Y11829687D01*
X13467727Y11829687D02*
X13467727Y11820312D01*
X13467727Y11820312D02*
X13464318Y11810937D01*
X13464318Y11810937D02*
X13460909Y11806250D01*
X13450681Y11801562*
X13450681Y11801562D02*
X13419999Y11801562D01*
X13443863Y11801562D02*
X13467727Y11750000D01*
X13505227Y11848437D02*
X13542727Y11848437D01*
X13542727Y11848437D02*
X13522272Y11810937D01*
X13522272Y11810937D02*
X13532499Y11810937D01*
X13532499Y11810937D02*
X13539318Y11806250D01*
X13542727Y11801562*
X13542727Y11801562D02*
X13546136Y11787500D01*
X13546136Y11778125*
X13542727Y11764062*
X13542727Y11764062D02*
X13535909Y11754687D01*
X13535909Y11754687D02*
X13525681Y11750000D01*
X13525681Y11750000D02*
X13515454Y11750000D01*
X13515454Y11750000D02*
X13505227Y11754687D01*
X13505227Y11754687D02*
X13501818Y11759375D01*
X13498409Y11768750*
X11824999Y12471136D02*
X11815624Y12467727D01*
X11815624Y12467727D02*
X11806249Y12460909D01*
X11806249Y12460909D02*
X11801562Y12454090D01*
X11801562Y12454090D02*
X11801562Y12440454D01*
X11801562Y12440454D02*
X11806249Y12433636D01*
X11806249Y12433636D02*
X11815624Y12426818D01*
X11815624Y12426818D02*
X11824999Y12423409D01*
X11824999Y12423409D02*
X11839062Y12420000D01*
X11862499Y12420000*
X11862499Y12420000D02*
X11876562Y12423409D01*
X11885937Y12426818*
X11895312Y12433636*
X11899999Y12440454*
X11899999Y12440454D02*
X11899999Y12454090D01*
X11899999Y12454090D02*
X11895312Y12460909D01*
X11885937Y12467727*
X11876562Y12471136*
X11824999Y12505227D02*
X11820312Y12505227D01*
X11810937Y12508636*
X11806249Y12512045*
X11806249Y12512045D02*
X11801562Y12518863D01*
X11801562Y12518863D02*
X11801562Y12532500D01*
X11806249Y12539318*
X11806249Y12539318D02*
X11810937Y12542727D01*
X11820312Y12546136*
X11829687Y12546136*
X11839062Y12542727*
X11853124Y12535909*
X11853124Y12535909D02*
X11899999Y12501818D01*
X11899999Y12501818D02*
X11899999Y12549545D01*
X11434999Y12471136D02*
X11425624Y12467727D01*
X11425624Y12467727D02*
X11416249Y12460909D01*
X11416249Y12460909D02*
X11411562Y12454090D01*
X11411562Y12454090D02*
X11411562Y12440454D01*
X11411562Y12440454D02*
X11416249Y12433636D01*
X11416249Y12433636D02*
X11425624Y12426818D01*
X11425624Y12426818D02*
X11434999Y12423409D01*
X11434999Y12423409D02*
X11449062Y12420000D01*
X11472499Y12420000*
X11472499Y12420000D02*
X11486562Y12423409D01*
X11495937Y12426818*
X11505312Y12433636*
X11509999Y12440454*
X11509999Y12440454D02*
X11509999Y12454090D01*
X11509999Y12454090D02*
X11505312Y12460909D01*
X11495937Y12467727*
X11486562Y12471136*
X11411562Y12508636D02*
X11411562Y12546136D01*
X11449062Y12525681*
X11449062Y12525681D02*
X11449062Y12535909D01*
X11453749Y12542727*
X11453749Y12542727D02*
X11458437Y12546136D01*
X11472499Y12549545*
X11472499Y12549545D02*
X11481874Y12549545D01*
X11481874Y12549545D02*
X11495937Y12546136D01*
X11505312Y12539318*
X11509999Y12529090*
X11509999Y12529090D02*
X11509999Y12518863D01*
X11509999Y12518863D02*
X11505312Y12508636D01*
X11500624Y12505227*
X11500624Y12505227D02*
X11491249Y12501818D01*
X12965000Y12411136D02*
X12955625Y12407727D01*
X12946250Y12400909*
X12941562Y12394090*
X12941562Y12394090D02*
X12941562Y12380454D01*
X12941562Y12380454D02*
X12946250Y12373636D01*
X12955625Y12366818*
X12965000Y12363409*
X12979062Y12360000*
X12979062Y12360000D02*
X13002500Y12360000D01*
X13016562Y12363409*
X13016562Y12363409D02*
X13025937Y12366818D01*
X13025937Y12366818D02*
X13035312Y12373636D01*
X13035312Y12373636D02*
X13040000Y12380454D01*
X13040000Y12380454D02*
X13040000Y12394090D01*
X13040000Y12394090D02*
X13035312Y12400909D01*
X13035312Y12400909D02*
X13025937Y12407727D01*
X13025937Y12407727D02*
X13016562Y12411136D01*
X12941562Y12489545D02*
X13040000Y12455454D01*
X12941562Y12441818D02*
X12941562Y12489545D01*
X13713863Y13698437D02*
X13713863Y13600000D01*
X13690000Y13698437D02*
X13737727Y13698437D01*
X13768409Y13698437D02*
X13768409Y13600000D01*
X13768409Y13698437D02*
X13799090Y13698437D01*
X13799090Y13698437D02*
X13809318Y13693750D01*
X13812727Y13689062*
X13812727Y13689062D02*
X13816136Y13679687D01*
X13816136Y13679687D02*
X13816136Y13665625D01*
X13812727Y13656250*
X13809318Y13651562*
X13809318Y13651562D02*
X13799090Y13646875D01*
X13799090Y13646875D02*
X13768409Y13646875D01*
X13853636Y13698437D02*
X13891136Y13698437D01*
X13891136Y13698437D02*
X13870681Y13660937D01*
X13870681Y13660937D02*
X13880909Y13660937D01*
X13880909Y13660937D02*
X13887727Y13656250D01*
X13891136Y13651562*
X13891136Y13651562D02*
X13894545Y13637500D01*
X13894545Y13628125*
X13891136Y13614062*
X13891136Y13614062D02*
X13884318Y13604687D01*
X13884318Y13604687D02*
X13874090Y13600000D01*
X13874090Y13600000D02*
X13863863Y13600000D01*
X13863863Y13600000D02*
X13853636Y13604687D01*
X13853636Y13604687D02*
X13850227Y13609375D01*
X13846818Y13618750*
X12303863Y13198437D02*
X12303863Y13100000D01*
X12280000Y13198437D02*
X12327727Y13198437D01*
X12358409Y13198437D02*
X12358409Y13100000D01*
X12358409Y13198437D02*
X12389090Y13198437D01*
X12389090Y13198437D02*
X12399318Y13193750D01*
X12402727Y13189062*
X12402727Y13189062D02*
X12406136Y13179687D01*
X12406136Y13179687D02*
X12406136Y13165625D01*
X12402727Y13156250*
X12399318Y13151562*
X12399318Y13151562D02*
X12389090Y13146875D01*
X12389090Y13146875D02*
X12358409Y13146875D01*
X12470909Y13198437D02*
X12436818Y13132812D01*
X12436818Y13132812D02*
X12487954Y13132812D01*
X12470909Y13198437D02*
X12470909Y13100000D01*
X12480000Y12188437D02*
X12480000Y12118125D01*
X12483409Y12104062*
X12483409Y12104062D02*
X12490227Y12094687D01*
X12490227Y12094687D02*
X12500454Y12090000D01*
X12500454Y12090000D02*
X12507272Y12090000D01*
X12507272Y12090000D02*
X12517500Y12094687D01*
X12517500Y12094687D02*
X12524318Y12104062D01*
X12524318Y12104062D02*
X12527727Y12118125D01*
X12527727Y12188437*
X12558409Y12169687D02*
X12565227Y12174375D01*
X12575454Y12188437*
X12575454Y12188437D02*
X12575454Y12090000D01*
X12801562Y12370000D02*
X12899999Y12370000D01*
X12801562Y12370000D02*
X12801562Y12400681D01*
X12801562Y12400681D02*
X12806249Y12410909D01*
X12806249Y12410909D02*
X12810937Y12414318D01*
X12820312Y12417727*
X12829687Y12417727*
X12839062Y12414318*
X12843749Y12410909*
X12843749Y12410909D02*
X12848437Y12400681D01*
X12848437Y12400681D02*
X12848437Y12370000D01*
X12848437Y12393863D02*
X12899999Y12417727D01*
X12801562Y12482500D02*
X12867187Y12448409D01*
X12867187Y12499545*
X12801562Y12482500D02*
X12899999Y12482500D01*
X13273863Y11998437D02*
X13273863Y11900000D01*
X13250000Y11998437D02*
X13297727Y11998437D01*
X13328409Y11998437D02*
X13328409Y11900000D01*
X13328409Y11998437D02*
X13359090Y11998437D01*
X13359090Y11998437D02*
X13369318Y11993750D01*
X13372727Y11989062*
X13372727Y11989062D02*
X13376136Y11979687D01*
X13376136Y11979687D02*
X13376136Y11965625D01*
X13372727Y11956250*
X13369318Y11951562*
X13369318Y11951562D02*
X13359090Y11946875D01*
X13359090Y11946875D02*
X13328409Y11946875D01*
X13451136Y11998437D02*
X13417045Y11998437D01*
X13417045Y11998437D02*
X13413636Y11956250D01*
X13417045Y11960937*
X13417045Y11960937D02*
X13427272Y11965625D01*
X13427272Y11965625D02*
X13437500Y11965625D01*
X13447727Y11960937*
X13447727Y11960937D02*
X13454545Y11951562D01*
X13454545Y11951562D02*
X13457954Y11937500D01*
X13457954Y11937500D02*
X13454545Y11928125D01*
X13451136Y11914062*
X13451136Y11914062D02*
X13444318Y11904687D01*
X13444318Y11904687D02*
X13434090Y11900000D01*
X13434090Y11900000D02*
X13423863Y11900000D01*
X13423863Y11900000D02*
X13413636Y11904687D01*
X13413636Y11904687D02*
X13410227Y11909375D01*
X13406818Y11918750*
X12793863Y11248437D02*
X12793863Y11150000D01*
X12770000Y11248437D02*
X12817727Y11248437D01*
X12848409Y11248437D02*
X12848409Y11150000D01*
X12848409Y11248437D02*
X12879090Y11248437D01*
X12879090Y11248437D02*
X12889318Y11243750D01*
X12892727Y11239062*
X12892727Y11239062D02*
X12896136Y11229687D01*
X12896136Y11229687D02*
X12896136Y11215625D01*
X12892727Y11206250*
X12889318Y11201562*
X12889318Y11201562D02*
X12879090Y11196875D01*
X12879090Y11196875D02*
X12848409Y11196875D01*
X12967727Y11234375D02*
X12964318Y11243750D01*
X12954090Y11248437*
X12954090Y11248437D02*
X12947272Y11248437D01*
X12947272Y11248437D02*
X12937045Y11243750D01*
X12930227Y11229687*
X12930227Y11229687D02*
X12926818Y11206250D01*
X12926818Y11182812*
X12926818Y11182812D02*
X12930227Y11164062D01*
X12930227Y11164062D02*
X12937045Y11154687D01*
X12937045Y11154687D02*
X12947272Y11150000D01*
X12947272Y11150000D02*
X12950681Y11150000D01*
X12950681Y11150000D02*
X12960909Y11154687D01*
X12960909Y11154687D02*
X12967727Y11164062D01*
X12967727Y11164062D02*
X12971136Y11178125D01*
X12971136Y11182812*
X12971136Y11182812D02*
X12967727Y11196875D01*
X12960909Y11206250*
X12950681Y11210937*
X12950681Y11210937D02*
X12947272Y11210937D01*
X12947272Y11210937D02*
X12937045Y11206250D01*
X12930227Y11196875*
X12926818Y11182812*
X14210000Y12738437D02*
X14210000Y12640000D01*
X14250909Y12640000*
X14281590Y12719687D02*
X14288409Y12724375D01*
X14298636Y12738437*
X14298636Y12738437D02*
X14298636Y12640000D01*
X11507500Y10792500D02*
X14002500Y10792500D01*
X14002500Y10317500*
X11507500Y10317500*
X11507500Y10792500*
X11507500Y10789966D02*
X14002500Y10789966D01*
X11507500Y10776466D02*
X14002500Y10776466D01*
X11507500Y10762966D02*
X14002500Y10762966D01*
X11507500Y10749466D02*
X14002500Y10749466D01*
X11507500Y10735966D02*
X14002500Y10735966D01*
X11507500Y10722466D02*
X14002500Y10722466D01*
X11507500Y10708966D02*
X14002500Y10708966D01*
X11507500Y10695466D02*
X14002500Y10695466D01*
X11507500Y10681966D02*
X14002500Y10681966D01*
X11507500Y10668466D02*
X14002500Y10668466D01*
X11507500Y10654966D02*
X14002500Y10654966D01*
X11507500Y10641466D02*
X14002500Y10641466D01*
X11507500Y10627966D02*
X14002500Y10627966D01*
X11507500Y10614466D02*
X14002500Y10614466D01*
X11507500Y10600966D02*
X14002500Y10600966D01*
X11507500Y10587466D02*
X14002500Y10587466D01*
X11507500Y10573966D02*
X14002500Y10573966D01*
X11507500Y10560466D02*
X14002500Y10560466D01*
X11507500Y10546966D02*
X14002500Y10546966D01*
X11507500Y10533466D02*
X14002500Y10533466D01*
X11507500Y10519966D02*
X14002500Y10519966D01*
X11507500Y10506466D02*
X14002500Y10506466D01*
X11507500Y10492966D02*
X14002500Y10492966D01*
X11507500Y10479466D02*
X14002500Y10479466D01*
X11507500Y10465966D02*
X14002500Y10465966D01*
X11507500Y10452466D02*
X14002500Y10452466D01*
X11507500Y10438966D02*
X14002500Y10438966D01*
X11507500Y10425466D02*
X14002500Y10425466D01*
X11507500Y10411966D02*
X14002500Y10411966D01*
X11507500Y10398466D02*
X14002500Y10398466D01*
X11507500Y10384966D02*
X14002500Y10384966D01*
X11507500Y10371466D02*
X14002500Y10371466D01*
X11507500Y10357966D02*
X14002500Y10357966D01*
X11507500Y10344466D02*
X14002500Y10344466D01*
X11507500Y10330966D02*
X14002500Y10330966D01*
G54D19*
X13820000Y11410000D02*
X13820000Y11290000D01*
X13580000Y11290000*
X13580000Y11410000*
X13820000Y11410000*
X13410000Y11280000D02*
X13290000Y11280000D01*
X13290000Y11520000*
X13410000Y11520000*
X13410000Y11280000*
X12020000Y11800000D02*
G75*
G03X12020000Y11800000I-170000D01*
G01X12020000Y12800000D02*
G03X12020000Y12800000I-170000D01*
G01X12980000Y11590000D02*
X12980000Y11710000D01*
X13220000Y11710000*
X13220000Y11590000*
X12980000Y11590000*
X12130000Y12040000D02*
X12130000Y12160000D01*
X12370000Y12160000*
X12370000Y12040000*
X12130000Y12040000*
X13900000Y14050000D02*
X12900000Y14050000D01*
X12900000Y14450000*
X13900000Y14450000*
X13900000Y14050000*
X13675000Y14000000D02*
G03X13675000Y14000000I-25000D01*
G01X13175000Y14000000D02*
G03X13175000Y14000000I-25000D01*
G01X13908000Y13830000D02*
X12892000Y13830000D01*
X12892000Y14590000*
X13908000Y14590000*
X13908000Y13830000*
X10800000Y12700000D02*
X10800000Y11700000D01*
X10400000Y11700000*
X10400000Y12700000*
X10800000Y12700000*
X10875000Y12450000D02*
G03X10875000Y12450000I-25000D01*
G01X10875000Y11950000D02*
G03X10875000Y11950000I-25000D01*
G01X11020000Y12708000D02*
X11020000Y11692000D01*
X10260000Y11692000*
X10260000Y12708000*
X11020000Y12708000*
X13580000Y11440000D02*
X13580000Y11560000D01*
X13820000Y11560000*
X13820000Y11440000*
X13580000Y11440000*
X13520000Y11710000D02*
X13520000Y11590000D01*
X13280000Y11590000*
X13280000Y11710000*
X13520000Y11710000*
X12940000Y12320000D02*
X13060000Y12320000D01*
X13060000Y12080000*
X12940000Y12080000*
X12940000Y12320000*
X13970000Y13400000D02*
G03X13970000Y13400000I-170000D01*
G01X12870000Y13100000D02*
G03X12870000Y13100000I-170000D01*
G01X12910000Y12080000D02*
X12790000Y12080000D01*
X12790000Y12320000*
X12910000Y12320000*
X12910000Y12080000*
X13220000Y11900000D02*
G03X13220000Y11900000I-170000D01*
G01X13270000Y11400000D02*
G03X13270000Y11400000I-170000D01*
G01X11531361Y11020887D02*
X11531361Y11200978D01*
X11631529Y11204170D02*
G03X11531361Y11200978I-15741J-1079277D01*
G01X11679043Y11199889D02*
G03X11631529Y11204170I-43764J-219930D01*
G01X11706732Y11183822D02*
G03X11679043Y11199889I-36831J-31581D01*
G01X11711740Y11171762D02*
G03X11706732Y11183822I-44889J-11568D01*
G01X11710413Y11121494D02*
G03X11711740Y11171762I-112660J28126D01*
G01X11694531Y11105449D02*
G03X11710413Y11121494I-9274J25063D01*
G01X11650060Y11095652D02*
G03X11694531Y11105449I-10341J152782D01*
G01X11650060Y11095652D02*
X11713511Y11021013D01*
X11713511Y11021013D02*
X11671218Y11021013D01*
X11616865Y11086672*
X11613103Y11096155D02*
G03X11616865Y11086673I13279J-218D01*
G01X11613103Y11096155D02*
X11613103Y11104829D01*
X11623575Y11104808*
X11623575Y11104808D02*
G03X11650069Y11107804I227J116661D01*
X11676795Y11131904I-5248J32689*
X11676623Y11169672I-70805J18562*
G01X11676623Y11169672D02*
G03X11659314Y11189013I-31622J-10884D01*
G01X11659314Y11189013D02*
G03X11640707Y11194310I-20732J-37494D01*
G01X11640707Y11194310D02*
G03X11584637Y11193385I-24500J-214515D01*
X11569571Y11173644I4068J-18723*
G01X11569571Y11173644D02*
X11569571Y11020887D01*
X11569571Y11020887D02*
X11531361Y11020887D01*
X11783895Y11167684D02*
G03X11780466Y11145058I68835J-22005D01*
G01X11812216Y11195390D02*
G03X11783895Y11167684I14033J-42671D01*
G01X11846850Y11203192D02*
G03X11812216Y11195390I7036J-112006D01*
G01X11902287Y11203189D02*
G03X11846850Y11203192I-27735J-289833D01*
G01X11938132Y11195393D02*
G03X11902287Y11203189I-42483J-109027D01*
G01X11966481Y11167605D02*
G03X11938132Y11195393I-43037J-15551D01*
G01X11969883Y11145106D02*
G03X11966481Y11167605I-67606J1284D01*
G01X11969883Y11145106D02*
X11969883Y11072652D01*
X11966443Y11052048D02*
G03X11969883Y11072652I-70645J22384D01*
G01X11938159Y11024385D02*
G03X11966443Y11052048I-13690J42289D01*
G01X11902394Y11016583D02*
G03X11938159Y11024385I-5644J111754D01*
G01X11846832Y11016573D02*
G03X11902394Y11016583I27719J344666D01*
G01X11812174Y11024388D02*
G03X11846832Y11016573I44236J115420D01*
G01X11783872Y11052147D02*
G03X11812174Y11024388I42743J15270D01*
G01X11780466Y11072582D02*
G03X11783872Y11052147I67445J741D01*
G01X11780466Y11072582D02*
X11780466Y11078217D01*
X11780466Y11078217D02*
X11817649Y11078217D01*
X11817649Y11078217D02*
X11817649Y11072365D01*
X11817649Y11072366D02*
G03X11820621Y11052378I87561J2803D01*
G01X11820621Y11052378D02*
G03X11836419Y11031518I35783J10687D01*
X11857305Y11024634I26599J45575*
G01X11857305Y11024634D02*
G03X11893468Y11024628I18103J146611D01*
G01X11893468Y11024628D02*
G03X11920157Y11035930I-4926J48799D01*
X11931193Y11054993I-26395J28007*
X11932700Y11072558I-96151J17095*
G01X11932700Y11072558D02*
X11932700Y11145199D01*
G03X11931199Y11162457I-99983J0*
G01X11931199Y11162457D02*
G03X11916525Y11185843I-36034J-6314D01*
X11893162Y11193744I-27677J-43350*
X11858560Y11193737I-17267J-164075*
G01X11858560Y11193737D02*
G03X11834923Y11185524I5250J-53231D01*
G01X11834923Y11185524D02*
G03X11819822Y11162971I21708J-30867D01*
X11817649Y11145214I106138J-21995*
G01X11817649Y11145214D02*
X11817649Y11135335D01*
X11817649Y11135335D02*
X11780466Y11135335D01*
X11780466Y11135335D02*
X11780466Y11145058D01*
X11780466Y11135014D02*
X11817649Y11135014D01*
X11817649Y11135014D02*
X11817649Y11082531D01*
X11817649Y11082531D02*
X11780466Y11082531D01*
X11780466Y11082531D02*
X11780466Y11135014D01*
X12039925Y11200037D02*
X12078482Y11200037D01*
X12078482Y11120205*
X12200621Y11120205*
X12200621Y11120205D02*
X12200622Y11200037D01*
X12239164Y11200037*
X12239164Y11020886*
X12239164Y11020886D02*
X12200622Y11020886D01*
X12200622Y11020886D02*
X12200622Y11105782D01*
X12078482Y11105782*
X12078482Y11020886*
X12078482Y11020886D02*
X12039925Y11020886D01*
X12039925Y11020886D02*
X12039925Y11200037D01*
X12305226Y11200500D02*
X12391649Y11204134D01*
X12472397Y11202942D02*
G03X12391649Y11204134I-52546J-824022D01*
G01X12508519Y11194243D02*
G03X12472397Y11202942I-45417J-109252D01*
G01X12530184Y11166561D02*
G03X12508519Y11194243I-37234J-6821D01*
G01X12531352Y11148676D02*
G03X12530184Y11166561I-111033J1730D01*
G01X12531352Y11148676D02*
X12531352Y11020879D01*
X12531352Y11020879D02*
X12495654Y11020879D01*
X12495654Y11020879D02*
X12495654Y11160485D01*
G03X12466161Y11191605I-29364J1706*
G01X12466161Y11191605D02*
X12451768Y11191923D01*
G03X12435322Y11176519I-1008J-15403*
G01X12435322Y11176519D02*
X12435322Y11020879D01*
X12435322Y11020879D02*
X12399609Y11020879D01*
X12399609Y11020879D02*
X12399609Y11176450D01*
X12399609Y11176450D02*
G03X12384156Y11192020I-15387J181D01*
G01X12384156Y11192020D02*
X12356284Y11191521D01*
X12356284Y11191521D02*
G03X12340940Y11175451I280J-15626D01*
G01X12340940Y11175451D02*
X12340940Y11020879D01*
X12340940Y11020879D02*
X12305226Y11020879D01*
X12305226Y11020879D02*
X12305226Y11200500D01*
X12090000Y11975857D02*
X12090000Y11824142D01*
X12165857Y11900000*
X12165857Y11900000D02*
X12090000Y11975857D01*
X11679098Y11146854D02*
X11713838Y11146854D01*
X11677760Y11164854D02*
X11712867Y11164854D01*
X11675815Y11128854D02*
X11711999Y11128854D01*
X11668223Y11182854D02*
X11707291Y11182854D01*
X11659574Y11110854D02*
X11703360Y11110854D01*
X11656449Y11038854D02*
X11698345Y11038854D01*
X11641549Y11056854D02*
X11683043Y11056854D01*
X11531361Y11200854D02*
X11673883Y11200854D01*
X11626649Y11074854D02*
X11667741Y11074854D01*
X11613463Y11092854D02*
X11652439Y11092854D01*
X11531361Y11182854D02*
X11571384Y11182854D01*
X11531361Y11164854D02*
X11569571Y11164854D01*
X11531361Y11146854D02*
X11569571Y11146854D01*
X11531361Y11128854D02*
X11569571Y11128854D01*
X11531361Y11110854D02*
X11569571Y11110854D01*
X11531361Y11092854D02*
X11569571Y11092854D01*
X11531361Y11074854D02*
X11569571Y11074854D01*
X11531361Y11056854D02*
X11569571Y11056854D01*
X11531361Y11038854D02*
X11569571Y11038854D01*
X11932700Y11141427D02*
X11969883Y11141427D01*
X11932700Y11123427D02*
X11969883Y11123427D01*
X11932700Y11105427D02*
X11969883Y11105427D01*
X11932700Y11087427D02*
X11969883Y11087427D01*
X11932665Y11069427D02*
X11969735Y11069427D01*
X11931682Y11159427D02*
X11968627Y11159427D01*
X11930157Y11051427D02*
X11966221Y11051427D01*
X11924920Y11177427D02*
X11961526Y11177427D01*
X11916923Y11033427D02*
X11953971Y11033427D01*
X11812307Y11195427D02*
X11938045Y11195427D01*
X11796536Y11033427D02*
X11833684Y11033427D01*
X11788735Y11177427D02*
X11826538Y11177427D01*
X11784137Y11051427D02*
X11820919Y11051427D01*
X11781783Y11159427D02*
X11819148Y11159427D01*
X11780575Y11069427D02*
X11817793Y11069427D01*
X11780466Y11141427D02*
X11817649Y11141427D01*
X11780466Y11118498D02*
X11817649Y11118498D01*
X11780466Y11100498D02*
X11817649Y11100498D01*
X12200622Y11182853D02*
X12239164Y11182853D01*
X12200622Y11164853D02*
X12239164Y11164853D01*
X12200621Y11146853D02*
X12239164Y11146853D01*
X12200621Y11128853D02*
X12239164Y11128853D01*
X12039925Y11110853D02*
X12239164Y11110853D01*
X12200622Y11092853D02*
X12239164Y11092853D01*
X12200622Y11074853D02*
X12239164Y11074853D01*
X12200622Y11056853D02*
X12239164Y11056853D01*
X12200622Y11038853D02*
X12239164Y11038853D01*
X12039925Y11182853D02*
X12078482Y11182853D01*
X12039925Y11164853D02*
X12078482Y11164853D01*
X12039925Y11146853D02*
X12078482Y11146853D01*
X12039925Y11128853D02*
X12078482Y11128853D01*
X12039925Y11092853D02*
X12078482Y11092853D01*
X12039925Y11074853D02*
X12078482Y11074853D01*
X12039925Y11056853D02*
X12078482Y11056853D01*
X12039925Y11038853D02*
X12078482Y11038853D01*
X12495654Y11146846D02*
X12531352Y11146846D01*
X12495654Y11128846D02*
X12531352Y11128846D01*
X12495654Y11110846D02*
X12531352Y11110846D01*
X12495654Y11092846D02*
X12531352Y11092846D01*
X12495654Y11074846D02*
X12531352Y11074846D01*
X12495654Y11056846D02*
X12531352Y11056846D01*
X12495654Y11038846D02*
X12531352Y11038846D01*
X12495583Y11164846D02*
X12530423Y11164846D01*
X12487232Y11182846D02*
X12522934Y11182846D01*
X12313440Y11200846D02*
X12487113Y11200846D01*
X12398299Y11182846D02*
X12436678Y11182846D01*
X12399609Y11164846D02*
X12435322Y11164846D01*
X12399609Y11146846D02*
X12435322Y11146846D01*
X12399609Y11128846D02*
X12435322Y11128846D01*
X12399609Y11110846D02*
X12435322Y11110846D01*
X12399609Y11092846D02*
X12435322Y11092846D01*
X12399609Y11074846D02*
X12435322Y11074846D01*
X12399609Y11056846D02*
X12435322Y11056846D01*
X12399609Y11038846D02*
X12435322Y11038846D01*
X12305226Y11182846D02*
X12342565Y11182846D01*
X12305226Y11164846D02*
X12340940Y11164846D01*
X12305226Y11146846D02*
X12340940Y11146846D01*
X12305226Y11128846D02*
X12340940Y11128846D01*
X12305226Y11110846D02*
X12340940Y11110846D01*
X12305226Y11092846D02*
X12340940Y11092846D01*
X12305226Y11074846D02*
X12340940Y11074846D01*
X12305226Y11056846D02*
X12340940Y11056846D01*
X12305226Y11038846D02*
X12340940Y11038846D01*
X12090000Y11896108D02*
X12161966Y11896108D01*
X12090000Y11914108D02*
X12151749Y11914108D01*
X12090000Y11878108D02*
X12143966Y11878108D01*
X12090000Y11932108D02*
X12133749Y11932108D01*
X12090000Y11860108D02*
X12125966Y11860108D01*
X12090000Y11950108D02*
X12115749Y11950108D01*
X12090000Y11842108D02*
X12107966Y11842108D01*
X12090000Y11968108D02*
X12097749Y11968108D01*
X11659737Y10908553D02*
X11620244Y10908553D01*
X11659737Y10933347D02*
X11636947Y10933347D01*
X11636947Y10933347D02*
G03X11620170Y10916570I0J-16776D01*
G01X11620170Y10916570D02*
X11620170Y10899942D01*
G03X11636910Y10883202I16740J0*
G01X11659737Y10883202*
X11700195Y10885837D02*
X11700195Y10931120D01*
X11700195Y10931120D02*
X11709178Y10931120D01*
X11709178Y10931120D02*
X11724841Y10885837D01*
X11724841Y10885837D02*
X11732042Y10885837D01*
X11732042Y10885837D02*
X11748374Y10931120D01*
X11748374Y10931120D02*
X11757727Y10931120D01*
X11757727Y10931120D02*
X11757727Y10885837D01*
X11800709Y10931417D02*
X11800709Y10886208D01*
X11950968Y10933048D02*
G03X11926828Y10933048I-12069J-41544D01*
G01X11962094Y10921254D02*
G03X11950955Y10933053I-19638J-7381D01*
G01X11962096Y10893558D02*
G03X11962096Y10921247I-70565J13844D01*
G01X11950961Y10883016D02*
G03X11962101Y10893570I-6830J18368D01*
G01X11926834Y10883016D02*
G03X11950961Y10883016I12064J36691D01*
G01X11915922Y10893558D02*
G03X11926842Y10883013I21784J11631D01*
G01X11915910Y10921196D02*
G03X11915934Y10893506I58809J-13793D01*
G01X11926835Y10933050D02*
G03X11915921Y10921244I7709J-18072D01*
G01X12001070Y10885763D02*
X12001070Y10930972D01*
X12009755Y10930972*
X12009755Y10930972D02*
X12040191Y10885763D01*
X12040191Y10885763D02*
X12048357Y10885763D01*
X12048357Y10885763D02*
X12048357Y10930972D01*
X12088667Y10934238D02*
X12116505Y10934238D01*
X12132233Y10917391D02*
G03X12116493Y10934240I-18988J-1962D01*
G01X12132233Y10900242D02*
G03X12132233Y10917391I-37437J8575D01*
G01X12117618Y10883907D02*
G03X12132236Y10900256I-5874J19962D01*
G01X12117619Y10883907D02*
X12088667Y10883907D01*
X12088667Y10934238*
X12288136Y10933422D02*
X12269058Y10933422D01*
X12269051Y10933421D02*
G03X12251992Y10916890I2806J-19962D01*
G01X12251996Y10916911D02*
G03X12251983Y10902467I43384J-7259D01*
G01X12251991Y10902424D02*
G03X12269058Y10883536I21628J2388D01*
G01X12288136Y10883536*
X12323250Y10933422D02*
X12365935Y10933422D01*
X12344184Y10933422D02*
X12344184Y10885837D01*
X12431936Y10934459D02*
G03X12407796Y10934459I-12069J-41544D01*
G01X12443065Y10922658D02*
G03X12431917Y10934466I-19653J-7387D01*
G01X12443065Y10894968D02*
G03X12443065Y10922658I-70569J13845D01*
G01X12431929Y10884427D02*
G03X12443070Y10894980I-6830J18368D01*
G01X12407803Y10884427D02*
G03X12431929Y10884427I12063J36689D01*
G01X12396891Y10894968D02*
G03X12407810Y10884423I21783J11631D01*
G01X12396879Y10922606D02*
G03X12396903Y10894917I58808J-13792D01*
G01X12407824Y10934470D02*
G03X12396894Y10922666I7666J-18061D01*
G01X12479588Y10885540D02*
X12479588Y10933570D01*
X12479588Y10933570D02*
X12512178Y10933570D01*
X12512178Y10906549D02*
G03X12512178Y10933570I0J13510D01*
G01X12512178Y10906549D02*
X12479588Y10906549D01*
X12508095Y10906549D02*
X12522422Y10885540D01*
X11582013Y10933273D02*
X11548756Y10933273D01*
X11548756Y10933273D02*
G03X11548756Y10908256I0J-12507D01*
G01X11548756Y10908256D02*
X11572022Y10908256D01*
X11572022Y10883610D02*
G03X11572022Y10908256I0J12323D01*
G01X11572022Y10883610D02*
X11537472Y10883610D01*
X11878359Y10933199D02*
X11859281Y10933199D01*
G03X11842214Y10916660I2807J-19971*
G01X11842219Y10916689D02*
G03X11842206Y10902243I43389J-7260D01*
G01X11842214Y10902201D02*
G03X11859281Y10883313I21628J2388D01*
G01X11859281Y10883313D02*
X11878359Y10883313D01*
X12170400Y10930526D02*
X12170400Y10894226D01*
X12170397Y10894237D02*
G03X12182203Y10882348I16283J4363D01*
G01X12182178Y10882356D02*
G03X12203398Y10882337I10641J35244D01*
G01X12203434Y10882348D02*
G03X12214944Y10893938I-6126J17595D01*
G01X12214941Y10893929D02*
X12214941Y10930526D01*
X8999999Y31600000D02*
G03X8999999Y31600000I-199999D01*
G01X8550000Y31600000D02*
X9050000Y31600000D01*
X8800000Y31850000D02*
X8800000Y31350000D01*
X39799999Y8400000D02*
G03X39799999Y8400000I-199999D01*
G01X39350000Y8400000D02*
X39850000Y8400000D01*
X39600000Y8650000D02*
X39600000Y8150000D01*
X40399999Y8400000D02*
G03X40399999Y8400000I-199999D01*
G01X39950000Y8400000D02*
X40450000Y8400000D01*
X40200000Y8650000D02*
X40200000Y8150000D01*
G54D23*
X13575000Y13410000D02*
X13225000Y13410000D01*
X13575000Y13190000D02*
X13225000Y13190000D01*
X13435000Y13405000D02*
X13435000Y13195000D01*
X13410000Y13405000D02*
X13410000Y13195000D01*
X13405000Y13195000*
X13385000Y13400000D02*
X13385000Y13195000D01*
X13365000Y13400000D02*
X13365000Y13195000D01*
X13575000Y13710000D02*
X13225000Y13710000D01*
X13575000Y13490000D02*
X13225000Y13490000D01*
X13435000Y13705000D02*
X13435000Y13495000D01*
X13410000Y13705000D02*
X13410000Y13495000D01*
X13405000Y13495000*
X13385000Y13700000D02*
X13385000Y13495000D01*
X13365000Y13700000D02*
X13365000Y13495000D01*
X12005000Y12005000D02*
X12005000Y12395000D01*
X11695000Y12005000D02*
X11695000Y12395000D01*
X11995000Y12165000D02*
X11705000Y12165000D01*
X11995000Y12190000D02*
X11705000Y12190000D01*
X11745000Y12195000*
X11995000Y12215000D02*
X11705000Y12215000D01*
X11995000Y12235000D02*
X11705000Y12235000D01*
X11605000Y12005000D02*
X11605000Y12395000D01*
X11295000Y12005000D02*
X11295000Y12395000D01*
X11595000Y12165000D02*
X11305000Y12165000D01*
X11595000Y12190000D02*
X11305000Y12190000D01*
X11345000Y12195000*
X11595000Y12215000D02*
X11305000Y12215000D01*
X11595000Y12235000D02*
X11305000Y12235000D01*
X13145000Y12095000D02*
X13145000Y13105000D01*
X14155000Y13105000*
X14155000Y12095000*
X13145000Y12095000*
X13685000Y12400000D02*
G03X13685000Y12400000I-35000D01*
G03X13685000Y12400000I-35000*
G01X13615934Y12391966D02*
X13684065Y12391966D01*
X13620584Y12418966D02*
X13679415Y12418966D01*
G54D24*
X11975000Y14325000D02*
X11975000Y14075000D01*
X11225000Y14075000*
X11225000Y14325000*
X11975000Y14325000*
X11500000Y10256687D02*
X11500000Y10090000D01*
X11500000Y10256687D02*
X11551954Y10256687D01*
X11551954Y10256687D02*
X11569272Y10248750D01*
X11569272Y10248750D02*
X11575045Y10240812D01*
X11575045Y10240812D02*
X11580818Y10224937D01*
X11580818Y10224937D02*
X11580818Y10201125D01*
X11575045Y10185250*
X11569272Y10177312*
X11569272Y10177312D02*
X11551954Y10169375D01*
X11551954Y10169375D02*
X11500000Y10169375D01*
X11719363Y10217000D02*
X11713590Y10232875D01*
X11713590Y10232875D02*
X11702045Y10248750D01*
X11690500Y10256687*
X11690500Y10256687D02*
X11667409Y10256687D01*
X11667409Y10256687D02*
X11655863Y10248750D01*
X11655863Y10248750D02*
X11644318Y10232875D01*
X11638545Y10217000*
X11632772Y10193187*
X11632772Y10193187D02*
X11632772Y10153500D01*
X11632772Y10153500D02*
X11638545Y10129687D01*
X11638545Y10129687D02*
X11644318Y10113812D01*
X11644318Y10113812D02*
X11655863Y10097937D01*
X11655863Y10097937D02*
X11667409Y10090000D01*
X11690500Y10090000*
X11702045Y10097937*
X11702045Y10097937D02*
X11713590Y10113812D01*
X11713590Y10113812D02*
X11719363Y10129687D01*
X11771318Y10256687D02*
X11771318Y10090000D01*
X11771318Y10256687D02*
X11823272Y10256687D01*
X11823272Y10256687D02*
X11840590Y10248750D01*
X11840590Y10248750D02*
X11846363Y10240812D01*
X11846363Y10240812D02*
X11852136Y10224937D01*
X11852136Y10224937D02*
X11852136Y10209062D01*
X11852136Y10209062D02*
X11846363Y10193187D01*
X11846363Y10193187D02*
X11840590Y10185250D01*
X11840590Y10185250D02*
X11823272Y10177312D01*
X11771318Y10177312D02*
X11823272Y10177312D01*
X11823272Y10177312D02*
X11840590Y10169375D01*
X11840590Y10169375D02*
X11846363Y10161437D01*
X11846363Y10161437D02*
X11852136Y10145562D01*
X11852136Y10145562D02*
X11852136Y10121750D01*
X11846363Y10105875*
X11846363Y10105875D02*
X11840590Y10097937D01*
X11840590Y10097937D02*
X11823272Y10090000D01*
X11823272Y10090000D02*
X11771318Y10090000D01*
X11938727Y10256687D02*
X11921409Y10248750D01*
X11909863Y10224937*
X11909863Y10224937D02*
X11904090Y10185250D01*
X11904090Y10185250D02*
X11904090Y10161437D01*
X11904090Y10161437D02*
X11909863Y10121750D01*
X11909863Y10121750D02*
X11921409Y10097937D01*
X11921409Y10097937D02*
X11938727Y10090000D01*
X11950272Y10090000*
X11950272Y10090000D02*
X11967590Y10097937D01*
X11967590Y10097937D02*
X11979136Y10121750D01*
X11984909Y10161437*
X11984909Y10161437D02*
X11984909Y10185250D01*
X11979136Y10224937*
X11979136Y10224937D02*
X11967590Y10248750D01*
X11967590Y10248750D02*
X11950272Y10256687D01*
X11950272Y10256687D02*
X11938727Y10256687D01*
X12071500Y10256687D02*
X12054181Y10248750D01*
X12054181Y10248750D02*
X12042636Y10224937D01*
X12042636Y10224937D02*
X12036863Y10185250D01*
X12036863Y10185250D02*
X12036863Y10161437D01*
X12036863Y10161437D02*
X12042636Y10121750D01*
X12054181Y10097937*
X12054181Y10097937D02*
X12071500Y10090000D01*
X12083045Y10090000*
X12100363Y10097937*
X12100363Y10097937D02*
X12111909Y10121750D01*
X12117681Y10161437*
X12117681Y10161437D02*
X12117681Y10185250D01*
X12117681Y10185250D02*
X12111909Y10224937D01*
X12111909Y10224937D02*
X12100363Y10248750D01*
X12100363Y10248750D02*
X12083045Y10256687D01*
X12083045Y10256687D02*
X12071500Y10256687D01*
X12250454Y10256687D02*
X12192727Y10090000D01*
X12169636Y10256687D02*
X12250454Y10256687D01*
X12371681Y10232875D02*
X12365909Y10248750D01*
X12348590Y10256687*
X12348590Y10256687D02*
X12337045Y10256687D01*
X12337045Y10256687D02*
X12319727Y10248750D01*
X12308181Y10224937*
X12308181Y10224937D02*
X12302409Y10185250D01*
X12302409Y10145562*
X12302409Y10145562D02*
X12308181Y10113812D01*
X12308181Y10113812D02*
X12319727Y10097937D01*
X12319727Y10097937D02*
X12337045Y10090000D01*
X12342818Y10090000*
X12360136Y10097937*
X12360136Y10097937D02*
X12371681Y10113812D01*
X12371681Y10113812D02*
X12377454Y10137625D01*
X12377454Y10137625D02*
X12377454Y10145562D01*
X12377454Y10145562D02*
X12371681Y10169375D01*
X12371681Y10169375D02*
X12360136Y10185250D01*
X12342818Y10193187*
X12342818Y10193187D02*
X12337045Y10193187D01*
X12337045Y10193187D02*
X12319727Y10185250D01*
X12308181Y10169375*
X12308181Y10169375D02*
X12302409Y10145562D01*
X12562181Y10256687D02*
X12562181Y10090000D01*
X12562181Y10256687D02*
X12614136Y10256687D01*
X12614136Y10256687D02*
X12631454Y10248750D01*
X12631454Y10248750D02*
X12637227Y10240812D01*
X12637227Y10240812D02*
X12643000Y10224937D01*
X12643000Y10224937D02*
X12643000Y10209062D01*
X12643000Y10209062D02*
X12637227Y10193187D01*
X12637227Y10193187D02*
X12631454Y10185250D01*
X12631454Y10185250D02*
X12614136Y10177312D01*
X12614136Y10177312D02*
X12562181Y10177312D01*
X12602590Y10177312D02*
X12643000Y10090000D01*
X12694954Y10153500D02*
X12764227Y10153500D01*
X12764227Y10169375*
X12758454Y10185250*
X12758454Y10185250D02*
X12752681Y10193187D01*
X12752681Y10193187D02*
X12741136Y10201125D01*
X12723818Y10201125*
X12712272Y10193187*
X12712272Y10193187D02*
X12700727Y10177312D01*
X12700727Y10177312D02*
X12694954Y10153500D01*
X12694954Y10153500D02*
X12694954Y10137625D01*
X12694954Y10137625D02*
X12700727Y10113812D01*
X12700727Y10113812D02*
X12712272Y10097937D01*
X12712272Y10097937D02*
X12723818Y10090000D01*
X12741136Y10090000*
X12752681Y10097937*
X12752681Y10097937D02*
X12764227Y10113812D01*
X12816181Y10201125D02*
X12850818Y10090000D01*
X12885454Y10201125D02*
X12850818Y10090000D01*
X12943181Y10105875D02*
X12937409Y10097937D01*
X12937409Y10097937D02*
X12943181Y10090000D01*
X12943181Y10090000D02*
X12948954Y10097937D01*
X12948954Y10097937D02*
X12943181Y10105875D01*
X13047090Y10256687D02*
X13000909Y10090000D01*
X13047090Y10256687D02*
X13093272Y10090000D01*
X13018227Y10145562D02*
X13075954Y10145562D01*
X11724636Y14591687D02*
X11713090Y14583750D01*
X11713090Y14583750D02*
X11701545Y14567875D01*
X11695772Y14552000*
X11695772Y14552000D02*
X11690000Y14528187D01*
X11690000Y14528187D02*
X11690000Y14488500D01*
X11695772Y14464687*
X11695772Y14464687D02*
X11701545Y14448812D01*
X11701545Y14448812D02*
X11713090Y14432937D01*
X11713090Y14432937D02*
X11724636Y14425000D01*
X11747727Y14425000*
X11759272Y14432937*
X11759272Y14432937D02*
X11770818Y14448812D01*
X11770818Y14448812D02*
X11776590Y14464687D01*
X11776590Y14464687D02*
X11782363Y14488500D01*
X11782363Y14488500D02*
X11782363Y14528187D01*
X11782363Y14528187D02*
X11776590Y14552000D01*
X11776590Y14552000D02*
X11770818Y14567875D01*
X11759272Y14583750*
X11759272Y14583750D02*
X11747727Y14591687D01*
X11747727Y14591687D02*
X11724636Y14591687D01*
X11834318Y14591687D02*
X11834318Y14425000D01*
X11834318Y14591687D02*
X11915136Y14425000D01*
X11915136Y14591687D02*
X11915136Y14425000D01*
X11234636Y14586687D02*
X11223090Y14578750D01*
X11223090Y14578750D02*
X11211545Y14562875D01*
X11205772Y14547000*
X11205772Y14547000D02*
X11200000Y14523187D01*
X11200000Y14523187D02*
X11200000Y14483500D01*
X11205772Y14459687*
X11205772Y14459687D02*
X11211545Y14443812D01*
X11211545Y14443812D02*
X11223090Y14427937D01*
X11223090Y14427937D02*
X11234636Y14420000D01*
X11257727Y14420000*
X11269272Y14427937*
X11269272Y14427937D02*
X11280818Y14443812D01*
X11280818Y14443812D02*
X11286590Y14459687D01*
X11286590Y14459687D02*
X11292363Y14483500D01*
X11292363Y14483500D02*
X11292363Y14523187D01*
X11292363Y14523187D02*
X11286590Y14547000D01*
X11286590Y14547000D02*
X11280818Y14562875D01*
X11269272Y14578750*
X11269272Y14578750D02*
X11257727Y14586687D01*
X11257727Y14586687D02*
X11234636Y14586687D01*
X11344318Y14586687D02*
X11344318Y14420000D01*
X11344318Y14586687D02*
X11419363Y14586687D01*
X11344318Y14507312D02*
X11390500Y14507312D01*
X11471318Y14586687D02*
X11471318Y14420000D01*
X11471318Y14586687D02*
X11546363Y14586687D01*
X11471318Y14507312D02*
X11517500Y14507312D01*
X10300000Y11566687D02*
X10346181Y11400000D01*
X10392363Y11566687D02*
X10346181Y11400000D01*
X10444318Y11566687D02*
X10444318Y11400000D01*
X10496272Y11566687D02*
X10496272Y11400000D01*
X10496272Y11566687D02*
X10577090Y11400000D01*
X10577090Y11566687D02*
X10577090Y11400000D01*
X14010000Y14106687D02*
X14056181Y13940000D01*
X14102363Y14106687D02*
X14056181Y13940000D01*
X14188954Y14106687D02*
X14177409Y14098750D01*
X14165863Y14082875*
X14165863Y14082875D02*
X14160090Y14067000D01*
X14160090Y14067000D02*
X14154318Y14043187D01*
X14154318Y14043187D02*
X14154318Y14003500D01*
X14160090Y13979687*
X14160090Y13979687D02*
X14165863Y13963812D01*
X14165863Y13963812D02*
X14177409Y13947937D01*
X14177409Y13947937D02*
X14188954Y13940000D01*
X14188954Y13940000D02*
X14212045Y13940000D01*
X14223590Y13947937*
X14223590Y13947937D02*
X14235136Y13963812D01*
X14235136Y13963812D02*
X14240909Y13979687D01*
X14240909Y13979687D02*
X14246681Y14003500D01*
X14246681Y14003500D02*
X14246681Y14043187D01*
X14246681Y14043187D02*
X14240909Y14067000D01*
X14235136Y14082875*
X14223590Y14098750*
X14223590Y14098750D02*
X14212045Y14106687D01*
X14212045Y14106687D02*
X14188954Y14106687D01*
X14298636Y14106687D02*
X14298636Y13987625D01*
X14304409Y13963812*
X14304409Y13963812D02*
X14315954Y13947937D01*
X14315954Y13947937D02*
X14333272Y13940000D01*
X14333272Y13940000D02*
X14344818Y13940000D01*
X14362136Y13947937*
X14362136Y13947937D02*
X14373681Y13963812D01*
X14373681Y13963812D02*
X14379454Y13987625D01*
X14379454Y13987625D02*
X14379454Y14106687D01*
X14471818Y14106687D02*
X14471818Y13940000D01*
X14431409Y14106687D02*
X14512227Y14106687D01*
X10851954Y11542875D02*
X10851954Y11400000D01*
X10800000Y11471437D02*
X10903909Y11471437D01*
X10800000Y12871437D02*
X10903909Y12871437D01*
X14021954Y14592875D02*
X14021954Y14450000D01*
X13970000Y14521437D02*
X14073909Y14521437D01*
X12550000Y14521437D02*
X12653909Y14521437D01*
X10386590Y12927000D02*
X10380818Y12942875D01*
X10369272Y12958750*
X10369272Y12958750D02*
X10357727Y12966687D01*
X10357727Y12966687D02*
X10334636Y12966687D01*
X10334636Y12966687D02*
X10323090Y12958750D01*
X10323090Y12958750D02*
X10311545Y12942875D01*
X10305772Y12927000*
X10305772Y12927000D02*
X10300000Y12903187D01*
X10300000Y12903187D02*
X10300000Y12863500D01*
X10305772Y12839687*
X10305772Y12839687D02*
X10311545Y12823812D01*
X10311545Y12823812D02*
X10323090Y12807937D01*
X10323090Y12807937D02*
X10334636Y12800000D01*
X10357727Y12800000*
X10369272Y12807937*
X10369272Y12807937D02*
X10380818Y12823812D01*
X10380818Y12823812D02*
X10386590Y12839687D01*
X10386590Y12839687D02*
X10386590Y12863500D01*
X10357727Y12863500D02*
X10386590Y12863500D01*
X10438545Y12966687D02*
X10438545Y12800000D01*
X10438545Y12966687D02*
X10519363Y12800000D01*
X10519363Y12966687D02*
X10519363Y12800000D01*
X10571318Y12966687D02*
X10571318Y12800000D01*
X10571318Y12966687D02*
X10611727Y12966687D01*
X10611727Y12966687D02*
X10629045Y12958750D01*
X10640590Y12942875*
X10640590Y12942875D02*
X10646363Y12927000D01*
X10646363Y12927000D02*
X10652136Y12903187D01*
X10652136Y12903187D02*
X10652136Y12863500D01*
X10646363Y12839687*
X10646363Y12839687D02*
X10640590Y12823812D01*
X10640590Y12823812D02*
X10629045Y12807937D01*
X10629045Y12807937D02*
X10611727Y12800000D01*
X10571318Y12800000*
X12536590Y14027000D02*
X12530818Y14042875D01*
X12519272Y14058750*
X12519272Y14058750D02*
X12507727Y14066687D01*
X12507727Y14066687D02*
X12484636Y14066687D01*
X12484636Y14066687D02*
X12473090Y14058750D01*
X12473090Y14058750D02*
X12461545Y14042875D01*
X12455772Y14027000*
X12455772Y14027000D02*
X12450000Y14003187D01*
X12450000Y14003187D02*
X12450000Y13963500D01*
X12455772Y13939687*
X12455772Y13939687D02*
X12461545Y13923812D01*
X12461545Y13923812D02*
X12473090Y13907937D01*
X12473090Y13907937D02*
X12484636Y13900000D01*
X12507727Y13900000*
X12519272Y13907937*
X12519272Y13907937D02*
X12530818Y13923812D01*
X12530818Y13923812D02*
X12536590Y13939687D01*
X12536590Y13939687D02*
X12536590Y13963500D01*
X12507727Y13963500D02*
X12536590Y13963500D01*
X12588545Y14066687D02*
X12588545Y13900000D01*
X12588545Y14066687D02*
X12669363Y13900000D01*
X12669363Y14066687D02*
X12669363Y13900000D01*
X12721318Y14066687D02*
X12721318Y13900000D01*
X12721318Y14066687D02*
X12761727Y14066687D01*
X12761727Y14066687D02*
X12779045Y14058750D01*
X12790590Y14042875*
X12790590Y14042875D02*
X12796363Y14027000D01*
X12796363Y14027000D02*
X12802136Y14003187D01*
X12802136Y14003187D02*
X12802136Y13963500D01*
X12796363Y13939687*
X12796363Y13939687D02*
X12790590Y13923812D01*
X12790590Y13923812D02*
X12779045Y13907937D01*
X12779045Y13907937D02*
X12761727Y13900000D01*
X12721318Y13900000*
G74*
X0Y0D02*
M02*
